<?xml version="1.0" encoding="UTF-8"?>
<svg width="141px" height="34px" viewBox="0 0 141 34" version="1.1" xmlns="http://www.w3.org/2000/svg" xmlns:xlink="http://www.w3.org/1999/xlink">
    <title>Group 15</title>
    <defs>
        <polygon id="path-1" points="0.0584780488 0.26334878 26.9038537 0.26334878 26.9038537 26.9999341 0.0584780488 26.9999341"></polygon>
        <polygon id="path-3" points="0 33 141 33 141 0 0 0"></polygon>
    </defs>
    <g id="Page-1" stroke="none" stroke-width="1" fill="none" fill-rule="evenodd">
        <g id="Landing-page" transform="translate(-120.000000, -991.000000)">
            <g id="Group-7" transform="translate(-3.000000, 944.000000)">
                <g id="Group-15" transform="translate(123.000000, 47.000000)">
                    <g id="Group-12">
                        <g id="Group-3" transform="translate(114.000000, 6.000000)">
                            <mask id="mask-2" fill="white">
                                <use xlink:href="#path-1"></use>
                            </mask>
                            <g id="Clip-2"></g>
                            <path d="M13.4814293,21.0033 C9.30400244,21.0033 6.2721,17.903239 6.2721,13.6316415 C6.2721,9.36070244 9.30400244,6.25998293 13.4814293,6.25998293 C17.6585268,6.25998293 20.6901,9.36070244 20.6901,13.6316415 C20.6901,17.903239 17.6585268,21.0033 13.4814293,21.0033 M13.4814293,0.26334878 C5.95468537,0.26334878 0.0584780488,6.13551951 0.0584780488,13.6316415 C0.0584780488,21.1280927 5.95468537,26.9999341 13.4814293,26.9999341 C21.0078439,26.9999341 26.9040512,21.1280927 26.9040512,13.6316415 C26.9040512,6.13551951 21.0078439,0.26334878 13.4814293,0.26334878" id="Fill-1" fill="#FFFFFF" mask="url(#mask-2)"></path>
                        </g>
                        <polygon id="Fill-4" fill="#FFFFFF" points="29.4492172 8 24.5528994 26.3124845 18.9952514 8 13.9703145 8 15.8152661 13.8766306 11.6978265 27.2294635 6.60874284 8 0 8 7.93205438 33 14.1187963 33 17.9946273 20.7221446 21.886088 33 28.0178005 33 36 8"></polygon>
                        <path d="M45.1471708,18.0872794 L45.5302704,16.871156 C46.4898097,13.823483 48.9208813,12.1449895 52.3756134,12.1449895 C55.6620681,12.1449895 58.0257636,13.879198 58.860641,16.9028559 L59.1880821,18.0872794 L45.1471708,18.0872794 Z M64.9882824,19.4881587 C64.7510015,12.2519366 59.4689785,7 52.429319,7 C44.6478718,7 39,12.4674319 39,20.0001601 C39,27.6542445 44.6107661,33 52.6438157,33 C56.2398097,33 59.2316975,31.9359721 61.377316,29.9087797 L56.3582874,27.5953275 C55.292639,28.1668863 54.0069604,28.4883681 52.7509014,28.4883681 C49.17997,28.4883681 46.5594642,26.6491336 45.5631447,23.4426409 L45.1859039,22.2297196 L65,22.2297196 L64.9882824,19.4881587 Z" id="Fill-6" fill="#FFFFFF"></path>
                        <path d="M76.1474962,18.0872794 L76.5302704,16.871156 C77.4898097,13.823483 79.9208813,12.1449895 83.3759389,12.1449895 C86.6620681,12.1449895 89.0260891,13.879198 89.8609664,16.9028559 L90.1884076,18.0872794 L76.1474962,18.0872794 Z M95.9886079,19.4881587 C95.7516525,12.2519366 90.469304,7 83.429319,7 C75.6481973,7 70,12.4674319 70,20.0001601 C70,27.6542445 75.6110916,33 83.6441412,33 C87.2401352,33 90.232023,31.9359721 92.377316,29.9087797 L87.3582874,27.5953275 C86.292639,28.1668863 85.0072859,28.4883681 83.7512268,28.4883681 C80.17997,28.4883681 77.5597897,26.6491336 76.5631447,23.4426409 L76.1859039,22.2297196 L96,22.2297196 L95.9886079,19.4881587 Z" id="Fill-8" fill="#FFFFFF"></path>
                        <mask id="mask-4" fill="white">
                            <use xlink:href="#path-3"></use>
                        </mask>
                        <g id="Clip-11"></g>
                        <polygon id="Fill-10" fill="#FFFFFF" mask="url(#mask-4)" points="102 33 108 33 108 0 102 0"></polygon>
                    </g>
                </g>
            </g>
        </g>
    </g>
</svg>