<?xml version="1.0" encoding="UTF-8"?>
<svg width="154px" height="37px" viewBox="0 0 154 37" version="1.1" xmlns="http://www.w3.org/2000/svg" xmlns:xlink="http://www.w3.org/1999/xlink">
    <title>Group 14</title>
    <defs>
        <polygon id="path-1" points="0.199733684 0.00951397849 28.6947368 0.00951397849 28.6947368 28 0.199733684 28"></polygon>
        <polygon id="path-3" points="0 0.0974147727 38.8719449 0.0974147727 38.8719449 27 0 27"></polygon>
        <polygon id="path-5" points="0 36 154 36 154 0 0 0"></polygon>
    </defs>
    <g id="Page-1" stroke="none" stroke-width="1" fill="none" fill-rule="evenodd">
        <g id="Landing-page" transform="translate(-120.000000, -36.000000)">
            <g id="Group-14" transform="translate(120.000000, 36.000000)">
                <g id="Group-13">
                    <g id="Group-3" transform="translate(125.000000, 8.000000)">
                        <mask id="mask-2" fill="white">
                            <use xlink:href="#path-1"></use>
                        </mask>
                        <g id="Clip-2"></g>
                        <path d="M14.4472811,21.7221591 C10.0133337,21.7221591 6.79524947,18.4765677 6.79524947,14.0046968 C6.79524947,9.53312688 10.0133337,6.28753548 14.4472811,6.28753548 C18.8806179,6.28753548 22.0987021,9.53312688 22.0987021,14.0046968 C22.0987021,18.4765677 18.8806179,21.7221591 14.4472811,21.7221591 M14.4472811,0.00951397849 C6.45793368,0.00951397849 0.199733684,6.15686882 0.199733684,14.0046968 C0.199733684,21.8528258 6.45793368,28.0001806 14.4472811,28.0001806 C22.4366284,28.0001806 28.6948284,21.8528258 28.6948284,14.0046968 C28.6948284,6.15686882 22.4366284,0.00951397849 14.4472811,0.00951397849" id="Fill-1" fill="#3721A6" mask="url(#mask-2)"></path>
                    </g>
                    <g id="Group-6" transform="translate(0.000000, 9.000000)">
                        <mask id="mask-4" fill="white">
                            <use xlink:href="#path-3"></use>
                        </mask>
                        <g id="Clip-5"></g>
                        <polygon id="Fill-4" fill="#3721A6" mask="url(#mask-4)" points="31.7985118 0.0974147727 26.5117087 19.803733 20.510622 0.0974147727 15.0850157 0.0974147727 17.0770866 6.42155114 12.6313937 20.7901534 7.13638583 0.0974147727 0 0.0974147727 8.56495276 27.0001534 15.245315 27.0001534 19.4302913 13.787642 23.6321575 27.0001534 30.2529449 27.0001534 38.8719449 0.0974147727"></polygon>
                    </g>
                    <path d="M48.6202915,19.9402375 L49.032682,18.6304105 C50.0659545,15.348464 52.6838842,13.5407882 56.4045836,13.5407882 C59.9437331,13.5407882 62.4894103,15.4083986 63.388587,18.6647449 L63.7412773,19.9402375 L48.6202915,19.9402375 Z M69.9874477,21.4488426 C69.7321145,13.6561397 64.0434521,8 56.4624468,8 C48.0826837,8 42,13.8880475 42,22 C42,30.2429653 48.0422712,36 56.6935937,36 C60.566452,36 63.788119,34.8540143 66.0989755,32.6707684 L60.6938124,30.1797178 C59.546038,30.7953274 58.161606,31.141382 56.8090141,31.141382 C52.9630974,31.141382 50.1412686,29.1605284 49.068196,25.7069099 L48.6619286,24.4009982 L70,24.4009982 L69.9874477,21.4488426 Z" id="Fill-7" fill="#3721A6"></path>
                    <path d="M83.6202915,19.9402375 L84.032682,18.6304105 C85.0659545,15.348464 87.6838842,13.5407882 91.4048897,13.5407882 C94.9437331,13.5407882 97.4897165,15.4083986 98.3882808,18.6647449 L98.7412773,19.9402375 L83.6202915,19.9402375 Z M104.987448,21.4488426 C104.732115,13.6561397 99.0437583,8 91.4624468,8 C83.0823775,8 77,13.8880475 77,22 C77,30.2429653 83.0422712,36 91.6935937,36 C95.566452,36 98.7884252,34.8540143 101.098975,32.6707684 L95.6938124,30.1797178 C94.546038,30.7953274 93.1612998,31.141382 91.8090141,31.141382 C87.9630974,31.141382 85.1412686,29.1605284 84.068196,25.7069099 L83.6619286,24.4009982 L105,24.4009982 L104.987448,21.4488426 Z" id="Fill-9" fill="#3721A6"></path>
                    <mask id="mask-6" fill="white">
                        <use xlink:href="#path-5"></use>
                    </mask>
                    <g id="Clip-12"></g>
                    <polygon id="Fill-11" fill="#3721A6" mask="url(#mask-6)" points="111 36 118 36 118 0 111 0"></polygon>
                </g>
            </g>
        </g>
    </g>
</svg>