<?xml version="1.0" encoding="utf-8"?>
<!-- Generator: Adobe Illustrator 25.2.1, SVG Export Plug-In . SVG Version: 6.00 Build 0)  -->
<svg version="1.1" id="artwork" xmlns="http://www.w3.org/2000/svg" xmlns:xlink="http://www.w3.org/1999/xlink" x="0px" y="0px"
	 viewBox="0 0 155 45.4" style="enable-background:new 0 0 155 45.4;" xml:space="preserve">
<style type="text/css">
	.st0{fill:#A6A6A6;}
	.st1{fill:#FFFFFF;stroke:#FFFFFF;stroke-width:0.2;stroke-miterlimit:10;}
	.st2{fill:#FFFFFF;}
	.st3{fill:url(#SVGID_1_);}
	.st4{fill:url(#SVGID_2_);}
	.st5{fill:url(#SVGID_3_);}
	.st6{fill:url(#SVGID_4_);}
	.st7{opacity:0.2;enable-background:new    ;}
	.st8{opacity:0.12;enable-background:new    ;}
	.st9{opacity:0.25;fill:#FFFFFF;enable-background:new    ;}
</style>
<g>
	<g>
		<path d="M148.3,45.4H6.4c-3.1,0-5.7-2.6-5.7-5.7V5.7C0.8,2.6,3.3,0,6.4,0h141.9c3.1,0,5.7,2.6,5.7,5.7v34.1
			C154,42.8,151.4,45.4,148.3,45.4z"/>
	</g>
	<g>
		<g>
			<path class="st0" d="M148.3,0.9c2.6,0,4.8,2.1,4.8,4.8v34.1c0,2.6-2.1,4.8-4.8,4.8H6.4c-2.6,0-4.8-2.1-4.8-4.8V5.7
				c0-2.6,2.1-4.8,4.8-4.8H148.3 M148.3,0H6.4C3.3,0,0.8,2.6,0.8,5.7v34.1c0,3.1,2.6,5.7,5.7,5.7h141.9c3.1,0,5.7-2.6,5.7-5.7V5.7
				C154,2.6,151.4,0,148.3,0L148.3,0z"/>
		</g>
	</g>
	<g>
		<path class="st1" d="M54.6,11.6c0,1-0.3,1.7-0.8,2.3c-0.6,0.7-1.5,1-2.5,1c-1,0-1.8-0.3-2.5-1c-0.7-0.7-1-1.5-1-2.5
			c0-1,0.3-1.9,1-2.5c0.7-0.7,1.5-1,2.5-1c0.5,0,1,0.1,1.4,0.3c0.4,0.2,0.8,0.4,1.1,0.8l-0.6,0.6c-0.5-0.5-1.1-0.8-1.9-0.8
			c-0.7,0-1.3,0.3-1.9,0.8c-0.5,0.5-0.8,1.2-0.8,2s0.3,1.5,0.8,2c0.5,0.5,1.1,0.8,1.9,0.8c0.8,0,1.4-0.3,1.9-0.8
			c0.3-0.3,0.5-0.8,0.6-1.4h-2.5v-0.8h3.3C54.6,11.3,54.6,11.5,54.6,11.6z"/>
		<path class="st1" d="M59.8,8.8h-3.1v2.2h2.8v0.8h-2.8v2.2h3.1v0.8h-4V7.9h4V8.8z"/>
		<path class="st1" d="M63.5,14.8h-0.9v-6h-1.9V7.9h4.7v0.8h-1.9V14.8z"/>
		<path class="st1" d="M68.8,14.8V7.9h0.9v6.8H68.8z"/>
		<path class="st1" d="M73.6,14.8h-0.9v-6h-1.9V7.9h4.7v0.8h-1.9V14.8z"/>
		<path class="st1" d="M84.3,13.9c-0.7,0.7-1.5,1-2.5,1c-1,0-1.8-0.3-2.5-1c-0.7-0.7-1-1.5-1-2.5s0.3-1.8,1-2.5c0.7-0.7,1.5-1,2.5-1
			c1,0,1.8,0.3,2.5,1c0.7,0.7,1,1.5,1,2.5C85.3,12.3,85,13.2,84.3,13.9z M80,13.3c0.5,0.5,1.1,0.8,1.8,0.8c0.7,0,1.3-0.3,1.8-0.8
			c0.5-0.5,0.8-1.2,0.8-2s-0.3-1.4-0.8-2c-0.5-0.5-1.1-0.8-1.8-0.8c-0.7,0-1.3,0.3-1.8,0.8c-0.5,0.5-0.8,1.2-0.8,2
			S79.5,12.8,80,13.3z"/>
		<path class="st1" d="M86.6,14.8V7.9h1.1l3.3,5.3h0l0-1.3v-4h0.9v6.8h-0.9l-3.5-5.6h0l0,1.3v4.2H86.6z"/>
	</g>
	<path class="st2" d="M78.1,24.7c-2.7,0-4.8,2-4.8,4.8c0,2.8,2.2,4.8,4.8,4.8c2.7,0,4.8-2,4.8-4.8C83,26.7,80.8,24.7,78.1,24.7z
		 M78.1,32.4c-1.5,0-2.7-1.2-2.7-2.9c0-1.7,1.3-2.9,2.7-2.9c1.5,0,2.7,1.2,2.7,2.9C80.8,31.2,79.6,32.4,78.1,32.4z M67.5,24.7
		c-2.7,0-4.8,2-4.8,4.8c0,2.8,2.2,4.8,4.8,4.8c2.7,0,4.8-2,4.8-4.8C72.4,26.7,70.2,24.7,67.5,24.7z M67.5,32.4
		c-1.5,0-2.7-1.2-2.7-2.9c0-1.7,1.3-2.9,2.7-2.9c1.5,0,2.7,1.2,2.7,2.9C70.3,31.2,69,32.4,67.5,32.4z M55,26.2v2h4.9
		c-0.1,1.2-0.5,2-1.1,2.6c-0.7,0.7-1.8,1.5-3.8,1.5c-3,0-5.4-2.4-5.4-5.4s2.4-5.4,5.4-5.4c1.6,0,2.8,0.6,3.7,1.5l1.4-1.4
		c-1.2-1.2-2.9-2.1-5.1-2.1c-4.1,0-7.6,3.4-7.6,7.5c0,4.1,3.5,7.5,7.6,7.5c2.2,0,3.9-0.7,5.2-2.1c1.4-1.4,1.8-3.3,1.8-4.8
		c0-0.5,0-0.9-0.1-1.3H55z M106.4,27.8c-0.4-1.1-1.6-3.1-4.1-3.1c-2.5,0-4.6,2-4.6,4.8c0,2.7,2,4.8,4.8,4.8c2.2,0,3.5-1.4,4-2.1
		l-1.6-1.1c-0.5,0.8-1.3,1.3-2.4,1.3c-1.1,0-1.8-0.5-2.3-1.5l6.5-2.7L106.4,27.8z M99.8,29.4c-0.1-1.9,1.4-2.8,2.5-2.8
		c0.8,0,1.6,0.4,1.8,1L99.8,29.4z M94.6,34.1h2.1V19.9h-2.1V34.1z M91.1,25.8L91.1,25.8c-0.5-0.6-1.5-1.1-2.6-1.1
		c-2.4,0-4.6,2.1-4.6,4.8c0,2.7,2.2,4.8,4.6,4.8c1.2,0,2.1-0.5,2.5-1.1h0.1v0.7c0,1.8-1,2.8-2.6,2.8c-1.3,0-2.1-0.9-2.4-1.7
		l-1.8,0.8c0.5,1.3,1.9,2.9,4.3,2.9c2.5,0,4.6-1.5,4.6-5V25h-2V25.8z M88.7,32.4c-1.5,0-2.7-1.2-2.7-2.9c0-1.7,1.2-2.9,2.7-2.9
		c1.4,0,2.6,1.2,2.6,2.9C91.2,31.2,90.1,32.4,88.7,32.4z M116.3,19.9h-5.1v14.2h2.1v-5.4h3c2.3,0,4.7-1.7,4.7-4.4
		S118.7,19.9,116.3,19.9z M116.4,26.7h-3v-4.9h3c1.6,0,2.5,1.3,2.5,2.4C118.9,25.4,118,26.7,116.4,26.7z M129.5,24.7
		c-1.5,0-3.1,0.7-3.8,2.2l1.9,0.8c0.4-0.8,1.2-1,1.9-1c1.1,0,2.2,0.7,2.2,1.8v0.1c-0.4-0.2-1.2-0.5-2.2-0.5c-2,0-4.1,1.1-4.1,3.2
		c0,1.9,1.7,3.1,3.5,3.1c1.4,0,2.2-0.6,2.7-1.4h0.1V34h2v-5.4C133.8,26.1,131.9,24.7,129.5,24.7z M129.2,32.4
		c-0.7,0-1.7-0.3-1.7-1.2c0-1.1,1.2-1.5,2.2-1.5c0.9,0,1.4,0.2,1.9,0.5C131.6,31.5,130.4,32.4,129.2,32.4z M141.2,25l-2.4,6.2h-0.1
		l-2.5-6.2h-2.3l3.8,8.6l-2.2,4.8h2.2l5.8-13.4H141.2z M122.1,34.1h2.1V19.9h-2.1V34.1z"/>
	<g>
		
			<linearGradient id="SVGID_1_" gradientUnits="userSpaceOnUse" x1="25.516" y1="178.0405" x2="6.4678" y2="158.9922" gradientTransform="matrix(1 0 0 -1 0 187.9262)">
			<stop  offset="0" style="stop-color:#00A0FF"/>
			<stop  offset="6.574450e-03" style="stop-color:#00A1FF"/>
			<stop  offset="0.2601" style="stop-color:#00BEFF"/>
			<stop  offset="0.5122" style="stop-color:#00D2FF"/>
			<stop  offset="0.7604" style="stop-color:#00DFFF"/>
			<stop  offset="1" style="stop-color:#00E3FF"/>
		</linearGradient>
		<path class="st3" d="M12.6,8.6c-0.3,0.3-0.5,0.9-0.5,1.6v25.1c0,0.7,0.2,1.2,0.5,1.6l0.1,0.1l14.1-14.1v-0.2v-0.2L12.6,8.6
			L12.6,8.6z"/>
		
			<linearGradient id="SVGID_2_" gradientUnits="userSpaceOnUse" x1="39.1755" y1="165.2242" x2="11.7117" y2="165.2242" gradientTransform="matrix(1 0 0 -1 0 187.9262)">
			<stop  offset="0" style="stop-color:#FFE000"/>
			<stop  offset="0.4087" style="stop-color:#FFBD00"/>
			<stop  offset="0.7754" style="stop-color:#FFA500"/>
			<stop  offset="1" style="stop-color:#FF9C00"/>
		</linearGradient>
		<path class="st4" d="M31.4,27.6l-4.7-4.7v-0.2v-0.2l4.7-4.7l0.1,0.1l5.6,3.2c1.6,0.9,1.6,2.4,0,3.3l-5.6,3.2L31.4,27.6z"/>
		
			<linearGradient id="SVGID_3_" gradientUnits="userSpaceOnUse" x1="28.9519" y1="162.6197" x2="3.121" y2="136.7888" gradientTransform="matrix(1 0 0 -1 0 187.9262)">
			<stop  offset="0" style="stop-color:#FF3A44"/>
			<stop  offset="1" style="stop-color:#C31162"/>
		</linearGradient>
		<path class="st5" d="M31.6,27.5l-4.8-4.8L12.6,36.8c0.5,0.6,1.4,0.6,2.4,0.1L31.6,27.5"/>
		
			<linearGradient id="SVGID_4_" gradientUnits="userSpaceOnUse" x1="9.0556" y1="187.7261" x2="20.5902" y2="176.1915" gradientTransform="matrix(1 0 0 -1 0 187.9262)">
			<stop  offset="0" style="stop-color:#32A071"/>
			<stop  offset="6.850000e-02" style="stop-color:#2DA771"/>
			<stop  offset="0.4762" style="stop-color:#15CF74"/>
			<stop  offset="0.8009" style="stop-color:#06E775"/>
			<stop  offset="1" style="stop-color:#00F076"/>
		</linearGradient>
		<path class="st6" d="M31.6,17.9L15,8.5c-1-0.6-1.8-0.5-2.4,0.1l14.1,14.1L31.6,17.9z"/>
		<g>
			<path class="st7" d="M31.5,27.4L15,36.8c-0.9,0.5-1.7,0.5-2.3,0l0,0l-0.1,0.1l0,0l0.1,0.1l0,0c0.5,0.5,1.4,0.5,2.3,0l16.6-9.4
				L31.5,27.4z"/>
			<path class="st8" d="M12.6,36.7c-0.3-0.3-0.5-0.9-0.5-1.6v0.2c0,0.7,0.2,1.2,0.5,1.6V36.7L12.6,36.7z"/>
		</g>
		<path class="st8" d="M37.1,24.2l-5.7,3.2l0.1,0.1l5.6-3.2c0.8-0.5,1.2-1,1.2-1.6l0,0C38.2,23.2,37.8,23.8,37.1,24.2z"/>
		<path class="st9" d="M15,8.7l22.1,12.6c0.7,0.4,1.1,0.9,1.2,1.5l0,0c0-0.6-0.4-1.2-1.2-1.6L15,8.5c-1.6-0.9-2.9-0.2-2.9,1.7v0.2
			C12.1,8.5,13.4,7.8,15,8.7z"/>
	</g>
</g>
</svg>
