<?xml version="1.0" standalone="no"?>
<!DOCTYPE svg PUBLIC "-//W3C//DTD SVG 1.1//EN" "http://www.w3.org/Graphics/SVG/1.1/DTD/svg11.dtd" >
<svg xmlns="http://www.w3.org/2000/svg" xmlns:xlink="http://www.w3.org/1999/xlink" version="1.1">
<metadata>
Created by FontForge 20170731 at Sat Oct 15 11:49:45 2016
 By Aleksey,,,
(URW)++,Copyright 2006 by (URW)++ Design &#38; Development
</metadata>
<defs>
<font id="NeuzeitGro-Bol" horiz-adv-x="1024" >
  <font-face 
    font-family="Neuzeit Grotesk"
    font-weight="700"
    font-stretch="normal"
    units-per-em="2048"
    panose-1="0 0 0 0 0 0 0 0 0 0"
    ascent="1525"
    descent="-523"
    x-height="947"
    cap-height="1365"
    bbox="-362 -512 1993 1821"
    underline-thickness="170"
    underline-position="-801"
    unicode-range="U+0020-FB04"
  />
<missing-glyph horiz-adv-x="614" 
d="M553 0h-492v1365h492v-1365zM122 61h370v1243h-370v-1243z" />
    <glyph glyph-name=".notdef" horiz-adv-x="614" 
d="M553 0h-492v1365h492v-1365zM122 61h370v1243h-370v-1243z" />
    <glyph glyph-name=".null" horiz-adv-x="0" 
 />
    <glyph glyph-name="nonmarkingreturn" horiz-adv-x="682" 
 />
    <glyph glyph-name="space" unicode=" " horiz-adv-x="614" 
 />
    <glyph glyph-name="exclam" unicode="!" horiz-adv-x="588" 
d="M166 1365h256v-939h-256v939zM295 276q67 0 110 -46q40 -43 40 -108q0 -69 -52 -114q-40 -34 -99 -34q-69 0 -111 46q-40 43 -40 105q0 72 52 117q38 34 100 34z" />
    <glyph glyph-name="quotedbl" unicode="&#x22;" horiz-adv-x="844" 
d="M372 1365l-52 -547h-203l-51 547h306zM779 1365l-52 -547h-203l-51 547h306z" />
    <glyph glyph-name="numbersign" unicode="#" 
d="M740 602h176v-138h-197l-60 -409h-140l59 409h-180l-59 -409h-139l59 409h-198v138h219l27 182h-194v139h214l56 381h137l-54 -381h179l56 381h140l-56 -381h178v-139h-198zM599 600l28 186h-183l-26 -186h181z" />
    <glyph glyph-name="dollar" unicode="$" 
d="M551 1139v-347q141 -49 227 -100q72 -43 119 -118q48 -80 48 -180q0 -155 -106 -267q-79 -86 -213 -115l-75 -12v-180h-97v180q-168 12 -277 124q-91 93 -99 258h234q1 -133 142 -166v357q-128 45 -208 95q-169 106 -169 304q0 136 81 239q104 134 296 147v145h97v-145
q203 -34 288 -135q76 -88 84 -224h-231q-6 63 -37 92q-39 37 -104 48zM454 826v313q-57 -8 -86 -32q-57 -45 -57 -120q0 -76 57 -118q25 -19 86 -43zM551 537v-321q59 8 94 38q55 48 55 125q0 74 -58 116q-31 22 -91 42z" />
    <glyph glyph-name="percent" unicode="%" horiz-adv-x="1391" 
d="M587 1120v-218q0 -124 -65 -189q-64 -66 -186 -66q-128 0 -195 67q-39 38 -49 94q-10 50 -10 125v175q0 145 57 205q67 72 192 72q110 0 183 -62q48 -42 61 -93q12 -43 12 -110zM243 1108v-185q0 -73 12 -95q23 -38 80 -38q58 0 79 41q14 26 14 96v186q0 71 -21 98
q-22 28 -70 28q-59 0 -78 -34q-16 -25 -16 -97zM1308 452v-218q0 -125 -64 -189q-66 -66 -186 -66q-128 0 -195 67q-39 39 -49 94q-10 50 -10 125v175q0 145 57 205q67 72 192 72q111 0 182 -62q48 -43 61 -93q12 -44 12 -110zM965 440v-185q0 -73 13 -95q21 -38 79 -38
t79 41q14 26 14 96v186q0 71 -21 98q-22 28 -70 28q-59 0 -78 -33q-16 -25 -16 -98zM1104 1389l82 -52l-901 -1361l-81 53z" />
    <glyph glyph-name="ampersand" unicode="&#x26;" horiz-adv-x="1306" 
d="M1044 289l228 -289h-300l-105 132q-209 -168 -390 -168q-170 0 -284 108q-118 112 -118 286q0 132 68 224q69 92 229 194q-51 73 -76 122q-37 75 -37 155q0 135 107 218q97 73 236 73q158 0 249 -90q85 -82 85 -198q0 -111 -81 -210q-44 -54 -145 -122l189 -251
q110 98 201 202l172 -154q-118 -130 -228 -232zM577 899q52 32 75 55q46 45 46 97q0 45 -30 73q-25 22 -61 22q-50 0 -80 -36q-22 -25 -22 -60t20 -77q10 -21 25 -39q7 -9 11.5 -15.5t8 -11t5.5 -6.5zM716 317l-214 274q-69 -44 -109 -82q-61 -60 -61 -133q0 -64 45 -117
q51 -59 129 -59q106 0 210 117z" />
    <glyph glyph-name="quotesingle" unicode="'" horiz-adv-x="446" 
d="M381 1365l-52 -547h-212l-51 547h315z" />
    <glyph glyph-name="parenleft" unicode="(" horiz-adv-x="669" 
d="M591 -318l-178 -151q-338 449 -338 942q0 317 141 633q70 157 151 257q45 52 59 67l165 -156q-282 -374 -282 -812q0 -417 282 -780z" />
    <glyph glyph-name="parenright" unicode=")" horiz-adv-x="669" 
d="M79 1279l177 151q339 -446 339 -942q0 -316 -141 -633q-72 -159 -151 -257q-46 -52 -59 -67l-165 156q282 371 282 811q0 420 -282 781z" />
    <glyph glyph-name="asterisk" unicode="*" horiz-adv-x="848" 
d="M553 775l-132 164l-115 -164l-125 87l119 164l-187 60l51 137l184 -54v196h145v-196l192 68l51 -136l-206 -75l136 -164z" />
    <glyph glyph-name="plus" unicode="+" 
d="M26 659v135h415v406h140v-406h418v-135h-418v-406h-140v406h-415z" />
    <glyph glyph-name="comma" unicode="," horiz-adv-x="534" 
d="M184 279l241 -59l-182 -490l-177 41z" />
    <glyph glyph-name="hyphen" unicode="-" horiz-adv-x="454" 
d="M0 614h454v-230h-454v230z" />
    <glyph glyph-name="period" unicode="." horiz-adv-x="534" 
d="M268 276q67 0 110 -46q40 -43 40 -108q0 -69 -52 -114q-40 -34 -99 -34q-69 0 -111 46q-40 43 -40 105q0 72 52 117q38 34 100 34z" />
    <glyph glyph-name="slash" unicode="/" horiz-adv-x="804" 
d="M571 1365h181l-679 -1790h-181z" />
    <glyph glyph-name="zero" unicode="0" 
d="M940 944v-530q0 -160 -48 -248q-105 -193 -376 -193q-214 0 -329 115q-67 65 -83 153q-19 95 -19 234v437q0 176 39 265q50 110 167 165q97 44 216 44q192 0 310 -106q76 -69 102 -158q21 -74 21 -178zM349 911v-466q0 -93 8 -123q15 -53 65 -82q43 -25 93 -25
q95 0 137 69q29 47 29 164v476q0 89 -16 125q-39 91 -150 91q-98 0 -138 -67q-28 -46 -28 -162z" />
    <glyph glyph-name="one" unicode="1" 
d="M480 0v1016l-247 -131v242l511 267v-1394h-264z" />
    <glyph glyph-name="two" unicode="2" 
d="M756 605l-256 -374h387v-231h-830l477 728q76 114 96 158q30 60 30 110q0 67 -46 110q-45 42 -117 42q-117 0 -154 -96q-18 -48 -19 -131h-241q-1 143 49 245q109 220 381 220q114 0 210 -46q113 -53 166 -160q35 -72 35 -157q0 -103 -41 -196q-47 -106 -127 -222z" />
    <glyph glyph-name="three" unicode="3" 
d="M201 718l311 417h-393v224h831l-378 -510q135 -10 226 -88q139 -118 139 -324q0 -212 -145 -348q-125 -116 -309 -116q-166 0 -282 92q-103 82 -136 217q-6 24 -14 89l236 8q11 -63 43 -103q56 -66 144 -66q95 0 159 70q51 56 51 139q0 87 -53 146q-60 64 -157 64
q-70 0 -125 -36z" />
    <glyph glyph-name="four" unicode="4" 
d="M573 0v280h-501v218l479 873h275v-866h125v-225h-125v-280h-253zM286 505h287v508z" />
    <glyph glyph-name="five" unicode="5" 
d="M840 1122h-459v-293q86 37 170 37q166 0 280 -119q117 -121 117 -310q0 -145 -72 -264q-60 -98 -163 -150q-98 -50 -215 -50q-190 0 -314 124q-66 66 -113 188l228 86q57 -150 191 -150q88 0 145 64q55 61 55 147q0 84 -54 146q-59 65 -148 65q-104 0 -174 -93h-172v809
h698v-237z" />
    <glyph glyph-name="six" unicode="6" 
d="M557 1359h298l-350 -539q43 12 73 12q153 0 262 -112q116 -119 116 -293q0 -121 -62 -228q-60 -104 -161 -164q-107 -62 -231 -62q-206 0 -334 152q-101 122 -101 287q0 100 40 205q33 84 110 204zM515 614q-92 0 -152 -68q-48 -56 -48 -130q0 -89 61 -147
q53 -50 133 -50q99 0 156 74q43 55 43 123q0 83 -54 140q-55 58 -139 58z" />
    <glyph glyph-name="seven" unicode="7" 
d="M142 0l444 1122h-441v237h807l-537 -1359h-273z" />
    <glyph glyph-name="eight" unicode="8" 
d="M758 715q197 -87 197 -320q0 -196 -136 -314q-125 -108 -311 -108q-126 0 -233 55q-108 55 -164 162q-42 82 -42 190q0 246 204 335q-70 34 -109 94q-53 83 -53 188q0 185 130 294q113 95 279 95q187 0 300 -119q102 -107 102 -262q0 -110 -58 -198q-36 -56 -106 -92z
M519 1160q-85 0 -133 -59q-38 -47 -38 -105q0 -76 54 -125q49 -46 114 -46q80 0 133 62q41 49 41 106q0 69 -57 123q-47 44 -114 44zM514 590q-88 0 -144 -63q-48 -54 -48 -127q0 -85 58 -139q55 -50 132 -50q88 0 143 63q47 55 47 126q0 81 -59 138q-55 52 -129 52z" />
    <glyph glyph-name="nine" unicode="9" 
d="M179 0l345 536q-34 -7 -61 -7q-143 0 -249 87q-147 118 -147 321q0 194 134 322q130 127 319 127q210 0 339 -155q99 -118 99 -287q0 -102 -40 -207q-32 -82 -107 -202l-336 -535h-296zM519 1143q-91 0 -149 -66q-50 -56 -50 -129q0 -90 64 -148q53 -48 128 -48
q98 0 156 72q41 53 41 121q0 86 -59 143q-55 55 -131 55z" />
    <glyph glyph-name="colon" unicode=":" horiz-adv-x="534" 
d="M268 276q67 0 110 -46q40 -43 40 -108q0 -69 -52 -114q-40 -34 -99 -34q-69 0 -111 46q-40 43 -40 105q0 72 52 117q38 34 100 34zM268 949q67 0 110 -46q40 -43 40 -108q0 -69 -52 -114q-40 -34 -99 -34q-69 0 -111 46q-40 43 -40 105q0 72 52 117q38 34 100 34z" />
    <glyph glyph-name="semicolon" unicode=";" horiz-adv-x="534" 
d="M184 279l241 -59l-182 -490l-177 41zM294 918q67 0 110 -46q40 -43 40 -108q0 -69 -52 -114q-40 -34 -99 -34q-69 0 -111 46q-40 43 -40 105q0 72 52 117q38 34 100 34z" />
    <glyph glyph-name="less" unicode="&#x3c;" 
d="M68 809l887 458v-282l-588 -296l587 -297l1 -279l-887 458v238z" />
    <glyph glyph-name="equal" unicode="=" 
d="M25 814v131h973v-131h-973zM25 510v131h973v-131h-973z" />
    <glyph glyph-name="greater" unicode="&#x3e;" 
d="M956 571l-887 -458v281l588 296l-586 297l-2 280l887 -459v-237z" />
    <glyph glyph-name="question" unicode="?" horiz-adv-x="915" 
d="M541 493v-48h-262q-1 34 -1 73q0 113 29 173q23 44 62 82q22 21 96 79q64 50 84 82q25 38 25 83q0 59 -37 96q-37 40 -101 40q-79 0 -119 -61q-22 -34 -22 -94h-243q1 114 41 193q98 197 349 197q122 0 226 -59q97 -55 140 -154q31 -68 31 -154q0 -125 -69 -215
q-42 -55 -114 -106q-67 -50 -82 -68q-34 -41 -34 -115zM413 276q67 0 110 -46q40 -43 40 -108q0 -69 -52 -114q-40 -34 -99 -34q-69 0 -111 46q-40 43 -40 105q0 72 52 117q38 34 100 34z" />
    <glyph glyph-name="at" unicode="@" horiz-adv-x="1579" 
d="M1339 381h100q-54 -113 -110 -175q-143 -163 -384 -206q-68 -13 -140 -13q-228 0 -412 146q-113 90 -182 215q-84 155 -84 329q0 197 106 363q143 226 380 301q108 34 225 34q162 0 299 -72q204 -109 283 -308q37 -90 37 -188q0 -131 -62 -252q-85 -167 -258 -243
q-85 -39 -161 -39q-129 0 -139 108q-50 -41 -85 -63q-74 -44 -147 -44q-98 0 -160 68q-62 70 -62 185q0 192 120 369q61 92 153 147q80 48 176 48q75 0 128 -38q21 -16 51 -49l20 53h178l-213 -567q-26 -72 -26 -99q0 -38 51 -38q54 0 120 42q110 69 168 199q45 98 45 202
q0 200 -158 341q-154 139 -367 139q-245 0 -420 -174q-180 -177 -180 -431q0 -253 189 -428q169 -157 394 -157q228 0 394 142q61 53 133 153zM849 585l103 263q9 22 9 51q0 106 -87 106q-58 0 -118 -64q-83 -88 -146 -236q-63 -151 -63 -253q0 -93 84 -93q39 0 71 24
q96 72 147 202z" />
    <glyph glyph-name="A" unicode="A" horiz-adv-x="1295" 
d="M983 0l-76 236h-526l-81 -236h-297l472 1365h350l466 -1365h-308zM453 466h380l-189 565z" />
    <glyph glyph-name="B" unicode="B" horiz-adv-x="1172" 
d="M833 683q104 -22 161 -73q99 -88 99 -246q0 -136 -71 -231q-67 -87 -179 -115q-72 -18 -197 -18h-503v1365h441q244 0 347 -79q132 -99 132 -286q0 -144 -87 -235q-49 -51 -143 -82zM521 1152h-98v-366h112q132 0 189 48t57 137q0 75 -42 122q-51 59 -218 59zM544 577
h-121v-371h137q95 0 135 13q115 37 115 169q0 110 -78 157q-56 32 -188 32z" />
    <glyph glyph-name="C" unicode="C" horiz-adv-x="1300" 
d="M1087 373l170 -193q-101 -95 -192 -139q-144 -68 -316 -68q-305 0 -489 205q-101 112 -149 266q-35 117 -35 236q0 203 94 375q94 174 262 262q142 74 322 74q184 0 332 -76q84 -43 184 -140l-183 -185q-155 142 -320 142q-187 0 -302 -135q-105 -123 -105 -311
q0 -139 65 -254q50 -90 148 -146q94 -54 209 -54q184 0 305 141z" />
    <glyph glyph-name="D" unicode="D" horiz-adv-x="1312" 
d="M546 0h-403v1365h387q231 0 370 -70q172 -85 261 -262q75 -147 75 -335q0 -236 -111 -414q-177 -284 -579 -284zM526 1138h-103v-907h54q151 0 238 41q119 57 183 180q54 104 54 237q0 149 -66 262q-62 105 -175 151q-85 36 -185 36z" />
    <glyph glyph-name="E" unicode="E" horiz-adv-x="949" 
d="M855 1136h-479v-336h479v-229h-479v-342h479v-229h-759v1365h759v-229z" />
    <glyph glyph-name="F" unicode="F" horiz-adv-x="957" 
d="M903 1136h-480v-336h480v-229h-480v-571h-280v1365h760v-229z" />
    <glyph glyph-name="G" unicode="G" horiz-adv-x="1541" 
d="M796 537v229h683q1 -25 1 -74q0 -306 -199 -506q-209 -212 -503 -212q-186 0 -345 87q-165 88 -258 245q-99 165 -99 375q0 305 203 511q196 199 496 199q210 0 389 -113q93 -60 165 -149l-212 -166q-56 68 -104 100q-102 69 -232 69q-140 0 -247 -80q-90 -67 -138 -185
q-36 -90 -36 -188q0 -211 148 -343q122 -108 281 -108q124 0 228 70q93 61 135 164q10 26 24 75h-380z" />
    <glyph glyph-name="H" unicode="H" horiz-adv-x="1365" 
d="M942 560h-519v-560h-280v1365h280v-576h519v576h280v-1365h-280v560z" />
    <glyph glyph-name="I" unicode="I" horiz-adv-x="566" 
d="M143 1365h280v-1365h-280v1365z" />
    <glyph glyph-name="J" unicode="J" horiz-adv-x="787" 
d="M63 1365h603v-881q0 -224 -79 -330q-102 -136 -313 -164q-66 -9 -211 -11v249q32 -4 59 -4q124 0 188 52q48 38 65 110q11 53 11 167v583h-323v229z" />
    <glyph glyph-name="K" unicode="K" horiz-adv-x="1153" 
d="M807 0l-384 608v-608h-280v1365h280v-593l388 593h324l-442 -658l442 -707h-328z" />
    <glyph glyph-name="L" unicode="L" horiz-adv-x="924" 
d="M423 1365v-1133h457v-232h-737v1365h280z" />
    <glyph glyph-name="M" unicode="M" horiz-adv-x="1737" 
d="M869 -42l-446 892v-850h-280v1365h317l409 -829l409 829h317v-1365h-280v850z" />
    <glyph glyph-name="N" unicode="N" horiz-adv-x="1414" 
d="M998 0l-575 863v-863h-280v1365h275l573 -852v852h280v-1365h-273z" />
    <glyph glyph-name="O" unicode="O" horiz-adv-x="1564" 
d="M793 1392q176 0 327 -80q189 -101 286 -282q81 -152 81 -354q0 -186 -92 -350q-98 -176 -278 -271q-151 -81 -328 -81q-195 0 -363 96q-180 104 -272 281q-78 148 -78 325q0 313 222 526q199 190 495 190zM785 1133q-195 0 -320 -150q-103 -124 -103 -302
q0 -193 123 -321q123 -127 297 -127q185 0 311 139q60 65 89 163q21 74 21 139q0 218 -135 345q-120 114 -283 114z" />
    <glyph glyph-name="P" unicode="P" horiz-adv-x="1129" 
d="M598 469h-175v-469h-280v1365h436q245 0 376 -116q129 -114 129 -321q0 -165 -83 -281q-126 -178 -403 -178zM423 1133v-433h120q81 0 135 23q122 54 122 192q0 129 -108 188q-58 30 -141 30h-128z" />
    <glyph glyph-name="Q" unicode="Q" horiz-adv-x="1566" 
d="M1332 230l129 -140l-199 -168l-123 148q-164 -97 -359 -97q-189 0 -358 100q-179 105 -269 279q-75 147 -75 322q0 200 98 369q98 171 267 262q158 86 347 86q325 0 528 -233q171 -196 171 -465q0 -267 -157 -463zM850 388l197 166l99 -111q58 112 58 247q0 199 -135 328
q-121 113 -284 113q-118 0 -219 -62q-103 -64 -157 -173q-46 -93 -46 -214q0 -196 123 -323q120 -126 288 -126q100 0 169 45z" />
    <glyph glyph-name="R" unicode="R" horiz-adv-x="1196" 
d="M797 0l-374 543v-543h-280v1365h420q257 0 387 -108q51 -40 81 -98q54 -101 54 -223q0 -195 -124 -310q-77 -71 -200 -102l376 -524h-340zM423 1133v-426h128q109 0 173 46q77 57 77 168q0 93 -56 151q-58 61 -171 61h-151z" />
    <glyph glyph-name="S" unicode="S" horiz-adv-x="1067" 
d="M64 399h273q0 -54 13 -81q23 -45 73 -72q47 -24 101 -24q80 0 135 47q45 41 45 99q0 66 -56 108q-41 30 -166 75q-199 70 -291 151q-115 100 -115 276q0 195 133 307q124 106 319 106q188 0 310 -102q132 -113 150 -315h-284q-13 169 -178 169q-85 0 -129 -47
q-38 -41 -38 -96q0 -84 84 -130q43 -23 160 -66q147 -53 216 -98q177 -114 177 -318q0 -216 -168 -330q-124 -84 -302 -84q-204 0 -325 103q-139 116 -137 322z" />
    <glyph glyph-name="T" unicode="T" horiz-adv-x="943" 
d="M937 1136h-325v-1136h-280v1136h-325v229h930v-229z" />
    <glyph glyph-name="U" unicode="U" horiz-adv-x="1308" 
d="M121 1365h280v-800q0 -176 61 -249q69 -83 192 -83q87 0 155 50q67 50 86 139q11 52 11 144v799h282v-790q0 -204 -59 -328q-68 -143 -206 -213q-119 -60 -266 -60q-175 0 -311 84q-142 88 -192 240q-33 104 -33 277v790z" />
    <glyph glyph-name="V" unicode="V" horiz-adv-x="1150" 
d="M292 1365l276 -915l288 915h291l-432 -1365h-297l-415 1365h289z" />
    <glyph glyph-name="W" unicode="W" horiz-adv-x="1755" 
d="M1019 1365l214 -877l226 877h292l-381 -1365h-281l-217 894l-214 -894h-282l-373 1365h297l220 -862l221 862h278z" />
    <glyph glyph-name="X" unicode="X" horiz-adv-x="1190" 
d="M862 0l-265 474l-264 -474h-325l431 721l-383 644h323l218 -390l227 390h318l-385 -644l424 -721h-319z" />
    <glyph glyph-name="Y" unicode="Y" horiz-adv-x="1141" 
d="M1164 1365l-449 -763v-602h-280v602l-457 763h333l265 -473l260 473h328z" />
    <glyph glyph-name="Z" unicode="Z" horiz-adv-x="1128" 
d="M1103 1365l-636 -1136h575v-229h-1015l637 1136h-565v229h1004z" />
    <glyph glyph-name="bracketleft" unicode="[" horiz-adv-x="669" 
d="M134 -425v1790h439v-153h-219v-1484h219v-153h-439z" />
    <glyph glyph-name="backslash" unicode="\" horiz-adv-x="804" 
d="M731 -425l-679 1790h181l679 -1790h-181z" />
    <glyph glyph-name="bracketright" unicode="]" horiz-adv-x="669" 
d="M95 1365h439v-1790h-439v153h219v1484h-219v153z" />
    <glyph glyph-name="asciicircum" unicode="^" 
d="M511 1181l-223 -455h-252l318 646h315l318 -646h-252z" />
    <glyph glyph-name="underscore" unicode="_" 
d="M0 -291v170h1024v-170h-1024z" />
    <glyph glyph-name="grave" unicode="`" 
d="M201 1376h262l170 -285h-161z" />
    <glyph glyph-name="a" unicode="a" horiz-adv-x="1244" 
d="M854 827v120h261v-947h-261v130q-129 -163 -329 -163q-217 0 -349 161q-109 133 -109 334q0 150 69 278q58 108 165 173q108 66 243 66q111 0 200 -53q54 -32 110 -99zM598 759q-123 0 -192 -95q-61 -85 -61 -198q0 -135 83 -218q71 -71 168 -71q118 0 195 98
q67 85 67 199q0 113 -60 191q-73 94 -200 94z" />
    <glyph glyph-name="b" unicode="b" horiz-adv-x="1240" 
d="M390 122v-122h-261v1365h261v-534q60 70 115 101q85 48 192 48q214 0 354 -155q123 -137 123 -357q0 -243 -147 -380q-128 -121 -317 -121q-113 0 -202 47q-59 31 -118 108zM645 760q-120 0 -197 -104q-61 -82 -61 -190q0 -134 76 -214q71 -75 177 -75q121 0 193 88
q64 79 64 201q0 118 -65 201q-72 93 -187 93z" />
    <glyph glyph-name="c" unicode="c" horiz-adv-x="958" 
d="M776 278l157 -169q-157 -142 -364 -142q-215 0 -364 147q-138 136 -138 354q0 160 80 291q70 113 193 171q106 50 230 50q207 0 379 -157l-173 -159q-86 84 -196 84q-116 0 -188 -87q-62 -76 -62 -184q0 -131 84 -210q71 -68 176 -68q94 0 186 79z" />
    <glyph glyph-name="d" unicode="d" horiz-adv-x="1244" 
d="M854 842v523h261v-1365h-261v124q-55 -76 -113 -108q-88 -49 -205 -49q-220 0 -352 151q-117 134 -117 347q0 244 152 385q139 130 322 130q90 0 175 -35q66 -28 138 -103zM602 761q-134 0 -207 -114q-51 -79 -51 -183q0 -132 78 -211q73 -76 178 -76q118 0 192 96
q62 82 62 193q0 128 -71 211q-71 84 -181 84z" />
    <glyph glyph-name="e" unicode="e" horiz-adv-x="1138" 
d="M1079 412h-741q14 -79 56 -127q74 -86 192 -86q81 0 151 47q41 27 68 76l238 -66q-56 -111 -143 -179q-142 -110 -317 -110q-236 0 -388 161q-128 136 -128 347q0 136 59 252q61 121 177 187q115 66 264 66q252 0 399 -178q114 -138 114 -339q0 -29 -1 -51zM337 561h475
q-14 75 -54 120q-70 79 -188 79q-113 0 -180 -79q-38 -46 -53 -120z" />
    <glyph glyph-name="f" unicode="f" horiz-adv-x="585" 
d="M532 728h-123v-728h-261v728h-105v219h105v52q0 367 345 367q21 0 39 -1v-240q-56 -7 -85 -27q-38 -29 -38 -99v-52h123v-219z" />
    <glyph glyph-name="g" unicode="g" horiz-adv-x="1206" 
d="M821 830v117h256v-878q0 -197 -55 -300q-64 -120 -198 -183q-117 -55 -266 -55q-275 0 -466 188l161 164q121 -132 294 -132q134 0 206 77q68 74 68 204v97q-128 -162 -334 -162q-122 0 -226 64q-223 135 -223 436q0 146 63 272q59 119 168 180q106 61 245 61
q102 0 184 -43q65 -34 123 -107zM569 748q-128 0 -201 -97q-53 -71 -53 -173q0 -134 84 -213q71 -66 171 -66q121 0 196 87q50 58 50 169q0 149 -70 219q-74 74 -177 74z" />
    <glyph glyph-name="h" unicode="h" horiz-adv-x="1084" 
d="M129 1365h261v-519q113 134 257 134q86 0 165 -43q93 -50 124 -135q24 -62 24 -177v-625h-261v588q0 92 -51 139q-34 33 -90 33q-66 0 -116 -47q-33 -32 -44 -70q-8 -34 -8 -79v-564h-261v1365z" />
    <glyph glyph-name="i" unicode="i" horiz-adv-x="519" 
d="M129 947h261v-947h-261v947zM261 1363q65 0 105 -45q38 -43 38 -102q0 -66 -49 -109q-37 -33 -95 -33q-66 0 -107 44q-38 43 -38 100q0 69 49 112q37 33 97 33z" />
    <glyph glyph-name="j" unicode="j" horiz-adv-x="519" 
d="M129 947h261v-979q0 -210 -90 -304q-98 -102 -280 -102q-21 0 -69 3v238q14 -1 39 -1q68 0 102 42q37 44 37 124v979zM261 1363q65 0 105 -45q38 -43 38 -102q0 -66 -49 -109q-37 -33 -95 -33q-66 0 -107 44q-38 44 -38 100q0 69 49 112q37 33 97 33z" />
    <glyph glyph-name="k" unicode="k" horiz-adv-x="970" 
d="M654 0l-264 393v-393h-261v1365h261v-781l265 363h301l-323 -454l323 -493h-302z" />
    <glyph glyph-name="l" unicode="l" horiz-adv-x="519" 
d="M390 1365v-1365h-261v1365h261z" />
    <glyph glyph-name="m" unicode="m" horiz-adv-x="1622" 
d="M129 0v947h261v-120q39 70 87 103q74 50 173 50q95 0 170 -48q56 -37 88 -110q45 76 102 110q78 48 183 48q146 0 229 -89q53 -58 65 -128q11 -61 11 -144v-619h-261v570q0 85 -24 127q-35 63 -119 63q-76 0 -117 -57q-33 -49 -33 -133v-570h-261v563q0 197 -144 197
q-74 0 -114 -55q-35 -47 -35 -142v-563h-261z" />
    <glyph glyph-name="n" unicode="n" horiz-adv-x="1088" 
d="M129 0v947h261v-116q46 73 92 104q67 45 163 45q145 0 234 -88q56 -56 71 -128q14 -70 14 -165v-599h-261v586q0 74 -23 111q-40 63 -124 63q-83 0 -132 -67q-34 -46 -34 -118v-575h-261z" />
    <glyph glyph-name="o" unicode="o" horiz-adv-x="1164" 
d="M585 980q239 0 388 -168q125 -143 125 -347q0 -221 -165 -367q-148 -131 -353 -131q-161 0 -289 80q-120 77 -178 201q-46 99 -46 224q0 245 167 388q140 120 351 120zM584 747q-120 0 -192 -83q-63 -72 -63 -190q0 -129 74 -203q74 -72 179 -72q121 0 196 91
q57 68 57 179q0 136 -73 208q-70 70 -178 70z" />
    <glyph glyph-name="p" unicode="p" horiz-adv-x="1247" 
d="M129 -425v1372h261v-117q50 66 101 97q89 53 211 53q147 0 263 -79q216 -145 216 -431q0 -277 -189 -415q-119 -88 -285 -88q-199 0 -317 136v-528h-261zM650 761q-134 0 -209 -111q-51 -76 -51 -188q0 -132 71 -209q70 -76 181 -76q135 0 209 107q52 76 52 180
q0 135 -72 216t-181 81z" />
    <glyph glyph-name="q" unicode="q" horiz-adv-x="1243" 
d="M853 838v109h261v-1372h-261v528q-53 -60 -107 -88q-93 -48 -215 -48q-218 0 -351 154q-114 131 -114 345q0 225 130 365q137 149 353 149q99 0 177 -36q67 -31 127 -106zM600 760q-138 0 -208 -115q-48 -77 -48 -176q0 -134 79 -217q71 -75 174 -75q125 0 202 104
q56 77 56 185q0 132 -72 212q-73 82 -183 82z" />
    <glyph glyph-name="r" unicode="r" horiz-adv-x="682" 
d="M129 0v947h261v-138q33 90 83 125q62 46 152 46q17 0 32 -1v-266q-35 3 -54 3q-115 0 -175 -86q-27 -41 -33 -85q-5 -42 -5 -88v-457h-261z" />
    <glyph glyph-name="s" unicode="s" horiz-adv-x="859" 
d="M780 674h-246q1 7 1 17q0 30 -20 55q-35 42 -99 42q-48 0 -77 -24q-28 -24 -28 -62q0 -39 27 -60q29 -23 82 -40l78 -24q156 -48 218 -108q79 -76 79 -196q0 -150 -119 -237q-95 -70 -250 -70q-208 0 -309 128q-59 73 -63 183h250q17 -119 124 -119q46 0 73 24
q31 28 31 66q0 47 -49 78q-27 18 -127 48q-151 47 -220 116q-76 75 -76 188q0 154 125 237q98 64 242 64q202 0 300 -131q50 -68 53 -175z" />
    <glyph glyph-name="t" unicode="t" horiz-adv-x="581" 
d="M521 733h-119v-454q0 -36 17 -48q19 -13 57 -13h45v-218h-208q-91 0 -135 45q-37 38 -37 136v552h-108v219h108v254h261v-254h119v-219z" />
    <glyph glyph-name="u" unicode="u" horiz-adv-x="1054" 
d="M681 348v599h261v-599q0 -143 -47 -217q-55 -84 -161 -127q-90 -37 -206 -37q-203 0 -316 103q-101 92 -101 278v599h261v-582q0 -61 29 -111q39 -67 128 -67q81 0 125 60q27 38 27 101z" />
    <glyph glyph-name="v" unicode="v" horiz-adv-x="949" 
d="M477 382l209 565h267l-345 -947h-269l-342 947h270z" />
    <glyph glyph-name="w" unicode="w" horiz-adv-x="1491" 
d="M1037 371l193 576h265l-310 -947h-271l-166 580l-169 -580h-277l-305 947h265l191 -576l164 576h251z" />
    <glyph glyph-name="x" unicode="x" horiz-adv-x="982" 
d="M663 0l-164 258l-174 -258h-307l330 470l-350 477h327l174 -251l169 251h316l-337 -477l332 -470h-316z" />
    <glyph glyph-name="y" unicode="y" horiz-adv-x="960" 
d="M274 947l192 -563l221 563h277l-534 -1380h-280l179 455l-332 925h277z" />
    <glyph glyph-name="z" unicode="z" horiz-adv-x="862" 
d="M836 947l-396 -728h367v-219h-776l398 728h-361v219h768z" />
    <glyph glyph-name="braceleft" unicode="{" 
d="M487 497q73 -45 99 -113q18 -50 18 -134v-223q0 -89 18 -117q20 -28 48 -39q46 -15 133 -15v-244q-64 -2 -119 -2q-144 0 -195 15q-104 30 -142 128q-22 59 -22 157v295q0 99 -31 137q-29 37 -84 50v224q57 13 86 51q29 41 29 122v312q0 144 65 212q44 46 114 62
q49 11 192 11q41 0 107 -2v-258q-103 2 -147 -21q-37 -19 -46 -61q-6 -28 -6 -84v-218q0 -112 -35 -171q-22 -37 -82 -74z" />
    <glyph glyph-name="bar" unicode="|" 
d="M370 -341v1706h284v-1706h-284z" />
    <glyph glyph-name="braceright" unicode="}" 
d="M537 499q-73 45 -99 113q-18 49 -18 134v223q0 83 -13 108q-21 40 -67 52q-44 11 -96 11h-23v244q66 2 119 2q144 0 195 -15q104 -30 142 -128q22 -57 22 -156v-296q0 -99 31 -137q29 -37 84 -50v-224q-57 -13 -86 -51q-29 -40 -29 -122v-312q0 -144 -65 -212
q-44 -46 -114 -62q-49 -11 -191 -11q-46 0 -108 2v258q105 0 148 22q35 18 45 60q6 28 6 84v218q0 112 35 171q21 35 82 74z" />
    <glyph glyph-name="asciitilde" unicode="~" horiz-adv-x="1365" 
d="M329 1140l-139 115q112 271 301 271q69 0 231 -71q87 -39 113 -46q30 -8 49 -8q86 0 156 130l139 -115q-39 -91 -71 -137q-94 -130 -249 -130q-37 0 -84 15q-31 10 -143 60q-105 47 -153 47q-79 0 -150 -131z" />
    <glyph glyph-name="uni00A0" unicode="&#xa0;" horiz-adv-x="614" 
 />
    <glyph glyph-name="exclamdown" unicode="&#xa1;" horiz-adv-x="588" 
d="M422 -416h-256v939h256v-939zM294 975q68 0 111 -46q40 -43 40 -105q0 -72 -52 -117q-40 -34 -100 -34q-68 0 -110 45q-40 43 -40 109q0 69 52 114q38 34 99 34z" />
    <glyph glyph-name="cent" unicode="&#xa2;" 
d="M635 939v-556q81 7 149 68l155 -158q-71 -63 -139 -92q-71 -31 -165 -41v-200h-96v200q-143 21 -236 85q-202 135 -202 411q0 208 108 341q89 111 235 149q39 10 95 17v150h96v-150q91 -9 160 -41q75 -34 157 -111l-168 -150q-32 32 -60 49q-32 18 -89 29zM539 383v556
q-79 -23 -119 -67q-71 -79 -71 -207q0 -227 190 -282z" />
    <glyph glyph-name="sterling" unicode="&#xa3;" 
d="M524 761h278v-125h-212q46 -83 46 -137q0 -80 -98 -201l62 -23q14 -6 58 -27q104 -54 158 -54q60 0 119 65l26 -174q-89 -104 -209 -104q-57 0 -129 33q-38 17 -127 66q-76 43 -123 43q-59 0 -91 -53q-15 -26 -17 -70h-202q8 145 81 233q71 86 190 95l29 48q35 56 35 98
q0 90 -82 162h-236v125h136q-46 58 -63 98q-26 63 -26 135q0 175 125 283q118 102 288 102q123 0 227 -59q137 -80 168 -198q13 -49 14 -118h-234v14q0 68 -51 115q-47 46 -114 46q-68 0 -118 -51q-46 -46 -46 -114q0 -80 66 -168q25 -32 72 -85z" />
    <glyph glyph-name="currency" unicode="&#xa4;" horiz-adv-x="1452" 
d="M243 76l-146 145l202 203q-81 129 -81 273q0 122 86 274l-208 206l147 147l210 -209q64 35 98 48q81 34 175 34q101 0 197 -44q18 -7 72 -37l209 206l145 -145l-203 -203q88 -142 88 -280q0 -98 -42 -192q-16 -33 -39 -77l203 -203l-145 -147l-203 202q-133 -88 -270 -88
q-138 0 -293 88zM730 959q-110 0 -187 -77t-77 -186t76 -185q77 -77 185 -77t185 77q76 76 76 185q0 111 -77 186q-79 77 -181 77z" />
    <glyph glyph-name="yen" unicode="&#xa5;" 
d="M60 907h176l-217 452h278l221 -519l219 519h268l-213 -452h172v-135h-235l-81 -174v-15h275v-135h-275v-448h-264v448h-283v135h283v15l-83 174h-241v135z" />
    <glyph glyph-name="brokenbar" unicode="&#xa6;" 
d="M370 651v714h284v-714h-284zM370 -341v655h284v-655h-284z" />
    <glyph glyph-name="section" unicode="&#xa7;" 
d="M894 1059h-224q-4 55 -30 90q-44 59 -124 59q-64 0 -105 -39q-40 -37 -40 -91q0 -59 50 -101q35 -27 76 -45l104 -42q172 -64 246 -140q92 -94 92 -233q0 -221 -221 -326q164 -95 164 -263q0 -139 -97 -235q-107 -106 -286 -106q-226 0 -332 160q-55 83 -60 207h227
q2 -70 33 -114q49 -69 138 -69q71 0 114 48q39 43 39 104q0 73 -63 117q-42 30 -171 72q-172 55 -248 136q-90 94 -90 244q0 158 99 254q53 51 136 75q-173 81 -173 263q0 128 93 217q98 92 266 92q158 0 264 -76q115 -83 123 -258zM513 695q-89 0 -150 -60
q-57 -55 -57 -135q0 -84 60 -141q58 -54 145 -54q85 0 144 54q60 57 60 142q0 80 -57 134q-64 60 -145 60z" />
    <glyph glyph-name="dieresis" unicode="&#xa8;" 
d="M294 1378q60 0 101 -45q35 -38 35 -95q0 -61 -46 -101q-38 -34 -91 -34q-63 0 -103 45q-35 38 -35 92q0 64 46 104q37 34 93 34zM731 1378q61 0 101 -45q35 -38 35 -95q0 -61 -46 -101q-38 -34 -91 -34q-62 0 -103 45q-35 38 -35 92q0 64 46 104q37 34 93 34z" />
    <glyph glyph-name="copyright" unicode="&#xa9;" horiz-adv-x="1580" 
d="M1029 606h132q-11 -126 -84 -213q-102 -120 -283 -120q-190 0 -299 135q-90 111 -90 279q0 177 107 295q110 119 288 119q167 0 269 -109q75 -81 82 -182h-130q-13 53 -53 88q-64 57 -167 57q-115 0 -177 -90q-49 -71 -49 -179q0 -107 47 -177q62 -90 178 -90
q114 0 178 70q40 45 51 117zM801 1392q191 0 360 -105q170 -105 260 -282q77 -154 77 -323q0 -198 -104 -370q-103 -169 -280 -261q-152 -78 -322 -78q-198 0 -368 104q-172 104 -263 282q-78 153 -78 322q0 201 105 374q102 168 284 260q152 77 329 77zM799 1269
q-243 0 -413 -170q-170 -172 -170 -418q0 -241 170 -414q170 -171 405 -171q238 0 406 172t168 414q0 166 -84 308q-83 139 -228 215q-121 64 -254 64z" />
    <glyph glyph-name="ordfeminine" unicode="&#xaa;" horiz-adv-x="807" 
d="M539 1062v57h178v-573h-178v62q-75 -81 -197 -81q-137 0 -221 97q-71 83 -71 202q0 148 101 238q83 74 203 74q112 0 185 -76zM388 995q-72 0 -113 -54q-36 -48 -36 -113q0 -78 48 -124q41 -40 99 -40q70 0 115 56q40 49 40 113t-35 108q-44 54 -118 54z" />
    <glyph glyph-name="guillemotleft" unicode="&#xab;" horiz-adv-x="866" 
d="M439 833l-197 -345l197 -334h-169l-195 334l195 345h169zM777 833l-197 -345l197 -334h-169l-195 334l195 345h169z" />
    <glyph glyph-name="logicalnot" unicode="&#xac;" 
d="M955 0h-275v343h-612v248h887v-591z" />
    <glyph glyph-name="uni00AD" unicode="&#xad;" horiz-adv-x="454" 
d="M0 614h454v-230h-454v230z" />
    <glyph glyph-name="registered" unicode="&#xae;" horiz-adv-x="1580" 
d="M491 290v793h335q119 0 183 -37q104 -60 104 -184q0 -134 -135 -193q61 -22 89 -67q21 -34 28 -92l6 -97q5 -85 21 -123h-162q-14 27 -21 156q-7 110 -50 142q-40 31 -117 31h-113v-329h-168zM798 978h-139v-260h126q161 0 161 131q0 129 -148 129zM801 1392
q191 0 360 -105q170 -105 260 -282q77 -154 77 -323q0 -200 -104 -370q-103 -169 -281 -261q-151 -78 -322 -78q-198 0 -368 104q-171 104 -262 282q-78 153 -78 322q0 201 105 374q102 168 284 260q151 77 329 77zM799 1269q-243 0 -413 -170q-170 -172 -170 -418
q0 -241 170 -414q170 -171 405 -171q238 0 406 172t168 414q0 166 -84 308q-82 138 -229 215q-121 64 -253 64z" />
    <glyph glyph-name="macron" unicode="&#xaf;" 
d="M698 1176h-372v114h372v-114z" />
    <glyph glyph-name="degree" unicode="&#xb0;" 
d="M513 1372q134 0 228 -100q86 -91 86 -220q0 -130 -94 -223q-91 -90 -220 -90q-140 0 -235 104q-82 88 -82 212q0 98 54 179q46 70 129 108q66 30 134 30zM509 1261q-76 0 -133 -54q-66 -63 -66 -152q0 -76 49 -134q60 -71 152 -71q79 0 139 57q63 61 63 144q0 87 -57 146
q-61 64 -147 64z" />
    <glyph glyph-name="plusminus" unicode="&#xb1;" 
d="M25 672v135h415v406h140v-406h418v-135h-418v-393h-140v393h-415zM25 59v135h973v-135h-973z" />
    <glyph glyph-name="twosuperior" unicode="&#xb2;" horiz-adv-x="677" 
d="M497 903l-151 -209h235v-151h-542l307 440q49 71 62 97q15 32 15 57q0 37 -26 60q-28 23 -68 23q-68 0 -90 -52q-9 -23 -11 -82h-166q0 70 13 109q25 84 93 132q70 48 172 48q129 0 206 -78q58 -58 58 -144q0 -61 -26 -118q-30 -61 -81 -132z" />
    <glyph glyph-name="threesuperior" unicode="&#xb3;" horiz-adv-x="677" 
d="M133 972l190 240h-238v147h543l-238 -302q75 -7 133 -53q90 -71 90 -196q0 -129 -94 -211q-79 -70 -199 -70q-157 0 -233 109q-34 48 -46 139l162 6q7 -41 27 -63q33 -37 85 -37q57 0 94 39q31 31 31 77q0 49 -32 81q-34 36 -93 36q-44 0 -79 -23z" />
    <glyph glyph-name="acute" unicode="&#xb4;" 
d="M392 1091l170 285h262l-272 -285h-160z" />
    <glyph glyph-name="mu" unicode="&#xb5;" 
d="M311 -347h-240v1330h240v-522q0 -78 8 -118q16 -75 79 -124q49 -39 112 -39q117 0 166 109q38 84 38 182v512h240v-983h-240v147q-64 -168 -208 -168q-83 0 -139 52q-25 22 -56 76v-454z" />
    <glyph glyph-name="paragraph" unicode="&#xb6;" 
d="M588 -215h-136v846h-31q-116 0 -201 55q-72 45 -114 125q-45 84 -45 183q0 131 73 229q103 142 344 142h410v-1580h-135v1491h-165v-1491z" />
    <glyph glyph-name="periodcentered" unicode="&#xb7;" horiz-adv-x="534" 
d="M268 656q67 0 110 -46q40 -43 40 -108q0 -69 -52 -114q-40 -34 -99 -34q-69 0 -111 46q-40 43 -40 105q0 72 52 117q38 34 100 34z" />
    <glyph glyph-name="cedilla" unicode="&#xb8;" 
d="M430 -425l-105 93q77 41 125 98q36 44 70 114l179 -76q-52 -80 -109 -128q-62 -53 -160 -101z" />
    <glyph glyph-name="onesuperior" unicode="&#xb9;" horiz-adv-x="677" 
d="M311 544v594l-155 -77v159l335 164v-840h-180z" />
    <glyph glyph-name="ordmasculine" unicode="&#xba;" horiz-adv-x="757" 
d="M381 1138q151 0 246 -101q80 -86 80 -210q0 -135 -106 -223q-91 -78 -224 -78q-165 0 -260 113q-66 79 -66 192q0 149 107 236q89 71 223 71zM380 987q-71 0 -113 -47q-37 -40 -37 -108q0 -74 43 -114q44 -41 106 -41q71 0 115 51q33 38 33 102q0 78 -42 118
q-41 39 -105 39z" />
    <glyph glyph-name="guillemotright" unicode="&#xbb;" horiz-adv-x="866" 
d="M426 157l197 345l-197 335h169l195 -335l-195 -345h-169zM88 157l197 345l-197 335h169l195 -335l-195 -345h-169z" />
    <glyph glyph-name="onequarter" unicode="&#xbc;" horiz-adv-x="1613" 
d="M311 544v594l-155 -77v159l335 164v-840h-180zM1215 1386l83 -52l-901 -1361l-82 53zM1306 0v165h-315v138l307 513h181v-504h78v-147h-78v-165h-173zM1141 307h173v301z" />
    <glyph glyph-name="onehalf" unicode="&#xbd;" horiz-adv-x="1613" 
d="M311 544v594l-155 -77v159l335 164v-840h-180zM1215 1386l83 -52l-901 -1361l-82 53zM1433 360l-151 -209h235v-151h-542l307 440q44 63 60 93q17 34 17 61q0 37 -26 60t-68 23q-68 0 -90 -52q-9 -23 -11 -82h-166v17q2 81 32 138q71 134 245 134q131 0 208 -78
q57 -58 57 -144q0 -61 -26 -118q-30 -62 -81 -132z" />
    <glyph glyph-name="threequarters" unicode="&#xbe;" horiz-adv-x="1613" 
d="M133 972l190 240h-238v147h543l-238 -302q75 -7 133 -53q90 -71 90 -196q0 -129 -94 -211q-79 -70 -199 -70q-157 0 -233 109q-34 48 -46 139l162 6q7 -41 27 -63q33 -37 85 -37q57 0 94 39q31 31 31 77q0 49 -32 81q-34 36 -93 36q-44 0 -79 -23zM1215 1386l82 -52
l-901 -1361l-81 53zM1305 0v165h-315v138l306 513h182v-504h79v-147h-79v-165h-173zM1140 307h173v301z" />
    <glyph glyph-name="questiondown" unicode="&#xbf;" horiz-adv-x="915" 
d="M374 426v78h262q1 -33 1 -74q0 -112 -29 -172q-22 -43 -62 -83q-27 -26 -95 -79q-64 -49 -85 -82q-25 -37 -25 -83q0 -59 37 -96q37 -40 101 -40q80 0 119 62q22 34 22 94h243q-1 -114 -41 -193q-46 -94 -129 -142q-95 -56 -219 -56q-123 0 -227 59q-97 56 -140 154
q-31 69 -31 155q0 126 69 214q41 54 113 107q73 55 89 78q25 37 27 99zM503 975q68 0 111 -46q40 -43 40 -105q0 -72 -52 -117q-40 -34 -100 -34q-68 0 -110 46q-40 43 -40 108q0 69 52 114q38 34 99 34z" />
    <glyph glyph-name="Agrave" unicode="&#xc0;" horiz-adv-x="1295" 
d="M983 0l-76 236h-526l-81 -236h-297l472 1365h350l466 -1365h-308zM453 466h380l-189 565zM321 1760h269l192 -272h-178z" />
    <glyph glyph-name="Aacute" unicode="&#xc1;" horiz-adv-x="1295" 
d="M983 0l-76 236h-526l-81 -236h-297l472 1365h350l466 -1365h-308zM453 466h380l-189 565zM512 1488l193 272h269l-284 -272h-178z" />
    <glyph glyph-name="Acircumflex" unicode="&#xc2;" horiz-adv-x="1295" 
d="M983 0l-76 236h-526l-81 -236h-297l472 1365h350l466 -1365h-308zM453 466h380l-189 565zM808 1488l-159 139l-162 -139h-182l231 273h237l217 -273h-182z" />
    <glyph glyph-name="Atilde" unicode="&#xc3;" horiz-adv-x="1295" 
d="M983 0l-76 236h-526l-81 -236h-297l472 1365h350l466 -1365h-308zM453 466h380l-189 565zM846 1745l171 -14q-61 -231 -218 -231q-45 0 -150 39q-84 32 -108 32q-53 0 -65 -72l-171 11q17 81 39 118q37 64 96 94q40 21 80 21t172 -50q59 -24 77 -24q52 0 77 76z" />
    <glyph glyph-name="Adieresis" unicode="&#xc4;" horiz-adv-x="1295" 
d="M983 0l-76 236h-526l-81 -236h-297l472 1365h350l466 -1365h-308zM453 466h380l-189 565zM428 1781q62 0 102 -45q38 -41 38 -98q0 -62 -49 -105q-37 -34 -92 -34q-63 0 -103 45q-38 41 -38 96q0 64 49 107q37 34 93 34zM864 1781q62 0 102 -45q38 -41 38 -98
q0 -62 -49 -105q-37 -34 -92 -34q-63 0 -103 45q-38 41 -38 96q0 64 49 107q37 34 93 34z" />
    <glyph glyph-name="Aring" unicode="&#xc5;" horiz-adv-x="1295" 
d="M983 0l-76 236h-526l-81 -236h-297l472 1365h350l466 -1365h-308zM453 466h380l-189 565zM649 1821q81 0 139 -60q49 -50 49 -129q0 -83 -64 -137q-55 -46 -126 -46q-84 0 -141 60q-49 50 -49 126q0 85 64 140q53 46 128 46zM648 1727q-44 0 -73 -33q-22 -25 -22 -59
q0 -39 30 -67q25 -25 64 -25q45 0 72 32q22 26 22 58q0 41 -30 69q-25 25 -63 25z" />
    <glyph glyph-name="AE" unicode="&#xc6;" horiz-adv-x="1742" 
d="M1649 571h-468v-342h468v-229h-748v274h-468l-146 -274h-299l741 1365h920v-229h-468v-336h468v-229zM549 494h352v658z" />
    <glyph glyph-name="Ccedilla" unicode="&#xc7;" horiz-adv-x="1300" 
d="M1087 373l170 -193q-101 -95 -192 -139q-144 -68 -316 -68q-305 0 -489 205q-101 112 -149 266q-35 117 -35 236q0 203 94 375q95 174 262 262q142 74 323 74q183 0 331 -76q84 -43 184 -140l-183 -185q-155 142 -320 142q-187 0 -303 -135q-104 -124 -104 -311
q0 -139 65 -254q50 -90 148 -146q94 -54 209 -54q184 0 305 141zM573 -434l-125 95q104 52 153 113q32 43 49 103l247 -71q-47 -73 -113 -127q-76 -62 -211 -113z" />
    <glyph glyph-name="Egrave" unicode="&#xc8;" horiz-adv-x="949" 
d="M855 1136h-479v-336h479v-229h-479v-342h479v-229h-759v1365h759v-229zM148 1760h269l193 -272h-179z" />
    <glyph glyph-name="Eacute" unicode="&#xc9;" horiz-adv-x="949" 
d="M855 1136h-479v-336h479v-229h-479v-342h479v-229h-759v1365h759v-229zM339 1488l193 272h269l-284 -272h-178z" />
    <glyph glyph-name="Ecircumflex" unicode="&#xca;" horiz-adv-x="949" 
d="M855 1136h-479v-336h479v-229h-479v-342h479v-229h-759v1365h759v-229zM635 1488l-158 139l-163 -139h-182l231 273h237l217 -273h-182z" />
    <glyph glyph-name="Edieresis" unicode="&#xcb;" horiz-adv-x="949" 
d="M855 1136h-479v-336h479v-229h-479v-342h479v-229h-759v1365h759v-229zM255 1781q61 0 102 -45q38 -41 38 -98q0 -62 -49 -105q-37 -34 -92 -34q-62 0 -103 45q-38 41 -38 96q0 64 49 107q37 34 93 34zM691 1781q61 0 102 -45q38 -41 38 -98q0 -62 -49 -105
q-37 -34 -92 -34q-62 0 -103 45q-38 41 -38 96q0 64 49 107q37 34 93 34z" />
    <glyph glyph-name="Igrave" unicode="&#xcc;" horiz-adv-x="566" 
d="M143 1365h280v-1365h-280v1365zM-43 1760h269l193 -272h-179z" />
    <glyph glyph-name="Iacute" unicode="&#xcd;" horiz-adv-x="566" 
d="M143 1365h280v-1365h-280v1365zM148 1488l193 272h269l-284 -272h-178z" />
    <glyph glyph-name="Icircumflex" unicode="&#xce;" horiz-adv-x="566" 
d="M143 1365h280v-1365h-280v1365zM444 1488l-158 139l-163 -139h-182l231 273h237l217 -273h-182z" />
    <glyph glyph-name="Idieresis" unicode="&#xcf;" horiz-adv-x="566" 
d="M143 1365h280v-1365h-280v1365zM101 1781q61 0 102 -45q38 -41 38 -98q0 -62 -49 -105q-37 -34 -92 -34q-63 0 -103 45q-38 41 -38 96q0 64 49 107q37 34 93 34zM462 1781q62 0 102 -45q38 -41 38 -98q0 -62 -49 -105q-37 -34 -92 -34q-63 0 -103 45q-38 41 -38 96
q0 64 49 107q37 34 93 34z" />
    <glyph glyph-name="Eth" unicode="&#xd0;" horiz-adv-x="1312" 
d="M10 801h133v564h388q230 0 369 -70q174 -88 262 -262q74 -146 74 -335q0 -236 -111 -414q-177 -284 -579 -284h-403v582h-133v219zM423 1138v-337h242v-219h-242v-350h54q154 0 238 40q119 57 183 180q54 104 54 238q0 148 -66 261q-62 105 -175 151q-85 36 -185 36h-103
z" />
    <glyph glyph-name="Ntilde" unicode="&#xd1;" horiz-adv-x="1414" 
d="M998 0l-575 863v-863h-280v1365h275l573 -852v852h280v-1365h-273zM906 1745l171 -14q-61 -231 -219 -231q-46 0 -149 39q-85 32 -108 32q-53 0 -65 -72l-171 11q17 81 39 118q38 65 95 94q41 21 81 21t172 -50q59 -24 77 -24q52 0 77 76z" />
    <glyph glyph-name="Ograve" unicode="&#xd2;" horiz-adv-x="1564" 
d="M793 1392q176 0 327 -80q189 -101 286 -282q81 -152 81 -354q0 -186 -92 -350q-98 -176 -278 -271q-151 -81 -328 -81q-195 0 -363 96q-180 104 -272 281q-78 148 -78 325q0 313 222 526q199 190 495 190zM785 1133q-195 0 -320 -150q-103 -124 -103 -302
q0 -193 123 -321q123 -127 297 -127q185 0 311 139q60 65 89 163q21 74 21 139q0 218 -135 345q-120 114 -283 114zM455 1760h269l193 -272h-178z" />
    <glyph glyph-name="Oacute" unicode="&#xd3;" horiz-adv-x="1564" 
d="M793 1392q176 0 327 -80q189 -101 286 -282q81 -152 81 -354q0 -186 -92 -350q-98 -176 -278 -271q-151 -81 -328 -81q-195 0 -363 96q-180 104 -272 281q-78 148 -78 325q0 313 222 526q199 190 495 190zM785 1133q-195 0 -320 -150q-103 -124 -103 -302
q0 -193 123 -321q123 -127 297 -127q185 0 311 139q60 65 89 163q21 74 21 139q0 218 -135 345q-120 114 -283 114zM647 1488l192 272h269l-283 -272h-178z" />
    <glyph glyph-name="Ocircumflex" unicode="&#xd4;" horiz-adv-x="1564" 
d="M793 1392q176 0 327 -80q189 -101 286 -282q81 -152 81 -354q0 -186 -92 -350q-98 -176 -278 -271q-151 -81 -328 -81q-195 0 -363 96q-180 104 -272 281q-78 148 -78 325q0 313 222 526q199 190 495 190zM785 1133q-195 0 -320 -150q-103 -124 -103 -302
q0 -193 123 -321q123 -127 297 -127q185 0 311 139q60 65 89 163q21 74 21 139q0 218 -135 345q-120 114 -283 114zM942 1488l-158 139l-162 -139h-183l232 273h236l217 -273h-182z" />
    <glyph glyph-name="Otilde" unicode="&#xd5;" horiz-adv-x="1564" 
d="M793 1392q176 0 327 -80q189 -101 286 -282q81 -152 81 -354q0 -186 -92 -350q-98 -176 -278 -271q-151 -81 -328 -81q-195 0 -363 96q-180 104 -272 281q-78 148 -78 325q0 313 222 526q199 190 495 190zM785 1133q-195 0 -320 -150q-103 -124 -103 -302
q0 -193 123 -321q123 -127 297 -127q185 0 311 139q60 65 89 163q21 74 21 139q0 218 -135 345q-120 114 -283 114zM981 1745l170 -14q-61 -231 -218 -231q-45 0 -149 39q-85 32 -109 32q-51 0 -65 -72l-171 11q19 82 40 118q35 63 95 94q40 21 81 21q39 0 171 -50
q60 -24 78 -24q52 0 77 76z" />
    <glyph glyph-name="Odieresis" unicode="&#xd6;" horiz-adv-x="1564" 
d="M793 1392q176 0 327 -80q189 -101 286 -282q81 -152 81 -354q0 -186 -92 -350q-98 -176 -278 -271q-151 -81 -328 -81q-195 0 -363 96q-180 104 -272 281q-78 148 -78 325q0 313 222 526q199 190 495 190zM785 1133q-195 0 -320 -150q-103 -124 -103 -302
q0 -193 123 -321q123 -127 297 -127q185 0 311 139q60 65 89 163q21 74 21 139q0 218 -135 345q-120 114 -283 114zM563 1781q61 0 102 -45q38 -41 38 -98q0 -62 -49 -105q-37 -34 -92 -34q-62 0 -103 45q-38 41 -38 96q0 64 49 107q37 34 93 34zM998 1781q62 0 102 -45
q38 -41 38 -98q0 -62 -49 -105q-37 -34 -92 -34q-62 0 -103 45q-38 41 -38 96q0 64 49 107q37 34 93 34z" />
    <glyph glyph-name="multiply" unicode="&#xd7;" 
d="M108 1037l95 95l308 -309l310 313l99 -99l-312 -311l310 -309l-95 -95l-309 310l-311 -313l-99 99l313 311z" />
    <glyph glyph-name="Oslash" unicode="&#xd8;" horiz-adv-x="1560" 
d="M304 154l-146 -141l-69 75l144 139q-76 99 -108 176q-50 123 -50 267q0 345 237 551q197 170 463 170q160 0 314 -71q88 -42 162 -110l148 144l69 -78l-143 -139q80 -112 112 -200q47 -126 47 -255q0 -214 -117 -391q-107 -165 -286 -248q-145 -69 -317 -69
q-260 0 -460 180zM1121 946l-621 -609q119 -104 271 -104q180 0 309 132q120 123 120 319q0 146 -79 262zM434 417l617 607q-120 108 -268 108q-114 0 -214 -59q-106 -65 -161 -176q-48 -97 -48 -216q0 -154 74 -264z" />
    <glyph glyph-name="Ugrave" unicode="&#xd9;" horiz-adv-x="1308" 
d="M121 1365h280v-800q0 -176 61 -249q69 -83 192 -83q87 0 155 50q67 50 86 139q11 52 11 144v799h282v-790q0 -204 -59 -328q-68 -143 -206 -213q-119 -60 -266 -60q-175 0 -311 84q-142 88 -192 240q-33 104 -33 277v790zM328 1760h269l193 -272h-179z" />
    <glyph glyph-name="Uacute" unicode="&#xda;" horiz-adv-x="1308" 
d="M121 1365h280v-800q0 -176 61 -249q69 -83 192 -83q87 0 155 50q67 50 86 139q11 52 11 144v799h282v-790q0 -204 -59 -328q-68 -143 -206 -213q-119 -60 -266 -60q-175 0 -311 84q-142 88 -192 240q-33 104 -33 277v790zM519 1488l193 272h269l-284 -272h-178z" />
    <glyph glyph-name="Ucircumflex" unicode="&#xdb;" horiz-adv-x="1308" 
d="M121 1365h280v-800q0 -176 61 -249q69 -83 192 -83q87 0 155 50q67 50 86 139q11 52 11 144v799h282v-790q0 -204 -59 -328q-68 -143 -206 -213q-119 -60 -266 -60q-175 0 -311 84q-142 88 -192 240q-33 104 -33 277v790zM815 1488l-158 139l-163 -139h-182l231 273h237
l217 -273h-182z" />
    <glyph glyph-name="Udieresis" unicode="&#xdc;" horiz-adv-x="1308" 
d="M121 1365h280v-800q0 -176 61 -249q69 -83 192 -83q87 0 155 50q67 50 86 139q11 52 11 144v799h282v-790q0 -204 -59 -328q-68 -143 -206 -213q-119 -60 -266 -60q-175 0 -311 84q-142 88 -192 240q-33 104 -33 277v790zM435 1781q61 0 102 -45q38 -41 38 -98
q0 -62 -49 -105q-37 -34 -92 -34q-62 0 -103 45q-38 41 -38 96q0 64 49 107q37 34 93 34zM871 1781q61 0 102 -45q38 -41 38 -98q0 -63 -49 -105q-37 -34 -92 -34q-62 0 -103 45q-38 41 -38 96q0 64 49 107q37 34 93 34z" />
    <glyph glyph-name="Yacute" unicode="&#xdd;" horiz-adv-x="1141" 
d="M1164 1365l-449 -763v-602h-280v602l-457 763h333l265 -473l260 473h328zM436 1488l192 272h269l-283 -272h-178z" />
    <glyph glyph-name="Thorn" unicode="&#xde;" horiz-adv-x="1136" 
d="M595 321h-175v-321h-280v1365h280v-148h156q245 0 376 -116q129 -114 129 -321q0 -165 -83 -281q-126 -178 -403 -178zM420 985v-433h120q81 0 135 23q122 54 122 192q0 129 -108 188q-59 30 -141 30h-128z" />
    <glyph glyph-name="germandbls" unicode="&#xdf;" horiz-adv-x="1089" 
d="M147 0v728h-93v219h93v105q0 157 118 250q103 81 270 81q162 0 272 -74q63 -42 99 -115q31 -63 31 -135q0 -95 -50 -169q-37 -55 -122 -93q99 -29 164 -104q94 -107 94 -272q0 -187 -96 -314q-95 -125 -277 -125q-90 0 -170 37l44 214q39 -11 67 -11q64 0 108 35
q69 57 69 173q0 120 -83 176q-46 31 -143 39v238q61 6 89 26q51 37 51 110q0 51 -33 90q-39 46 -104 46q-77 0 -114 -58q-23 -35 -23 -120v-977h-261z" />
    <glyph glyph-name="agrave" unicode="&#xe0;" horiz-adv-x="1244" 
d="M854 827v120h261v-947h-261v130q-129 -163 -329 -163q-217 0 -349 161q-109 133 -109 334q0 150 69 278q58 108 165 173q108 66 243 66q111 0 200 -53q54 -32 110 -99zM598 759q-123 0 -192 -95q-61 -85 -61 -198q0 -135 83 -218q71 -71 168 -71q118 0 195 98
q67 85 67 199q0 113 -60 191q-73 94 -200 94zM311 1376h262l170 -285h-161z" />
    <glyph glyph-name="aacute" unicode="&#xe1;" horiz-adv-x="1244" 
d="M854 827v120h261v-947h-261v130q-129 -163 -329 -163q-217 0 -349 161q-109 133 -109 334q0 150 69 278q58 108 165 173q108 66 243 66q111 0 200 -53q54 -32 110 -99zM598 759q-123 0 -192 -95q-61 -85 -61 -198q0 -135 83 -218q71 -71 168 -71q118 0 195 98
q67 85 67 199q0 113 -60 191q-73 94 -200 94zM502 1091l170 285h262l-272 -285h-160z" />
    <glyph glyph-name="acircumflex" unicode="&#xe2;" horiz-adv-x="1244" 
d="M854 827v120h261v-947h-261v130q-129 -163 -329 -163q-217 0 -349 161q-109 133 -109 334q0 150 69 278q58 108 165 173q108 66 243 66q111 0 200 -53q54 -32 110 -99zM598 759q-123 0 -192 -95q-61 -85 -61 -198q0 -135 83 -218q71 -71 168 -71q118 0 195 98
q67 85 67 199q0 113 -60 191q-73 94 -200 94zM763 1091l-139 151l-143 -151h-182l209 285h241l197 -285h-183z" />
    <glyph glyph-name="atilde" unicode="&#xe3;" horiz-adv-x="1244" 
d="M854 827v120h261v-947h-261v130q-129 -163 -329 -163q-217 0 -349 161q-109 133 -109 334q0 150 69 278q58 108 165 173q108 66 243 66q111 0 200 -53q54 -32 110 -99zM598 759q-123 0 -192 -95q-61 -85 -61 -198q0 -135 83 -218q71 -71 168 -71q118 0 195 98
q67 85 67 199q0 113 -60 191q-73 94 -200 94zM805 1346l167 -12q-56 -230 -212 -230q-58 0 -184 60q-31 16 -47 16q-41 0 -61 -72l-168 14q52 226 214 226q61 0 185 -59q30 -14 47 -14q45 0 59 71z" />
    <glyph glyph-name="adieresis" unicode="&#xe4;" horiz-adv-x="1244" 
d="M854 827v120h261v-947h-261v130q-129 -163 -329 -163q-217 0 -349 161q-109 133 -109 334q0 150 69 278q58 108 165 173q108 66 243 66q111 0 200 -53q54 -32 110 -99zM598 759q-123 0 -192 -95q-61 -85 -61 -198q0 -135 83 -218q71 -71 168 -71q118 0 195 98
q67 85 67 199t-60 191q-73 94 -200 94zM438 1378q60 0 101 -45q35 -38 35 -95q0 -61 -46 -101q-38 -34 -91 -34q-63 0 -103 45q-35 38 -35 92q0 64 46 104q37 34 93 34zM874 1378q61 0 101 -45q35 -38 35 -95q0 -61 -46 -101q-38 -34 -92 -34q-62 0 -102 45q-35 38 -35 92
q0 64 46 104q37 34 93 34z" />
    <glyph glyph-name="aring" unicode="&#xe5;" horiz-adv-x="1244" 
d="M854 827v120h261v-947h-261v130q-129 -163 -329 -163q-217 0 -349 161q-109 133 -109 334q0 150 69 278q58 108 165 173q108 66 243 66q111 0 200 -53q54 -32 110 -99zM598 759q-123 0 -192 -95q-61 -85 -61 -198q0 -135 83 -218q71 -71 168 -71q118 0 195 98
q67 85 67 199t-60 191q-73 94 -200 94zM610 1426q82 0 140 -60q49 -50 49 -129q0 -83 -64 -137q-55 -46 -126 -46q-84 0 -141 60q-49 50 -49 126q0 85 64 140q53 46 127 46zM610 1332q-44 0 -73 -32q-22 -26 -22 -60q0 -38 30 -67q25 -25 64 -25q45 0 72 32q22 26 22 59
q0 39 -30 68q-25 25 -63 25z" />
    <glyph glyph-name="ae" unicode="&#xe6;" horiz-adv-x="1936" 
d="M1607 324l236 -73q-59 -111 -132 -172q-133 -112 -297 -112q-102 0 -178 40q-53 27 -110 104v-111h-250v116q-56 -68 -118 -100q-94 -49 -211 -49q-237 0 -370 160q-110 134 -110 337q0 144 60 265q53 107 155 175q113 76 254 76q206 0 340 -143v110h250v-110
q56 72 107 100q77 42 178 42q215 0 350 -166q117 -145 117 -342q0 -12 -2 -62h-750q15 -75 57 -122q78 -88 202 -88q87 0 151 48q33 24 71 77zM1126 558h484q-16 76 -51 120q-67 82 -185 82t-188 -79q-34 -41 -60 -123zM609 760q-137 0 -212 -111q-53 -80 -53 -179
q0 -138 93 -223q76 -70 176 -70q124 0 202 102q56 74 56 182q0 139 -78 221q-73 78 -184 78z" />
    <glyph glyph-name="ccedilla" unicode="&#xe7;" horiz-adv-x="958" 
d="M776 278l157 -169q-157 -142 -364 -142q-215 0 -364 147q-138 136 -138 354q0 160 80 291q70 113 193 171q106 50 230 50q207 0 379 -157l-173 -159q-86 84 -196 84q-116 0 -188 -87q-62 -76 -62 -184q0 -129 84 -210q71 -68 176 -68q94 0 186 79zM426 -425l-105 93
q78 42 125 98q36 44 70 114l179 -76q-52 -80 -109 -128q-62 -53 -160 -101z" />
    <glyph glyph-name="egrave" unicode="&#xe8;" horiz-adv-x="1138" 
d="M1079 412h-741q14 -79 56 -127q74 -86 192 -86q81 0 151 47q41 27 68 76l238 -66q-56 -111 -143 -179q-142 -110 -317 -110q-236 0 -388 161q-128 136 -128 347q0 136 59 252q61 121 177 187q115 66 264 66q252 0 399 -178q114 -138 114 -339q0 -29 -1 -51zM337 561h475
q-14 75 -54 120q-70 79 -188 79q-113 0 -180 -79q-38 -46 -53 -120zM258 1376h262l170 -285h-161z" />
    <glyph glyph-name="eacute" unicode="&#xe9;" horiz-adv-x="1138" 
d="M1079 412h-741q14 -79 56 -127q74 -86 192 -86q81 0 151 47q41 27 68 76l238 -66q-56 -111 -143 -179q-142 -110 -317 -110q-236 0 -388 161q-128 136 -128 347q0 136 59 252q61 121 177 187q115 66 264 66q252 0 399 -178q114 -138 114 -339q0 -29 -1 -51zM337 561h475
q-14 75 -54 120q-70 79 -188 79q-113 0 -180 -79q-38 -46 -53 -120zM449 1091l170 285h262l-271 -285h-161z" />
    <glyph glyph-name="ecircumflex" unicode="&#xea;" horiz-adv-x="1138" 
d="M1079 412h-741q14 -79 56 -127q74 -86 192 -86q81 0 151 47q41 27 68 76l238 -66q-56 -111 -143 -179q-142 -110 -317 -110q-236 0 -388 161q-128 136 -128 347q0 136 59 252q61 121 177 187q115 66 264 66q252 0 399 -178q114 -138 114 -339q0 -29 -1 -51zM337 561h475
q-14 75 -54 120q-70 79 -188 79q-113 0 -180 -79q-38 -46 -53 -120zM711 1091l-140 151l-143 -151h-182l209 285h241l197 -285h-182z" />
    <glyph glyph-name="edieresis" unicode="&#xeb;" horiz-adv-x="1138" 
d="M1079 412h-741q14 -79 56 -127q74 -86 192 -86q81 0 151 47q41 27 68 76l238 -66q-56 -111 -143 -179q-142 -110 -317 -110q-236 0 -388 161q-128 136 -128 347q0 136 59 252q61 121 177 187q115 66 264 66q252 0 399 -178q114 -138 114 -339q0 -29 -1 -51zM337 561h475
q-14 75 -54 120q-70 79 -188 79q-113 0 -180 -79q-38 -46 -53 -120zM351 1378q61 0 101 -45q35 -38 35 -95q0 -61 -46 -101q-38 -34 -91 -34q-62 0 -103 45q-35 38 -35 92q0 64 46 104q37 34 93 34zM788 1378q60 0 101 -45q35 -38 35 -95q0 -61 -46 -101q-38 -34 -91 -34
q-63 0 -103 45q-35 38 -35 92q0 64 46 104q37 34 93 34z" />
    <glyph glyph-name="igrave" unicode="&#xec;" horiz-adv-x="519" 
d="M129 947h261v-947h-261v947zM-52 1376h262l170 -285h-161z" />
    <glyph glyph-name="iacute" unicode="&#xed;" horiz-adv-x="519" 
d="M129 947h261v-947h-261v947zM139 1091l170 285h262l-271 -285h-161z" />
    <glyph glyph-name="icircumflex" unicode="&#xee;" horiz-adv-x="519" 
d="M129 947h261v-947h-261v947zM400 1091l-139 151l-143 -151h-182l209 285h241l197 -285h-183z" />
    <glyph glyph-name="idieresis" unicode="&#xef;" horiz-adv-x="519" 
d="M129 947h261v-947h-261v947zM80 1378q60 0 101 -45q35 -38 35 -95q0 -61 -46 -101q-38 -34 -91 -34q-63 0 -103 45q-35 38 -35 92q0 64 46 104q37 34 93 34zM439 1378q61 0 101 -45q35 -38 35 -95q0 -61 -46 -101q-38 -34 -91 -34q-62 0 -103 45q-35 38 -35 92
q0 64 46 104q38 34 93 34z" />
    <glyph glyph-name="eth" unicode="&#xf0;" horiz-adv-x="1166" 
d="M411 1075l-55 105l156 84q-95 74 -211 113l51 81q148 -34 291 -123l212 114l60 -103l-157 -82q115 -91 190 -213q152 -247 152 -536q0 -277 -166 -422q-146 -126 -353 -126q-141 0 -262 64q-127 68 -192 191q-60 112 -60 252q0 222 146 365q146 140 365 140q90 0 189 -37
q-32 83 -67 135q-31 48 -89 107zM584 746q-135 0 -204 -99q-50 -73 -50 -172q0 -133 75 -206q73 -70 176 -70q123 0 196 87q58 67 58 191q0 128 -73 200q-70 69 -178 69z" />
    <glyph glyph-name="ntilde" unicode="&#xf1;" horiz-adv-x="1088" 
d="M129 0v947h261v-116q46 73 92 104q67 45 163 45q145 0 234 -88q56 -56 71 -128q14 -70 14 -165v-599h-261v586q0 74 -23 111q-40 63 -124 63q-83 0 -132 -67q-34 -46 -34 -118v-575h-261zM726 1346l167 -12q-54 -230 -212 -230q-57 0 -183 60q-32 16 -47 16
q-43 0 -62 -72l-167 14q52 226 214 226q59 0 185 -59q30 -14 47 -14q44 0 58 71z" />
    <glyph glyph-name="ograve" unicode="&#xf2;" horiz-adv-x="1164" 
d="M585 980q239 0 388 -168q125 -143 125 -347q0 -221 -165 -367q-148 -131 -353 -131q-161 0 -289 80q-120 77 -178 201q-46 99 -46 224q0 245 167 388q140 120 351 120zM584 747q-120 0 -192 -83q-63 -72 -63 -190q0 -129 74 -203q74 -72 179 -72q121 0 196 91
q57 68 57 179q0 136 -73 208q-70 70 -178 70zM271 1376h262l170 -285h-160z" />
    <glyph glyph-name="oacute" unicode="&#xf3;" horiz-adv-x="1164" 
d="M585 980q239 0 388 -168q125 -143 125 -347q0 -221 -165 -367q-148 -131 -353 -131q-161 0 -289 80q-120 77 -178 201q-46 99 -46 224q0 245 167 388q140 120 351 120zM584 747q-120 0 -192 -83q-63 -72 -63 -190q0 -129 74 -203q74 -72 179 -72q121 0 196 91
q57 68 57 179q0 136 -73 208q-70 70 -178 70zM462 1091l170 285h262l-271 -285h-161z" />
    <glyph glyph-name="ocircumflex" unicode="&#xf4;" horiz-adv-x="1164" 
d="M585 980q239 0 388 -168q125 -143 125 -347q0 -221 -165 -367q-148 -131 -353 -131q-161 0 -289 80q-120 77 -178 201q-46 99 -46 224q0 245 167 388q140 120 351 120zM584 747q-120 0 -192 -83q-63 -72 -63 -190q0 -129 74 -203q74 -72 179 -72q121 0 196 91
q57 68 57 179q0 136 -73 208q-70 70 -178 70zM724 1091l-140 151l-143 -151h-182l209 285h241l197 -285h-182z" />
    <glyph glyph-name="otilde" unicode="&#xf5;" horiz-adv-x="1164" 
d="M585 980q239 0 388 -168q125 -143 125 -347q0 -221 -165 -367q-148 -131 -353 -131q-161 0 -289 80q-120 77 -178 201q-46 99 -46 224q0 245 167 388q140 120 351 120zM584 747q-120 0 -192 -83q-63 -72 -63 -190q0 -129 74 -203q74 -72 179 -72q121 0 196 91
q57 68 57 179q0 136 -73 208q-70 70 -178 70zM765 1346l167 -12q-56 -230 -212 -230q-58 0 -184 60q-31 16 -46 16q-42 0 -62 -72l-168 14q52 226 214 226q61 0 185 -59q30 -14 47 -14q45 0 59 71z" />
    <glyph glyph-name="odieresis" unicode="&#xf6;" horiz-adv-x="1164" 
d="M585 980q239 0 388 -168q125 -142 125 -347q0 -221 -165 -367q-148 -131 -353 -131q-262 0 -410 189q-103 130 -103 316q0 245 167 388q140 120 351 120zM584 747q-120 0 -192 -83q-63 -74 -63 -190q0 -129 74 -203q74 -72 179 -72q121 0 196 91q57 68 57 179
q0 136 -73 208q-70 70 -178 70zM365 1378q61 0 101 -45q35 -38 35 -95q0 -61 -46 -101q-38 -34 -91 -34q-62 0 -103 45q-35 38 -35 92q0 64 45 104q38 34 94 34zM800 1378q62 0 102 -45q35 -38 35 -95q0 -61 -46 -101q-38 -34 -92 -34q-61 0 -102 45q-35 38 -35 92
q0 64 46 104q37 34 92 34z" />
    <glyph glyph-name="divide" unicode="&#xf7;" 
d="M25 659v135h973v-135h-973zM513 1192q43 0 74 -30q32 -32 32 -77q0 -47 -33 -78q-32 -30 -75 -30t-74 30q-33 31 -33 77t32 78q31 30 77 30zM513 475q46 0 77 -34q29 -31 29 -73q0 -46 -33 -78q-32 -30 -75 -30t-74 30q-33 32 -33 77q0 43 29 74q33 34 80 34z" />
    <glyph glyph-name="oslash" unicode="&#xf8;" horiz-adv-x="1165" 
d="M243 81l-109 -103l-64 68l106 103q-109 136 -109 323q0 247 171 389q143 119 338 119q188 0 342 -113l113 109l62 -67l-108 -107q114 -156 114 -333q0 -139 -70 -257q-71 -119 -190 -183q-116 -62 -257 -62q-190 0 -339 114zM803 631l-381 -379q76 -53 164 -53
q115 0 191 82q66 70 66 191q0 88 -40 159zM359 322l381 376q-72 48 -157 48q-125 0 -201 -87q-61 -70 -61 -192q0 -74 38 -145z" />
    <glyph glyph-name="ugrave" unicode="&#xf9;" horiz-adv-x="1054" 
d="M681 348v599h261v-599q0 -143 -47 -217q-55 -84 -161 -127q-90 -37 -206 -37q-203 0 -316 103q-101 92 -101 278v599h261v-582q0 -61 29 -111q39 -67 128 -67q81 0 125 60q27 38 27 101zM215 1376h262l170 -285h-160z" />
    <glyph glyph-name="uacute" unicode="&#xfa;" horiz-adv-x="1054" 
d="M681 348v599h261v-599q0 -143 -47 -217q-55 -84 -161 -127q-90 -37 -206 -37q-203 0 -316 103q-101 92 -101 278v599h261v-582q0 -61 29 -111q39 -67 128 -67q81 0 125 60q27 38 27 101zM406 1091l170 285h262l-271 -285h-161z" />
    <glyph glyph-name="ucircumflex" unicode="&#xfb;" horiz-adv-x="1054" 
d="M681 348v599h261v-599q0 -143 -47 -217q-55 -84 -161 -127q-90 -37 -206 -37q-203 0 -316 103q-101 92 -101 278v599h261v-582q0 -61 29 -111q39 -67 128 -67q81 0 125 60q27 38 27 101zM668 1091l-140 151l-143 -151h-182l209 285h241l197 -285h-182z" />
    <glyph glyph-name="udieresis" unicode="&#xfc;" horiz-adv-x="1054" 
d="M681 348v599h261v-599q0 -143 -47 -217q-55 -84 -161 -127q-90 -37 -206 -37q-203 0 -316 103q-101 92 -101 278v599h261v-582q0 -61 29 -111q39 -67 128 -67q81 0 125 60q27 38 27 101zM309 1378q61 0 101 -45q35 -38 35 -95q0 -61 -46 -101q-38 -34 -92 -34
q-61 0 -102 45q-35 38 -35 92q0 64 46 104q37 34 93 34zM745 1378q61 0 101 -45q35 -38 35 -95q0 -61 -46 -101q-38 -34 -91 -34q-62 0 -103 45q-35 38 -35 92q0 64 46 104q37 34 93 34z" />
    <glyph glyph-name="yacute" unicode="&#xfd;" horiz-adv-x="960" 
d="M274 947l192 -563l221 563h277l-534 -1380h-280l179 455l-332 925h277zM360 1091l170 285h262l-272 -285h-160z" />
    <glyph glyph-name="thorn" unicode="&#xfe;" horiz-adv-x="1246" 
d="M128 -425v1790h261v-535q50 66 101 97q89 53 211 53q147 0 263 -79q216 -145 216 -431q0 -277 -189 -415q-119 -88 -285 -88q-199 0 -317 136v-528h-261zM649 761q-134 0 -209 -111q-51 -76 -51 -188q0 -132 71 -209q70 -76 181 -76q135 0 209 107q52 76 52 180
q0 135 -72 216t-181 81z" />
    <glyph glyph-name="ydieresis" unicode="&#xff;" horiz-adv-x="960" 
d="M274 947l192 -563l221 563h277l-534 -1380h-280l179 455l-332 925h277zM262 1378q60 0 101 -45q35 -38 35 -95q0 -61 -46 -101q-38 -34 -91 -34q-63 0 -103 45q-35 38 -35 92q0 64 46 104q37 34 93 34zM699 1378q61 0 101 -45q35 -38 35 -95q0 -61 -46 -101
q-38 -34 -91 -34q-62 0 -103 45q-35 38 -35 92q0 64 46 104q37 34 93 34z" />
    <glyph glyph-name="Amacron" unicode="&#x100;" horiz-adv-x="1295" 
d="M983 0l-76 236h-526l-81 -236h-297l472 1365h350l466 -1365h-308zM453 466h380l-189 565zM848 1574h-402v112h402v-112z" />
    <glyph glyph-name="amacron" unicode="&#x101;" horiz-adv-x="1244" 
d="M854 827v120h261v-947h-261v130q-129 -163 -329 -163q-217 0 -349 161q-109 133 -109 334q0 150 69 278q58 108 165 173q108 66 243 66q111 0 200 -53q54 -32 110 -99zM598 759q-123 0 -192 -95q-61 -85 -61 -198q0 -135 83 -218q71 -71 168 -71q118 0 195 98
q67 85 67 199q0 113 -60 191q-73 94 -200 94zM808 1176h-372v114h372v-114z" />
    <glyph glyph-name="Abreve" unicode="&#x102;" horiz-adv-x="1295" 
d="M983 0l-76 236h-526l-81 -236h-297l472 1365h350l466 -1365h-308zM453 466h380l-189 565zM294 1750h181q25 -39 46 -59q47 -41 126 -41t126 41q23 20 46 59h181q-26 -86 -71 -136q-104 -119 -282 -119q-177 0 -282 119q-46 52 -71 136z" />
    <glyph glyph-name="abreve" unicode="&#x103;" horiz-adv-x="1244" 
d="M854 827v120h261v-947h-261v130q-129 -163 -329 -163q-217 0 -349 161q-109 133 -109 334q0 150 69 278q58 108 165 173q108 66 243 66q111 0 200 -53q54 -32 110 -99zM598 759q-123 0 -192 -95q-61 -85 -61 -198q0 -135 83 -218q71 -71 168 -71q118 0 195 98
q67 85 67 199q0 113 -60 191q-73 94 -200 94zM660 1361h180q-4 -76 -30 -127q-27 -57 -80 -89q-49 -29 -108 -29q-86 0 -145 59q-65 63 -72 186h180q10 -40 9 -73q0 -58 27 -58q30 0 29 58q0 34 10 73z" />
    <glyph glyph-name="Aogonek" unicode="&#x104;" horiz-adv-x="1326" 
d="M806 1365l519 -1365q-115 -67 -115 -141q0 -46 37 -74q31 -24 72 -24q39 0 98 24v-126q-81 -31 -145 -31q-92 0 -153 51t-61 122q0 111 150 199h-174l-106 284h-530l-107 -284h-290l523 1365h282zM462 487h401l-132 346q-35 92 -65 234q-34 -139 -71 -237z" />
    <glyph glyph-name="aogonek" unicode="&#x105;" horiz-adv-x="1113" 
d="M1042 0q-106 -64 -106 -140q0 -41 34 -71q31 -27 77 -27q38 0 92 22v-116q-81 -27 -140 -27q-93 0 -149 46q-59 47 -59 124q0 97 134 189h-150l-9 17q-15 26 -16 49q-2 42 -2 80q-44 -65 -89 -99q-100 -74 -254 -74q-158 0 -250 71q-98 77 -98 223q0 213 211 271
q84 23 297 47q116 13 151 40q26 20 26 74q0 153 -187 153q-116 0 -166 -62q-27 -34 -38 -105h-243q17 329 452 329q226 0 343 -93q75 -59 88 -159q4 -29 4 -94v-40l-2 -162q-1 -136 -1 -236q0 -118 15 -167q6 -21 35 -63zM743 392v104q-37 -28 -68 -37q-35 -10 -169 -26
q-185 -23 -185 -157q0 -70 48 -110q43 -37 123 -37q137 0 206 99q45 66 45 164z" />
    <glyph glyph-name="Cacute" unicode="&#x106;" horiz-adv-x="1300" 
d="M1087 373l170 -193q-101 -95 -192 -139q-144 -68 -316 -68q-305 0 -489 205q-101 112 -149 266q-35 117 -35 236q0 203 94 375q94 174 262 262q142 74 322 74q184 0 332 -76q84 -43 184 -140l-183 -185q-155 142 -320 142q-187 0 -302 -135q-105 -123 -105 -311
q0 -139 65 -254q50 -90 148 -146q94 -54 209 -54q184 0 305 141zM514 1488l193 272h269l-283 -272h-179z" />
    <glyph glyph-name="cacute" unicode="&#x107;" horiz-adv-x="958" 
d="M776 278l157 -169q-157 -142 -364 -142q-215 0 -364 147q-138 136 -138 354q0 160 80 291q70 113 193 171q106 50 230 50q207 0 379 -157l-173 -159q-86 84 -196 84q-116 0 -188 -87q-62 -76 -62 -184q0 -131 84 -210q71 -68 176 -68q94 0 186 79zM359 1091l170 285h262
l-271 -285h-161z" />
    <glyph glyph-name="Ccircumflex" unicode="&#x108;" horiz-adv-x="1300" 
d="M1087 373l170 -193q-101 -95 -192 -139q-144 -68 -316 -68q-305 0 -489 205q-101 112 -149 266q-35 117 -35 236q0 203 94 375q94 174 262 262q142 74 322 74q184 0 332 -76q84 -43 184 -140l-183 -185q-155 142 -320 142q-187 0 -302 -135q-105 -123 -105 -311
q0 -139 65 -254q50 -90 148 -146q94 -54 209 -54q184 0 305 141zM810 1488l-158 139l-162 -139h-183l232 273h236l217 -273h-182z" />
    <glyph glyph-name="Cdotaccent" unicode="&#x10a;" horiz-adv-x="1300" 
d="M1087 373l170 -193q-101 -95 -192 -139q-144 -68 -316 -68q-305 0 -489 205q-101 112 -149 266q-35 117 -35 236q0 203 94 375q94 174 262 262q142 74 322 74q184 0 332 -76q84 -43 184 -140l-183 -185q-155 142 -320 142q-187 0 -302 -135q-105 -123 -105 -311
q0 -139 65 -254q50 -90 148 -146q94 -54 209 -54q184 0 305 141zM648 1781q62 0 102 -45q38 -41 38 -98q0 -62 -49 -105q-37 -34 -92 -34q-63 0 -103 45q-38 41 -38 96q0 64 49 107q37 34 93 34z" />
    <glyph glyph-name="cdotaccent" unicode="&#x10b;" horiz-adv-x="958" 
d="M776 278l157 -169q-157 -142 -364 -142q-215 0 -364 147q-138 136 -138 354q0 160 80 291q70 113 193 171q106 50 230 50q207 0 379 -157l-173 -159q-86 84 -196 84q-116 0 -188 -87q-62 -76 -62 -184q0 -131 84 -210q71 -68 176 -68q94 0 186 79zM480 1378q60 0 101 -45
q35 -38 35 -95q0 -61 -46 -101q-38 -34 -91 -34q-63 0 -103 45q-35 38 -35 92q0 64 46 104q37 34 93 34z" />
    <glyph glyph-name="Ccaron" unicode="&#x10c;" horiz-adv-x="1300" 
d="M1087 373l170 -193q-101 -95 -192 -139q-144 -68 -316 -68q-305 0 -489 205q-101 112 -149 266q-35 117 -35 236q0 203 94 375q94 174 262 262q142 74 322 74q184 0 332 -76q84 -43 184 -140l-183 -185q-155 142 -320 142q-187 0 -302 -135q-105 -123 -105 -311
q0 -139 65 -254q50 -90 148 -146q94 -54 209 -54q184 0 305 141zM489 1761l158 -139l162 139h183l-231 -273h-237l-217 273h182z" />
    <glyph glyph-name="ccaron" unicode="&#x10d;" horiz-adv-x="958" 
d="M776 278l157 -169q-157 -142 -364 -142q-215 0 -364 147q-138 136 -138 354q0 160 80 291q70 113 193 171q106 50 230 50q207 0 379 -157l-173 -159q-86 84 -196 84q-116 0 -188 -87q-62 -76 -62 -184q0 -131 84 -210q71 -68 176 -68q94 0 186 79zM338 1376l140 -151
l143 151h182l-209 -285h-241l-197 285h182z" />
    <glyph glyph-name="Dcaron" unicode="&#x10e;" horiz-adv-x="1312" 
d="M546 0h-403v1365h387q231 0 370 -70q172 -85 261 -262q75 -147 75 -335q0 -236 -111 -414q-177 -284 -579 -284zM526 1138h-103v-907h54q151 0 238 41q119 57 183 180q54 104 54 237q0 149 -66 262q-62 105 -175 151q-85 36 -185 36zM496 1761l158 -139l162 139h183
l-231 -273h-237l-217 273h182z" />
    <glyph glyph-name="dcaron" unicode="&#x10f;" horiz-adv-x="1590" 
d="M854 842v523h261v-1365h-261v124q-55 -76 -113 -108q-88 -49 -205 -49q-220 0 -352 151q-117 134 -117 347q0 244 152 385q139 130 322 130q90 0 175 -35q66 -28 138 -103zM602 761q-134 0 -207 -114q-51 -79 -51 -183q0 -132 78 -211q73 -76 178 -76q118 0 192 96
q62 82 62 193q0 128 -71 211q-71 84 -181 84zM1299 1392l223 -60l-162 -426l-175 46z" />
    <glyph glyph-name="Dcroat" unicode="&#x110;" horiz-adv-x="1312" 
d="M10 801h133v564h388q230 0 369 -70q174 -88 262 -262q74 -146 74 -335q0 -236 -111 -414q-177 -284 -579 -284h-403v582h-133v219zM423 1138v-337h242v-219h-242v-350h54q154 0 238 40q119 57 183 180q54 104 54 238q0 148 -66 261q-62 105 -175 151q-85 36 -185 36h-103
z" />
    <glyph glyph-name="dcroat" unicode="&#x111;" horiz-adv-x="1244" 
d="M634 1245h220v120h261v-120h122v-194h-122v-1051h-261v124q-55 -76 -113 -108q-88 -49 -205 -49q-220 0 -352 151q-117 134 -117 346q0 244 152 385q139 130 322 130q91 0 175 -35q69 -28 138 -102v209h-220v194zM602 760q-133 0 -207 -113q-51 -79 -51 -184
q0 -131 78 -210q73 -76 178 -76q118 0 192 95q62 83 62 193q0 128 -71 211q-71 84 -181 84z" />
    <glyph glyph-name="Emacron" unicode="&#x112;" horiz-adv-x="949" 
d="M855 1136h-479v-336h479v-229h-479v-342h479v-229h-759v1365h759v-229zM677 1574h-402v112h402v-112z" />
    <glyph glyph-name="emacron" unicode="&#x113;" horiz-adv-x="1138" 
d="M1079 412h-741q14 -79 56 -127q74 -86 192 -86q81 0 151 47q41 27 68 76l238 -66q-56 -111 -143 -179q-142 -110 -317 -110q-236 0 -388 161q-128 136 -128 347q0 136 59 252q61 121 177 187q115 66 264 66q252 0 399 -178q114 -138 114 -339q0 -29 -1 -51zM337 561h475
q-14 75 -54 120q-70 79 -188 79q-113 0 -180 -79q-38 -46 -53 -120zM755 1176h-372v114h372v-114z" />
    <glyph glyph-name="Ebreve" unicode="&#x114;" horiz-adv-x="949" 
d="M855 1136h-479v-336h479v-229h-479v-342h479v-229h-759v1365h759v-229zM121 1750h182q23 -38 45 -59q47 -41 126 -41t126 41q23 20 46 59h181q-26 -86 -71 -136q-104 -119 -282 -119q-177 0 -282 119q-46 52 -71 136z" />
    <glyph glyph-name="Edotaccent" unicode="&#x116;" horiz-adv-x="949" 
d="M855 1136h-479v-336h479v-229h-479v-342h479v-229h-759v1365h759v-229zM473 1781q61 0 102 -45q38 -41 38 -98q0 -63 -49 -105q-37 -34 -92 -34q-62 0 -103 45q-38 41 -38 96q0 64 49 107q37 34 93 34z" />
    <glyph glyph-name="edotaccent" unicode="&#x117;" horiz-adv-x="1138" 
d="M1079 412h-741q14 -79 56 -127q74 -86 192 -86q81 0 151 47q41 27 68 76l238 -66q-56 -111 -143 -179q-142 -110 -317 -110q-236 0 -388 161q-128 136 -128 347q0 136 59 252q61 121 177 187q115 66 264 66q252 0 399 -178q114 -138 114 -339q0 -29 -1 -51zM337 561h475
q-14 75 -54 120q-70 79 -188 79q-113 0 -180 -79q-38 -46 -53 -120zM570 1378q60 0 101 -45q35 -38 35 -95q0 -61 -46 -101q-38 -34 -91 -34q-63 0 -103 45q-35 38 -35 92q0 64 46 104q37 34 93 34z" />
    <glyph glyph-name="Eogonek" unicode="&#x118;" horiz-adv-x="1261" 
d="M1193 237v-237q-30 -18 -56 -38q-60 -45 -60 -102q0 -45 35 -74q31 -25 75 -25q39 0 97 24l-12 -126q-83 -31 -145 -31q-93 0 -154 51t-61 123q0 109 149 198h-937v1365h1053v-228h-769v-320h708v-219h-708v-361h785z" />
    <glyph glyph-name="eogonek" unicode="&#x119;" horiz-adv-x="1130" 
d="M609 -25q-71 -57 -71 -119q0 -39 34 -69q33 -27 77 -27q34 0 91 21v-116q-83 -26 -139 -26q-93 0 -149 45q-59 47 -59 126q0 86 105 168q-128 17 -215 73q-105 67 -164 184q-58 113 -58 252q0 217 129 364q142 162 379 162q240 0 379 -163q124 -145 124 -381v-28h-761
q3 -90 39 -159q70 -139 227 -139q110 0 175 68q30 30 59 104h244q-27 -121 -128 -216q-98 -93 -236 -116q-38 -5 -82 -8zM312 577h505q-5 93 -38 150q-68 116 -207 116q-98 0 -167 -60q-75 -64 -93 -206z" />
    <glyph glyph-name="Ecaron" unicode="&#x11a;" horiz-adv-x="949" 
d="M855 1136h-479v-336h479v-229h-479v-342h479v-229h-759v1365h759v-229zM314 1761l158 -139l162 139h183l-232 -273h-236l-217 273h182z" />
    <glyph glyph-name="ecaron" unicode="&#x11b;" horiz-adv-x="1138" 
d="M1079 412h-741q14 -79 56 -127q74 -86 192 -86q81 0 151 47q41 27 68 76l238 -66q-56 -111 -143 -179q-142 -110 -317 -110q-236 0 -388 161q-128 136 -128 347q0 136 59 252q61 121 177 187q115 66 264 66q252 0 399 -178q114 -138 114 -339q0 -29 -1 -51zM337 561h475
q-14 75 -54 120q-70 79 -188 79q-113 0 -180 -79q-38 -46 -53 -120zM428 1376l140 -151l143 151h182l-209 -285h-241l-197 285h182z" />
    <glyph glyph-name="Gcircumflex" unicode="&#x11c;" horiz-adv-x="1541" 
d="M796 537v229h683q1 -25 1 -74q0 -306 -199 -506q-209 -212 -503 -212q-186 0 -345 87q-165 88 -258 245q-99 165 -99 375q0 305 203 511q196 199 496 199q210 0 389 -113q93 -60 165 -149l-212 -166q-56 68 -104 100q-102 69 -232 69q-140 0 -247 -80q-90 -67 -138 -185
q-36 -90 -36 -188q0 -211 148 -343q122 -108 281 -108q124 0 228 70q93 61 135 164q10 26 24 75h-380zM931 1488l-159 139l-162 -139h-182l231 273h237l217 -273h-182z" />
    <glyph glyph-name="gcircumflex" unicode="&#x11d;" horiz-adv-x="1206" 
d="M821 830v117h256v-878q0 -197 -55 -300q-64 -120 -198 -183q-117 -55 -266 -55q-275 0 -466 188l161 164q121 -132 294 -132q134 0 206 77q68 74 68 204v97q-128 -162 -334 -162q-122 0 -226 64q-223 135 -223 436q0 146 63 272q59 119 168 180q106 61 245 61
q102 0 184 -43q65 -34 123 -107zM569 748q-128 0 -201 -97q-53 -71 -53 -173q0 -134 84 -213q71 -66 171 -66q121 0 196 87q50 58 50 169q0 149 -70 219q-74 74 -177 74zM745 1091l-140 151l-143 -151h-182l209 285h241l197 -285h-182z" />
    <glyph glyph-name="Gbreve" unicode="&#x11e;" horiz-adv-x="1541" 
d="M796 537v229h683q1 -25 1 -74q0 -306 -199 -506q-209 -212 -503 -212q-186 0 -345 87q-165 88 -258 245q-99 165 -99 375q0 305 203 511q196 199 496 199q210 0 389 -113q93 -60 165 -149l-212 -166q-56 68 -104 100q-102 69 -232 69q-140 0 -247 -80q-90 -67 -138 -185
q-36 -90 -36 -188q0 -211 148 -343q122 -108 281 -108q124 0 228 70q93 61 135 164q10 26 24 75h-380zM417 1750h181q25 -39 46 -59q47 -41 126 -41t126 41q23 20 46 59h181q-26 -86 -71 -136q-104 -119 -282 -119q-177 0 -282 119q-46 52 -71 136z" />
    <glyph glyph-name="gbreve" unicode="&#x11f;" horiz-adv-x="1206" 
d="M821 830v117h256v-878q0 -197 -55 -300q-64 -120 -198 -183q-117 -55 -266 -55q-275 0 -466 188l161 164q121 -132 294 -132q134 0 206 77q68 74 68 204v97q-128 -162 -334 -162q-122 0 -226 64q-223 135 -223 436q0 146 63 272q59 119 168 180q106 61 245 61
q102 0 184 -43q65 -34 123 -107zM569 748q-128 0 -201 -97q-53 -71 -53 -173q0 -134 84 -213q71 -66 171 -66q121 0 196 87q50 58 50 169q0 149 -70 219q-74 74 -177 74zM641 1361h180q-4 -75 -29 -127q-29 -58 -81 -89q-49 -29 -108 -29q-86 0 -145 59q-64 63 -72 186h180
q10 -40 9 -73q0 -58 28 -58q29 0 29 58q-1 33 9 73z" />
    <glyph glyph-name="Gdotaccent" unicode="&#x120;" horiz-adv-x="1541" 
d="M796 537v229h683q1 -25 1 -74q0 -306 -199 -506q-209 -212 -503 -212q-186 0 -345 87q-165 88 -258 245q-99 165 -99 375q0 305 203 511q196 199 496 199q210 0 389 -113q93 -60 165 -149l-212 -166q-56 68 -104 100q-102 69 -232 69q-140 0 -247 -80q-90 -67 -138 -185
q-36 -90 -36 -188q0 -211 148 -343q122 -108 281 -108q124 0 228 70q93 61 135 164q10 26 24 75h-380zM769 1781q61 0 102 -45q38 -41 38 -98q0 -62 -49 -105q-37 -34 -92 -34q-62 0 -103 45q-38 41 -38 96q0 64 49 107q37 34 93 34z" />
    <glyph glyph-name="gdotaccent" unicode="&#x121;" horiz-adv-x="1206" 
d="M821 830v117h256v-878q0 -197 -55 -300q-64 -120 -198 -183q-117 -55 -266 -55q-275 0 -466 188l161 164q121 -132 294 -132q134 0 206 77q68 74 68 204v97q-128 -162 -334 -162q-122 0 -226 64q-223 135 -223 436q0 146 63 272q59 119 168 180q106 61 245 61
q102 0 184 -43q65 -34 123 -107zM569 748q-128 0 -201 -97q-53 -71 -53 -173q0 -134 84 -213q71 -66 171 -66q121 0 196 87q50 58 50 169q0 149 -70 219q-74 74 -177 74zM604 1378q60 0 101 -45q35 -38 35 -95q0 -61 -46 -101q-38 -34 -91 -34q-63 0 -103 45q-35 38 -35 92
q0 64 46 104q37 34 93 34z" />
    <glyph glyph-name="Gcommaaccent" unicode="&#x122;" horiz-adv-x="1541" 
d="M796 537v229h683q1 -25 1 -74q0 -306 -199 -506q-209 -212 -503 -212q-186 0 -345 87q-165 88 -258 245q-99 165 -99 375q0 305 203 511q196 199 496 199q210 0 389 -113q93 -60 165 -149l-212 -166q-56 68 -104 100q-102 69 -232 69q-140 0 -247 -80q-90 -67 -138 -185
q-36 -90 -36 -188q0 -211 148 -343q122 -108 281 -108q124 0 228 70q93 61 135 164q10 26 24 75h-380zM653 -87h231v-135q0 -147 -82 -201q-53 -35 -160 -42v85q63 5 100 27q34 21 39 86h-128v180z" />
    <glyph glyph-name="gcommaaccent" unicode="&#x123;" horiz-adv-x="1206" 
d="M821 830v117h256v-878q0 -197 -55 -300q-64 -120 -198 -183q-117 -55 -266 -55q-275 0 -466 188l161 164q121 -132 294 -132q134 0 206 77q68 74 68 204v97q-128 -162 -334 -162q-122 0 -226 64q-223 135 -223 436q0 146 63 272q59 119 168 180q106 61 245 61
q102 0 184 -43q65 -34 123 -107zM569 748q-128 0 -201 -97q-53 -71 -53 -173q0 -134 84 -213q71 -66 171 -66q121 0 196 87q50 58 50 169q0 149 -70 219q-74 74 -177 74zM682 1106l-223 60l162 426l176 -46z" />
    <glyph glyph-name="Hcircumflex" unicode="&#x124;" horiz-adv-x="1365" 
d="M942 560h-519v-560h-280v1365h280v-576h519v576h280v-1365h-280v560zM843 1488l-158 139l-162 -139h-183l232 273h236l217 -273h-182z" />
    <glyph glyph-name="Hbar" unicode="&#x126;" horiz-adv-x="1409" 
d="M1287 1365v-165h118v-162h-118v-1038h-285v593h-593v-593h-284v1038h-120v162h120v165h284v-165h593v165h285zM1002 1038h-593v-229h593v229z" />
    <glyph glyph-name="hbar" unicode="&#x127;" horiz-adv-x="1178" 
d="M379 1365v-129h223v-155h-223v-268q44 82 92 121q97 79 231 79q191 0 290 -134q66 -88 66 -259v-620h-259v570q0 114 -42 165q-57 70 -155 70q-117 0 -181 -100q-42 -66 -42 -197v-508h-259v1081h-141v155h141v129h259z" />
    <glyph glyph-name="Imacron" unicode="&#x12a;" horiz-adv-x="566" 
d="M143 1365h280v-1365h-280v1365zM484 1574h-402v112h402v-112z" />
    <glyph glyph-name="imacron" unicode="&#x12b;" horiz-adv-x="519" 
d="M129 947h261v-947h-261v947zM445 1176h-372v114h372v-114z" />
    <glyph glyph-name="ibreve" unicode="&#x12d;" horiz-adv-x="519" 
d="M129 947h261v-947h-261v947zM297 1361h180q-4 -76 -30 -127q-27 -57 -80 -89q-49 -29 -108 -29q-86 0 -145 59q-64 63 -72 186h180q10 -40 9 -73q0 -58 27 -58q30 0 29 58q0 34 10 73z" />
    <glyph glyph-name="Iogonek" unicode="&#x12e;" horiz-adv-x="566" 
d="M423 1365v-1365l-20 -15q-122 -95 -122 -167q0 -27 20 -45q29 -25 83 -25q30 0 73 12l18 -149q-77 -23 -143 -23q-110 0 -174 52q-65 51 -65 124q0 133 154 236h-104v1365h280z" />
    <glyph glyph-name="iogonek" unicode="&#x12f;" horiz-adv-x="519" 
d="M391 947v-947q-59 -56 -79 -87q-17 -29 -17 -58q0 -69 90 -69q27 0 63 11l16 -122q-58 -18 -117 -18q-91 0 -143 39q-61 45 -61 117q0 106 117 187h-130v947h261zM262 1363q64 0 105 -45q38 -43 38 -102q0 -66 -49 -109q-38 -33 -95 -33q-66 0 -107 44q-38 43 -38 100
q0 69 49 112q38 33 97 33z" />
    <glyph glyph-name="Idotaccent" unicode="&#x130;" horiz-adv-x="566" 
d="M143 1365h280v-1365h-280v1365zM282 1781q62 0 102 -45q38 -41 38 -98q0 -62 -49 -105q-37 -34 -92 -34q-63 0 -103 45q-38 41 -38 96q0 64 49 107q37 34 93 34z" />
    <glyph glyph-name="dotlessi" unicode="&#x131;" horiz-adv-x="519" 
d="M129 947h261v-947h-261v947z" />
    <glyph glyph-name="IJ" unicode="&#x132;" horiz-adv-x="1352" 
d="M143 1365h280v-1365h-280v1365zM629 1365h603v-881q0 -224 -79 -330q-102 -136 -313 -164q-66 -9 -211 -11v249q32 -4 59 -4q124 0 188 52q48 38 65 110q11 53 11 167v583h-323v229z" />
    <glyph glyph-name="ij" unicode="&#x133;" horiz-adv-x="1038" 
d="M129 947h261v-947h-261v947zM261 1363q65 0 105 -45q38 -43 38 -102q0 -66 -49 -109q-37 -33 -95 -33q-66 0 -107 44q-38 43 -38 100q0 69 49 112q37 33 97 33zM648 947h261v-979q0 -210 -90 -304q-97 -102 -280 -102q-21 0 -69 3v238q14 -1 38 -1q68 0 103 42
q37 44 37 124v979zM780 1363q64 0 105 -45q38 -41 38 -102q0 -66 -49 -109q-38 -33 -95 -33q-66 0 -107 44q-38 44 -38 100q0 69 49 112q37 33 97 33z" />
    <glyph glyph-name="Kcommaaccent" unicode="&#x136;" horiz-adv-x="1153" 
d="M807 0l-384 608v-608h-280v1365h280v-593l388 593h324l-442 -658l442 -707h-328zM460 -87h231v-135q0 -146 -82 -201q-53 -35 -160 -42v85q62 4 100 27q34 21 39 86h-128v180z" />
    <glyph glyph-name="kcommaaccent" unicode="&#x137;" horiz-adv-x="970" 
d="M654 0l-264 393v-393h-261v1365h261v-781l265 363h301l-323 -454l323 -493h-302zM371 -118h224v-116q0 -82 -21 -129q-33 -70 -140 -97l-76 -16v86q16 6 76 20q50 12 57 90h-120v162z" />
    <glyph glyph-name="kgreenlandic" unicode="&#x138;" horiz-adv-x="1091" 
d="M767 987h296l-394 -388l445 -599h-310l-305 428l-119 -112v-316h-260v987h260v-402z" />
    <glyph glyph-name="Lacute" unicode="&#x139;" horiz-adv-x="924" 
d="M423 1365v-1133h457v-232h-737v1365h280zM327 1488l193 272h269l-284 -272h-178z" />
    <glyph glyph-name="lacute" unicode="&#x13a;" horiz-adv-x="519" 
d="M390 1365v-1365h-261v1365h261zM124 1488l193 272h269l-284 -272h-178z" />
    <glyph glyph-name="Lcommaaccent" unicode="&#x13b;" horiz-adv-x="924" 
d="M423 1365v-1133h457v-232h-737v1365h280zM345 -87h231v-135q0 -146 -82 -201q-53 -35 -160 -42v85q62 4 100 27q34 21 39 86h-128v180z" />
    <glyph glyph-name="lcommaaccent" unicode="&#x13c;" horiz-adv-x="519" 
d="M390 1365v-1365h-261v1365h261zM146 -118h224v-116q0 -82 -21 -129q-33 -68 -140 -97q-21 -6 -77 -16v86q21 7 77 20q49 12 57 90h-120v162z" />
    <glyph glyph-name="Lcaron" unicode="&#x13d;" horiz-adv-x="924" 
d="M423 1365v-1133h457v-232h-737v1365h280zM685 1392l223 -60l-162 -426l-176 46z" />
    <glyph glyph-name="lcaron" unicode="&#x13e;" horiz-adv-x="1002" 
d="M390 1365v-1365h-261v1365h261zM711 1392l222 -60l-162 -426l-175 46z" />
    <glyph glyph-name="Ldot" unicode="&#x13f;" horiz-adv-x="924" 
d="M423 1365v-1133h457v-232h-737v1365h280zM737 864q72 0 117 -49q43 -46 43 -116q0 -74 -56 -122q-41 -37 -106 -37q-74 0 -119 49q-43 46 -43 113q0 75 56 125q41 37 108 37z" />
    <glyph glyph-name="ldot" unicode="&#x140;" horiz-adv-x="843" 
d="M390 1365v-1365h-261v1365h261zM683 864q71 0 117 -49q43 -46 43 -116q0 -74 -56 -122q-41 -37 -106 -37q-74 0 -119 49q-43 46 -43 113q0 75 56 125q41 37 108 37z" />
    <glyph glyph-name="Lslash" unicode="&#x141;" horiz-adv-x="924" 
d="M24 648l119 83v634h280v-498l194 135v-242l-194 -132v-396h457v-232h-737v492l-119 -86v242z" />
    <glyph glyph-name="lslash" unicode="&#x142;" horiz-adv-x="540" 
d="M26 668l113 77v620h261v-480l114 80v-218l-114 -78v-669h-261v530l-113 -81v219z" />
    <glyph glyph-name="Nacute" unicode="&#x143;" horiz-adv-x="1414" 
d="M998 0l-575 863v-863h-280v1365h275l573 -852v852h280v-1365h-273zM572 1488l192 272h269l-283 -272h-178z" />
    <glyph glyph-name="nacute" unicode="&#x144;" horiz-adv-x="1088" 
d="M129 0v947h261v-116q46 73 92 104q67 45 163 45q145 0 234 -88q56 -56 71 -128q14 -70 14 -165v-599h-261v586q0 74 -23 111q-40 63 -124 63q-83 0 -132 -67q-34 -46 -34 -118v-575h-261zM424 1091l169 285h262l-271 -285h-160z" />
    <glyph glyph-name="Ncommaaccent" unicode="&#x145;" horiz-adv-x="1414" 
d="M998 0l-575 863v-863h-280v1365h275l573 -852v852h280v-1365h-273zM590 -87h231v-135q0 -147 -82 -201q-53 -35 -160 -42v85q62 4 100 27q34 21 39 86h-128v180z" />
    <glyph glyph-name="ncommaaccent" unicode="&#x146;" horiz-adv-x="1088" 
d="M129 0v947h261v-116q46 73 92 104q67 45 163 45q145 0 234 -88q56 -56 71 -128q14 -70 14 -165v-599h-261v586q0 74 -23 111q-40 63 -124 63q-83 0 -132 -67q-34 -46 -34 -118v-575h-261zM430 -118h224v-116q0 -82 -21 -129q-33 -70 -140 -97l-76 -16v86q20 7 76 20
q49 12 57 90h-120v162z" />
    <glyph glyph-name="Ncaron" unicode="&#x147;" horiz-adv-x="1414" 
d="M998 0l-575 863v-863h-280v1365h275l573 -852v852h280v-1365h-273zM546 1761l159 -139l162 139h182l-231 -273h-237l-216 273h181z" />
    <glyph glyph-name="ncaron" unicode="&#x148;" horiz-adv-x="1088" 
d="M129 0v947h261v-116q46 73 92 104q67 45 163 45q145 0 234 -88q56 -56 71 -128q14 -70 14 -165v-599h-261v586q0 74 -23 111q-40 63 -124 63q-83 0 -132 -67q-34 -46 -34 -118v-575h-261zM403 1376l140 -151l142 151h182l-209 -285h-240l-198 285h183z" />
    <glyph glyph-name="napostrophe" unicode="&#x149;" horiz-adv-x="1571" 
d="M192 1392l222 -60l-162 -426l-175 46zM612 0v947h261v-116q46 73 92 104q69 45 164 45q145 0 234 -88q56 -56 71 -128q14 -72 14 -165v-599h-261v586q0 74 -23 111q-40 63 -124 63q-83 0 -132 -67q-35 -47 -35 -118v-575h-261z" />
    <glyph glyph-name="Eng" unicode="&#x14a;" horiz-adv-x="1345" 
d="M124 0v1354h267v-229q58 108 105 154q116 110 300 110q198 0 319 -127q69 -72 92 -179q13 -61 13 -167v-1126q0 -99 -52 -135q-41 -27 -152 -27h-246v158h26q99 0 123 53q17 39 17 218v794q0 145 -55 210q-67 82 -189 82q-102 0 -179 -66q-63 -55 -85 -137
q-20 -75 -20 -181v-759h-284z" />
    <glyph glyph-name="eng" unicode="&#x14b;" horiz-adv-x="1185" 
d="M120 0v982h240v-176q43 80 91 122q98 86 250 86q187 0 286 -116q57 -66 71 -156q8 -62 8 -130v-808q0 -67 -19 -98q-28 -45 -100 -53q-30 -2 -74 -2h-225v121h24q68 0 94 16q39 25 39 94v679q0 73 -9 104q-19 66 -75 101q-49 30 -113 30q-90 0 -154 -55q-79 -67 -79 -243
v-498h-255z" />
    <glyph glyph-name="Omacron" unicode="&#x14c;" horiz-adv-x="1564" 
d="M793 1392q176 0 327 -80q189 -101 286 -282q81 -152 81 -354q0 -186 -92 -350q-98 -176 -278 -271q-151 -81 -328 -81q-195 0 -363 96q-180 104 -272 281q-78 148 -78 325q0 313 222 526q199 190 495 190zM785 1133q-195 0 -320 -150q-103 -124 -103 -302
q0 -193 123 -321q123 -127 297 -127q185 0 311 139q60 65 89 163q21 74 21 139q0 218 -135 345q-120 114 -283 114zM983 1574h-402v112h402v-112z" />
    <glyph glyph-name="omacron" unicode="&#x14d;" horiz-adv-x="1164" 
d="M585 980q239 0 388 -168q125 -143 125 -347q0 -221 -165 -367q-148 -131 -353 -131q-161 0 -289 80q-120 77 -178 201q-46 99 -46 224q0 245 167 388q140 120 351 120zM584 747q-120 0 -192 -83q-63 -72 -63 -190q0 -129 74 -203q74 -72 179 -72q121 0 196 91
q57 68 57 179q0 136 -73 208q-70 70 -178 70zM768 1176h-372v114h372v-114z" />
    <glyph glyph-name="Ohungarumlaut" unicode="&#x150;" horiz-adv-x="1564" 
d="M793 1392q176 0 327 -80q189 -101 286 -282q81 -152 81 -354q0 -186 -92 -350q-98 -176 -278 -271q-151 -81 -328 -81q-195 0 -363 96q-180 104 -272 281q-78 148 -78 325q0 313 222 526q199 190 495 190zM785 1133q-195 0 -320 -150q-103 -124 -103 -302
q0 -193 123 -321q123 -127 297 -127q185 0 311 139q60 65 89 163q21 74 21 139q0 218 -135 345q-120 114 -283 114zM495 1488l165 269h237l-248 -269h-154zM856 1488l165 269h237l-248 -269h-154z" />
    <glyph glyph-name="ohungarumlaut" unicode="&#x151;" horiz-adv-x="1164" 
d="M585 980q239 0 388 -168q125 -143 125 -347q0 -221 -165 -367q-148 -131 -353 -131q-161 0 -289 80q-120 77 -178 201q-46 99 -46 224q0 245 167 388q140 120 351 120zM584 747q-120 0 -192 -83q-63 -72 -63 -190q0 -129 74 -203q74 -72 179 -72q121 0 196 91
q57 68 57 179q0 136 -73 208q-70 70 -178 70zM315 1091l143 280h232l-235 -280h-140zM670 1091l143 280h232l-235 -280h-140z" />
    <glyph glyph-name="OE" unicode="&#x152;" horiz-adv-x="2053" 
d="M1959 571h-467v-342h467v-229h-742v161q-68 -81 -155 -122q-137 -66 -293 -66q-182 0 -337 86q-154 86 -245 234q-107 173 -107 392q0 327 226 531q193 175 468 175q154 0 281 -60q80 -37 162 -119v153h742v-229h-467v-336h467v-229zM803 1132q-215 0 -343 -162
q-96 -124 -96 -290q0 -212 146 -343q116 -105 281 -105q209 0 333 156q57 71 82 162q20 72 20 133q0 194 -116 319q-65 69 -154 102q-77 28 -153 28z" />
    <glyph glyph-name="oe" unicode="&#x153;" horiz-adv-x="1858" 
d="M1583 320l213 -72q-56 -106 -132 -167q-142 -114 -323 -114q-145 0 -273 72q-60 34 -116 106q-40 -53 -77 -78q-147 -99 -303 -99q-234 0 -379 160q-126 136 -126 347q0 237 159 379q141 126 349 126q249 0 377 -171q63 76 136 112q115 59 242 59q223 0 363 -149
q107 -115 130 -302q3 -31 5 -122h-736q9 -82 57 -131q77 -77 190 -77q157 0 244 121zM1084 556h490q-14 76 -49 118q-71 87 -195 87q-113 0 -184 -77q-44 -49 -62 -128zM584 749q-118 0 -194 -91q-60 -70 -60 -178q0 -124 76 -203q74 -77 179 -77q116 0 190 89q60 73 60 174
q0 124 -73 206q-71 80 -178 80z" />
    <glyph glyph-name="Racute" unicode="&#x154;" horiz-adv-x="1196" 
d="M797 0l-374 543v-543h-280v1365h420q257 0 387 -108q51 -40 81 -98q54 -101 54 -223q0 -195 -124 -310q-77 -71 -200 -102l376 -524h-340zM423 1133v-426h128q109 0 173 46q77 57 77 168q0 93 -56 151q-58 61 -171 61h-151zM463 1488l193 272h269l-284 -272h-178z" />
    <glyph glyph-name="racute" unicode="&#x155;" horiz-adv-x="682" 
d="M129 0v947h261v-138q33 90 83 125q62 46 152 46q17 0 32 -1v-266q-35 3 -54 3q-115 0 -175 -86q-27 -41 -33 -85q-5 -42 -5 -88v-457h-261zM221 1091l170 285h262l-272 -285h-160z" />
    <glyph glyph-name="Rcommaaccent" unicode="&#x156;" horiz-adv-x="1196" 
d="M797 0l-374 543v-543h-280v1365h420q257 0 387 -108q51 -40 81 -98q54 -101 54 -223q0 -195 -124 -310q-77 -71 -200 -102l376 -524h-340zM423 1133v-426h128q109 0 173 46q77 57 77 168q0 93 -56 151q-58 61 -171 61h-151zM481 -87h231v-135q0 -146 -82 -201
q-51 -35 -159 -42v85q61 6 99 27q34 21 39 86h-128v180z" />
    <glyph glyph-name="rcommaaccent" unicode="&#x157;" horiz-adv-x="682" 
d="M129 0v947h261v-138q33 90 83 125q62 46 152 46q17 0 32 -1v-266q-35 3 -54 3q-115 0 -175 -86q-27 -41 -33 -85q-5 -42 -5 -88v-457h-261zM149 -118h224v-116q0 -82 -21 -129q-33 -68 -140 -97q-21 -6 -77 -16v86q21 7 77 20q50 12 57 90h-120v162z" />
    <glyph glyph-name="Rcaron" unicode="&#x158;" horiz-adv-x="1196" 
d="M797 0l-374 543v-543h-280v1365h420q257 0 387 -108q51 -40 81 -98q54 -101 54 -223q0 -195 -124 -310q-77 -71 -200 -102l376 -524h-340zM423 1133v-426h128q109 0 173 46q77 57 77 168q0 93 -56 151q-58 61 -171 61h-151zM438 1761l158 -139l162 139h183l-232 -273
h-236l-217 273h182z" />
    <glyph glyph-name="rcaron" unicode="&#x159;" horiz-adv-x="682" 
d="M129 0v947h261v-138q33 90 83 125q62 46 152 46q17 0 32 -1v-266q-35 3 -54 3q-115 0 -175 -86q-27 -41 -33 -85q-5 -42 -5 -88v-457h-261zM200 1376l140 -151l143 151h182l-209 -285h-241l-197 285h182z" />
    <glyph glyph-name="Sacute" unicode="&#x15a;" horiz-adv-x="1067" 
d="M64 399h273q0 -54 13 -81q23 -45 73 -72q47 -24 101 -24q80 0 135 47q45 41 45 99q0 66 -56 108q-41 30 -166 75q-199 70 -291 151q-115 100 -115 276q0 195 133 307q124 106 319 106q188 0 310 -102q132 -113 150 -315h-284q-13 169 -178 169q-85 0 -129 -47
q-38 -41 -38 -96q0 -84 84 -130q43 -23 160 -66q147 -53 216 -98q177 -114 177 -318q0 -216 -168 -330q-124 -84 -302 -84q-204 0 -325 103q-139 116 -137 322zM401 1488l192 272h269l-283 -272h-178z" />
    <glyph glyph-name="sacute" unicode="&#x15b;" horiz-adv-x="859" 
d="M780 674h-246q1 7 1 17q0 30 -20 55q-35 42 -99 42q-48 0 -77 -24q-28 -24 -28 -62q0 -39 27 -60q29 -23 82 -40l78 -24q156 -48 218 -108q79 -76 79 -196q0 -150 -119 -237q-95 -70 -250 -70q-208 0 -309 128q-59 73 -63 183h250q17 -119 124 -119q46 0 73 24
q31 28 31 66q0 47 -49 78q-27 18 -127 48q-151 47 -220 116q-76 75 -76 188q0 154 125 237q98 64 242 64q202 0 300 -131q50 -68 53 -175zM309 1091l170 285h262l-271 -285h-161z" />
    <glyph glyph-name="Scircumflex" unicode="&#x15c;" horiz-adv-x="1067" 
d="M64 399h273q0 -54 13 -81q23 -45 73 -72q47 -24 101 -24q80 0 135 47q45 41 45 99q0 66 -56 108q-41 30 -166 75q-199 70 -291 151q-115 100 -115 276q0 195 133 307q124 106 319 106q188 0 310 -102q132 -113 150 -315h-284q-13 169 -178 169q-85 0 -129 -47
q-38 -41 -38 -96q0 -84 84 -130q43 -23 160 -66q147 -53 216 -98q177 -114 177 -318q0 -216 -168 -330q-124 -84 -302 -84q-204 0 -325 103q-139 116 -137 322zM696 1488l-158 139l-162 -139h-183l232 273h236l217 -273h-182z" />
    <glyph glyph-name="scircumflex" unicode="&#x15d;" horiz-adv-x="859" 
d="M780 674h-246q1 7 1 17q0 30 -20 55q-35 42 -99 42q-48 0 -77 -24q-28 -24 -28 -62q0 -39 27 -60q29 -23 82 -40l78 -24q156 -48 218 -108q79 -76 79 -196q0 -150 -119 -237q-95 -70 -250 -70q-208 0 -309 128q-59 73 -63 183h250q17 -119 124 -119q46 0 73 24
q31 28 31 66q0 47 -49 78q-27 18 -127 48q-151 47 -220 116q-76 75 -76 188q0 154 125 237q98 64 242 64q202 0 300 -131q50 -68 53 -175zM571 1091l-140 151l-143 -151h-182l209 285h241l197 -285h-182z" />
    <glyph glyph-name="Scedilla" unicode="&#x15e;" horiz-adv-x="1253" 
d="M654 -29l-55 -85q68 11 90 11q81 0 130 -38q55 -43 55 -114q0 -91 -85 -146q-61 -40 -163 -40q-126 0 -260 54l37 81q108 -44 193 -44q55 0 84 25q30 25 30 62q0 41 -38 64q-26 14 -63 14q-38 0 -95 -19l-48 42l90 136q-238 19 -367 135q-140 127 -142 349h285
q4 -73 17 -109q57 -162 290 -162q146 0 216 67q56 53 56 130q0 74 -56 112q-44 30 -276 95q-192 55 -268 87q-216 92 -216 317q0 200 170 310q139 89 347 89q298 0 438 -156q94 -104 98 -276h-270q-5 92 -54 143q-70 73 -221 73q-96 0 -161 -38q-73 -43 -73 -126
q0 -79 62 -114q48 -27 259 -81q250 -66 331 -113q172 -97 172 -301q0 -177 -117 -289q-144 -138 -422 -145z" />
    <glyph glyph-name="scedilla" unicode="&#x15f;" horiz-adv-x="1005" 
d="M526 -27l-53 -81q50 10 85 10q59 0 99 -22q74 -39 74 -119q0 -87 -79 -136q-62 -39 -153 -39q-120 0 -243 50l34 75q105 -41 183 -41q44 0 71 18q36 24 36 65q0 38 -31 60q-25 17 -63 17q-36 0 -90 -20l-45 38l84 127q-144 11 -246 74q-140 86 -152 283h247
q10 -192 217 -192q94 0 144 38q51 40 51 100q0 45 -29 71q-30 27 -74 40q-53 16 -136 33q-197 42 -277 86q-117 68 -117 212q0 149 125 227q107 66 304 66q252 0 362 -122q61 -67 69 -193h-237q-8 62 -31 94q-43 63 -167 63q-95 0 -140 -42q-30 -29 -30 -74q0 -39 23 -64
q26 -28 66 -38q60 -18 167 -39q172 -34 259 -83q117 -67 117 -220q0 -194 -203 -280q-86 -36 -221 -42z" />
    <glyph glyph-name="Scaron" unicode="&#x160;" horiz-adv-x="1067" 
d="M64 399h273q0 -54 13 -81q23 -45 73 -72q47 -24 101 -24q80 0 135 47q45 41 45 99q0 66 -56 108q-41 30 -166 75q-199 70 -291 151q-115 100 -115 276q0 195 133 307q124 106 319 106q188 0 310 -102q132 -113 150 -315h-284q-13 169 -178 169q-85 0 -129 -47
q-38 -41 -38 -96q0 -84 84 -130q43 -23 160 -66q147 -53 216 -98q177 -114 177 -318q0 -216 -168 -330q-124 -84 -302 -84q-204 0 -325 103q-139 116 -137 322zM375 1761l158 -139l163 139h182l-231 -273h-237l-217 273h182z" />
    <glyph glyph-name="scaron" unicode="&#x161;" horiz-adv-x="859" 
d="M780 674h-246q1 7 1 17q0 30 -20 55q-35 42 -99 42q-48 0 -77 -24q-28 -24 -28 -62q0 -39 27 -60q29 -23 82 -40l78 -24q156 -48 218 -108q79 -76 79 -196q0 -150 -119 -237q-95 -70 -250 -70q-208 0 -309 128q-59 73 -63 183h250q17 -119 124 -119q46 0 73 24
q31 28 31 66q0 47 -49 78q-27 18 -127 48q-151 47 -220 116q-76 75 -76 188q0 154 125 237q98 64 242 64q202 0 300 -131q50 -68 53 -175zM288 1376l140 -151l143 151h182l-209 -285h-241l-197 285h182z" />
    <glyph glyph-name="Tcommaaccent" unicode="&#x162;" horiz-adv-x="943" 
d="M937 1136h-325v-1136h-280v1136h-325v229h930v-229zM355 -87h231v-135q0 -146 -82 -201q-53 -35 -160 -42v85q62 4 100 27q34 21 39 86h-128v180z" />
    <glyph glyph-name="tcommaaccent" unicode="&#x163;" horiz-adv-x="581" 
d="M521 733h-119v-454q0 -36 17 -48q19 -13 57 -13h45v-218h-208q-91 0 -135 45q-37 38 -37 136v552h-108v219h108v254h261v-254h119v-219zM176 -118h224v-116q0 -82 -21 -129q-33 -70 -140 -97l-76 -16v86q16 6 76 20q49 12 57 90h-120v162z" />
    <glyph glyph-name="Tcaron" unicode="&#x164;" horiz-adv-x="943" 
d="M937 1136h-325v-1136h-280v1136h-325v229h930v-229zM311 1761l159 -139l162 139h183l-232 -273h-236l-217 273h181z" />
    <glyph glyph-name="tcaron" unicode="&#x165;" horiz-adv-x="1064" 
d="M521 733h-119v-454q0 -36 17 -48q19 -13 57 -13h45v-218h-208q-91 0 -135 45q-37 38 -37 136v552h-108v219h108v254h261v-254h119v-219zM772 1392l222 -60l-161 -426l-176 46z" />
    <glyph glyph-name="Tbar" unicode="&#x166;" horiz-adv-x="1149" 
d="M717 1125v-264h342v-196h-342v-665h-284v665h-342v196h342v264h-423v240h1129v-240h-422z" />
    <glyph glyph-name="tbar" unicode="&#x167;" horiz-adv-x="693" 
d="M450 821v-134h155v-155h-155v-189q0 -89 17 -117q27 -42 113 -42q27 0 80 5v-192q-85 -7 -158 -7q-120 0 -181 27q-90 39 -117 136q-13 43 -13 145v234h-130v155h130v134h-171v166h171v307h259v-307h210v-166h-210z" />
    <glyph glyph-name="utilde" unicode="&#x169;" horiz-adv-x="1054" 
d="M681 348v599h261v-599q0 -143 -47 -217q-55 -84 -161 -127q-90 -37 -206 -37q-203 0 -316 103q-101 92 -101 278v599h261v-582q0 -61 29 -111q39 -67 128 -67q81 0 125 60q27 38 27 101zM709 1346l167 -12q-54 -230 -212 -230q-58 0 -184 60q-31 16 -46 16q-42 0 -62 -72
l-167 14q52 226 213 226q61 0 185 -59q30 -14 47 -14q45 0 59 71z" />
    <glyph glyph-name="Umacron" unicode="&#x16a;" horiz-adv-x="1308" 
d="M121 1365h280v-800q0 -176 61 -249q69 -83 192 -83q87 0 155 50q67 50 86 139q11 52 11 144v799h282v-790q0 -204 -59 -328q-68 -143 -206 -213q-119 -60 -266 -60q-175 0 -311 84q-142 88 -192 240q-33 104 -33 277v790zM855 1574h-402v112h402v-112z" />
    <glyph glyph-name="umacron" unicode="&#x16b;" horiz-adv-x="1054" 
d="M681 348v599h261v-599q0 -143 -47 -217q-55 -84 -161 -127q-90 -37 -206 -37q-203 0 -316 103q-101 92 -101 278v599h261v-582q0 -61 29 -111q39 -67 128 -67q81 0 125 60q27 38 27 101zM713 1176h-372v114h372v-114z" />
    <glyph glyph-name="ubreve" unicode="&#x16d;" horiz-adv-x="1054" 
d="M681 348v599h261v-599q0 -143 -47 -217q-55 -84 -161 -127q-90 -37 -206 -37q-203 0 -316 103q-101 92 -101 278v599h261v-582q0 -61 29 -111q39 -67 128 -67q81 0 125 60q27 38 27 101zM564 1361h180q-4 -75 -29 -127q-29 -58 -81 -89q-49 -29 -107 -29q-87 0 -146 59
q-65 63 -72 186h180q10 -39 10 -73q-1 -58 27 -58q29 0 29 58q-1 33 9 73z" />
    <glyph glyph-name="Uring" unicode="&#x16e;" horiz-adv-x="1308" 
d="M121 1365h280v-800q0 -176 61 -249q69 -83 192 -83q87 0 155 50q67 50 86 139q11 52 11 144v799h282v-790q0 -204 -59 -328q-68 -143 -206 -213q-119 -60 -266 -60q-175 0 -311 84q-142 88 -192 240q-33 104 -33 277v790zM656 1821q80 0 139 -60q49 -50 49 -129
q0 -83 -64 -137q-55 -46 -126 -46q-84 0 -141 60q-49 50 -49 126q0 86 64 140q53 46 128 46zM655 1727q-45 0 -73 -33q-22 -25 -22 -59q0 -39 30 -67q25 -25 64 -25q43 0 72 32q22 26 22 58q0 41 -30 69q-25 25 -63 25z" />
    <glyph glyph-name="uring" unicode="&#x16f;" horiz-adv-x="1054" 
d="M681 348v599h261v-599q0 -143 -47 -217q-55 -84 -161 -127q-90 -37 -206 -37q-203 0 -316 103q-101 92 -101 278v599h261v-582q0 -61 29 -111q39 -67 128 -67q81 0 125 60q27 38 27 101zM529 1426q81 0 139 -60q49 -50 49 -129q0 -83 -64 -137q-55 -46 -126 -46
q-84 0 -141 60q-49 50 -49 126q0 86 64 140q53 46 128 46zM528 1332q-44 0 -73 -32q-22 -26 -22 -60q0 -38 30 -67q25 -25 64 -25q43 0 72 32q22 26 22 59q0 39 -30 68q-25 25 -63 25z" />
    <glyph glyph-name="Uhungarumlaut" unicode="&#x170;" horiz-adv-x="1308" 
d="M121 1365h280v-800q0 -176 61 -249q69 -83 192 -83q87 0 155 50q67 50 86 139q11 52 11 144v799h282v-790q0 -204 -59 -328q-68 -143 -206 -213q-119 -60 -266 -60q-175 0 -311 84q-142 88 -192 240q-33 104 -33 277v790zM367 1488l166 269h237l-248 -269h-155zM729 1488
l165 269h237l-248 -269h-154z" />
    <glyph glyph-name="uhungarumlaut" unicode="&#x171;" horiz-adv-x="1054" 
d="M681 348v599h261v-599q0 -143 -47 -217q-55 -84 -161 -127q-90 -37 -206 -37q-203 0 -316 103q-101 92 -101 278v599h261v-582q0 -61 29 -111q39 -67 128 -67q81 0 125 60q27 38 27 101zM259 1091l143 280h232l-235 -280h-140zM614 1091l143 280h232l-235 -280h-140z" />
    <glyph glyph-name="Uogonek" unicode="&#x172;" horiz-adv-x="1308" 
d="M823 -4q-136 -102 -136 -179q0 -26 20 -44q29 -25 82 -25q29 0 74 12l18 -149q-78 -23 -143 -23q-111 0 -175 52q-65 51 -65 124q0 117 118 211q-176 10 -307 108q-114 86 -155 215q-33 104 -33 277v790h280v-801q0 -175 61 -248q69 -84 192 -84q87 0 155 50
q67 50 86 139q11 52 11 145v799h282v-790q0 -235 -80 -369q-93 -154 -285 -210z" />
    <glyph glyph-name="uogonek" unicode="&#x173;" horiz-adv-x="1054" 
d="M705 -7q-48 -45 -61 -63q-29 -40 -29 -76q0 -68 89 -68q30 0 63 10l16 -121q-59 -18 -117 -18q-89 0 -143 39q-60 45 -60 117q0 78 76 154h-7h-9q-196 0 -311 103q-101 92 -101 277v600h261v-582q0 -61 29 -111q39 -67 128 -67q81 0 125 60q27 38 27 101v599h261v-600
q0 -144 -48 -216q-64 -99 -189 -138z" />
    <glyph glyph-name="Wcircumflex" unicode="&#x174;" horiz-adv-x="1755" 
d="M1019 1365l214 -877l226 877h292l-381 -1365h-281l-217 894l-214 -894h-282l-373 1365h297l220 -862l221 862h278zM1038 1488l-159 139l-162 -139h-182l231 273h237l217 -273h-182z" />
    <glyph glyph-name="Ycircumflex" unicode="&#x176;" horiz-adv-x="1141" 
d="M1164 1365l-449 -763v-602h-280v602l-457 763h333l265 -473l260 473h328zM731 1488l-158 139l-162 -139h-183l232 273h236l217 -273h-182z" />
    <glyph glyph-name="ycircumflex" unicode="&#x177;" horiz-adv-x="960" 
d="M274 947l192 -563l221 563h277l-534 -1380h-280l179 455l-332 925h277zM622 1091l-140 151l-143 -151h-182l209 285h241l197 -285h-182z" />
    <glyph glyph-name="Ydieresis" unicode="&#x178;" horiz-adv-x="1141" 
d="M1164 1365l-449 -763v-602h-280v602l-457 763h333l265 -473l260 473h328zM352 1781q62 0 102 -45q38 -41 38 -98q0 -63 -49 -105q-38 -34 -92 -34q-63 0 -104 45q-37 40 -37 96q0 64 49 107q37 34 93 34zM788 1781q62 0 102 -45q38 -41 38 -98q0 -62 -49 -105
q-38 -34 -92 -34q-63 0 -104 45q-37 40 -37 96q0 64 49 107q37 34 93 34z" />
    <glyph glyph-name="Zacute" unicode="&#x179;" horiz-adv-x="1128" 
d="M1103 1365l-636 -1136h575v-229h-1015l637 1136h-565v229h1004zM428 1488l193 272h269l-284 -272h-178z" />
    <glyph glyph-name="zacute" unicode="&#x17a;" horiz-adv-x="862" 
d="M836 947l-396 -728h367v-219h-776l398 728h-361v219h768zM310 1091l170 285h262l-271 -285h-161z" />
    <glyph glyph-name="Zdotaccent" unicode="&#x17b;" horiz-adv-x="1128" 
d="M1103 1365l-636 -1136h575v-229h-1015l637 1136h-565v229h1004zM562 1781q62 0 102 -45q38 -41 38 -98q0 -62 -49 -105q-37 -34 -92 -34q-63 0 -104 45q-37 40 -37 96q0 64 49 107q37 34 93 34z" />
    <glyph glyph-name="zdotaccent" unicode="&#x17c;" horiz-adv-x="862" 
d="M836 947l-396 -728h367v-219h-776l398 728h-361v219h768zM430 1378q62 0 102 -45q35 -38 35 -95q0 -61 -46 -101q-38 -34 -92 -34q-61 0 -102 45q-35 38 -35 92q0 64 45 104q38 34 93 34z" />
    <glyph glyph-name="Zcaron" unicode="&#x17d;" horiz-adv-x="1128" 
d="M1103 1365l-636 -1136h575v-229h-1015l637 1136h-565v229h1004zM403 1761l158 -139l162 139h183l-232 -273h-236l-217 273h182z" />
    <glyph glyph-name="zcaron" unicode="&#x17e;" horiz-adv-x="862" 
d="M836 947l-396 -728h367v-219h-776l398 728h-361v219h768zM289 1376l140 -151l143 151h182l-209 -285h-241l-197 285h182z" />
    <glyph glyph-name="florin" unicode="&#x192;" 
d="M297 113l125 709h-105l22 125h105l33 183q64 367 411 367q21 0 37 -1l-43 -240q-59 -8 -89 -27q-42 -28 -56 -99l-32 -183h123l-22 -125h-123l-125 -708q-40 -231 -190 -325q-92 -59 -264 -62l43 243q127 15 150 143z" />
    <glyph glyph-name="uni01CD" unicode="&#x1cd;" horiz-adv-x="1295" 
d="M983 0l-76 236h-526l-81 -236h-297l472 1365h350l466 -1365h-308zM453 466h380l-189 565zM486 1761l159 -139l162 139h183l-232 -273h-236l-217 273h181z" />
    <glyph glyph-name="uni01CE" unicode="&#x1ce;" horiz-adv-x="1244" 
d="M854 827v120h261v-947h-261v130q-129 -163 -329 -163q-217 0 -349 161q-109 133 -109 334q0 150 69 278q58 108 165 173q108 66 243 66q111 0 200 -53q54 -32 110 -99zM598 759q-123 0 -192 -95q-61 -85 -61 -198q0 -135 83 -218q71 -71 168 -71q118 0 195 98
q67 85 67 199q0 113 -60 191q-73 94 -200 94zM481 1376l140 -151l143 151h182l-209 -285h-241l-197 285h182z" />
    <glyph glyph-name="uni01D3" unicode="&#x1d3;" horiz-adv-x="1308" 
d="M121 1365h280v-800q0 -176 61 -249q69 -83 192 -83q87 0 155 50q67 50 86 139q11 52 11 144v799h282v-790q0 -204 -59 -328q-68 -143 -206 -213q-119 -60 -266 -60q-175 0 -311 84q-142 88 -192 240q-33 104 -33 277v790zM494 1761l158 -139l162 139h183l-232 -273h-236
l-217 273h182z" />
    <glyph glyph-name="Gcaron" unicode="&#x1e6;" horiz-adv-x="1541" 
d="M796 537v229h683q1 -25 1 -74q0 -306 -199 -506q-209 -212 -503 -212q-186 0 -345 87q-165 88 -258 245q-99 165 -99 375q0 305 203 511q196 199 496 199q210 0 389 -113q93 -60 165 -149l-212 -166q-56 68 -104 100q-102 69 -232 69q-140 0 -247 -80q-90 -67 -138 -185
q-36 -90 -36 -188q0 -211 148 -343q122 -108 281 -108q124 0 228 70q93 61 135 164q10 26 24 75h-380zM609 1761l159 -139l162 139h183l-232 -273h-236l-217 273h181z" />
    <glyph glyph-name="gcaron" unicode="&#x1e7;" horiz-adv-x="1206" 
d="M821 830v117h256v-878q0 -197 -55 -300q-64 -120 -198 -183q-117 -55 -266 -55q-275 0 -466 188l161 164q121 -132 294 -132q134 0 206 77q68 74 68 204v97q-128 -162 -334 -162q-122 0 -226 64q-223 135 -223 436q0 146 63 272q59 119 168 180q106 61 245 61
q102 0 184 -43q65 -34 123 -107zM569 748q-128 0 -201 -97q-53 -71 -53 -173q0 -134 84 -213q71 -66 171 -66q121 0 196 87q50 58 50 169q0 149 -70 219q-74 74 -177 74zM462 1376l140 -151l143 151h182l-209 -285h-241l-197 285h182z" />
    <glyph glyph-name="uni01F4" unicode="&#x1f4;" horiz-adv-x="1541" 
d="M796 537v229h683q1 -25 1 -74q0 -306 -199 -506q-209 -212 -503 -212q-186 0 -345 87q-165 88 -258 245q-99 165 -99 375q0 305 203 511q196 199 496 199q210 0 389 -113q93 -60 165 -149l-212 -166q-56 68 -104 100q-102 69 -232 69q-140 0 -247 -80q-90 -67 -138 -185
q-36 -90 -36 -188q0 -211 148 -343q122 -108 281 -108q124 0 228 70q93 61 135 164q10 26 24 75h-380zM635 1488l193 272h269l-284 -272h-178z" />
    <glyph glyph-name="scommaaccent" unicode="&#x219;" horiz-adv-x="859" 
d="M780 674h-246q1 7 1 17q0 30 -20 55q-35 42 -99 42q-48 0 -77 -24q-28 -24 -28 -62q0 -39 27 -60q29 -23 82 -40l78 -24q156 -48 218 -108q79 -76 79 -196q0 -150 -119 -237q-95 -70 -250 -70q-208 0 -309 128q-59 73 -63 183h250q17 -119 124 -119q46 0 73 24
q31 28 31 66q0 47 -49 78q-27 18 -127 48q-151 47 -220 116q-76 75 -76 188q0 154 125 237q98 64 242 64q202 0 300 -131q50 -68 53 -175zM316 -118h224v-116q0 -82 -21 -129q-33 -68 -140 -97q-21 -6 -77 -16v86q21 7 77 20q49 12 57 90h-120v162z" />
    <glyph glyph-name="uni021A" unicode="&#x21a;" horiz-adv-x="943" 
d="M937 1136h-325v-1136h-280v1136h-325v229h930v-229zM355 -87h231v-135q0 -146 -82 -201q-53 -35 -160 -42v85q62 4 100 27q34 21 39 86h-128v180z" />
    <glyph glyph-name="uni021B" unicode="&#x21b;" horiz-adv-x="581" 
d="M521 733h-119v-454q0 -36 17 -48q19 -13 57 -13h45v-218h-208q-91 0 -135 45q-37 38 -37 136v552h-108v219h108v254h261v-254h119v-219zM176 -118h224v-116q0 -82 -21 -129q-33 -70 -140 -97l-76 -16v86q16 6 76 20q49 12 57 90h-120v162z" />
    <glyph glyph-name="Adotaccent" unicode="&#x226;" horiz-adv-x="1295" 
d="M983 0l-76 236h-526l-81 -236h-297l472 1365h350l466 -1365h-308zM453 466h380l-189 565zM646 1781q62 0 102 -45q38 -41 38 -98q0 -62 -49 -105q-37 -34 -92 -34q-63 0 -103 45q-38 41 -38 96q0 64 49 107q37 34 93 34z" />
    <glyph glyph-name="adotaccent" unicode="&#x227;" horiz-adv-x="1244" 
d="M854 827v120h261v-947h-261v130q-129 -163 -329 -163q-217 0 -349 161q-109 133 -109 334q0 150 69 278q58 108 165 173q108 66 243 66q111 0 200 -53q54 -32 110 -99zM598 759q-123 0 -192 -95q-61 -85 -61 -198q0 -135 83 -218q71 -71 168 -71q118 0 195 98
q67 85 67 199q0 113 -60 191q-73 94 -200 94zM623 1378q61 0 101 -45q35 -38 35 -95q0 -61 -46 -101q-38 -34 -91 -34q-62 0 -103 45q-35 38 -35 92q0 64 46 104q37 34 93 34z" />
    <glyph glyph-name="dotlessj" unicode="&#x237;" horiz-adv-x="519" 
d="M129 947h261v-979q0 -210 -90 -304q-98 -102 -280 -102q-21 0 -69 3v238q14 -1 39 -1q68 0 102 42q37 44 37 124v979z" />
    <glyph glyph-name="afii57929" unicode="&#x2bc;" horiz-adv-x="483" 
d="M192 1392l222 -60l-162 -426l-175 46z" />
    <glyph glyph-name="circumflex" unicode="&#x2c6;" 
d="M653 1091l-139 151l-143 -151h-182l209 285h241l197 -285h-183z" />
    <glyph glyph-name="caron" unicode="&#x2c7;" 
d="M371 1376l140 -151l143 151h182l-209 -285h-241l-197 285h182z" />
    <glyph glyph-name="uni02C9" unicode="&#x2c9;" 
d="M698 1176h-372v114h372v-114z" />
    <glyph glyph-name="breve" unicode="&#x2d8;" 
d="M550 1361h180q-4 -76 -30 -127q-27 -57 -80 -89q-49 -29 -108 -29q-86 0 -145 59q-65 63 -72 186h180q10 -40 9 -73q0 -58 27 -58q30 0 29 58q0 34 10 73z" />
    <glyph glyph-name="dotaccent" unicode="&#x2d9;" 
d="M512 1378q60 0 101 -45q35 -38 35 -95q0 -61 -46 -101q-38 -34 -91 -34q-63 0 -103 45q-35 38 -35 92q0 64 46 104q37 34 93 34z" />
    <glyph glyph-name="ring" unicode="&#x2da;" 
d="M514 1426q80 0 139 -60q49 -50 49 -129q0 -83 -64 -137q-55 -46 -126 -46q-84 0 -141 60q-49 50 -49 126q0 86 64 140q53 46 128 46zM513 1332q-46 0 -73 -32q-22 -26 -22 -60q0 -38 30 -67q25 -25 64 -25q43 0 72 32q22 26 22 59q0 39 -30 68q-25 25 -63 25z" />
    <glyph glyph-name="ogonek" unicode="&#x2db;" 
d="M469 0h132q-8 -8 -11 -10q-55 -54 -69 -77q-17 -29 -17 -59q0 -68 90 -68q27 0 63 11l16 -122q-59 -18 -117 -18q-90 0 -143 39q-61 45 -61 117q0 105 117 187z" />
    <glyph glyph-name="tilde" unicode="&#x2dc;" 
d="M694 1346l168 -12q-56 -230 -212 -230q-58 0 -184 60q-31 16 -47 16q-42 0 -61 -72l-168 14q52 226 214 226q61 0 185 -59q30 -14 47 -14q44 0 58 71z" />
    <glyph glyph-name="hungarumlaut" unicode="&#x2dd;" 
d="M245 1091l143 280h231l-234 -280h-140zM600 1091l143 280h231l-234 -280h-140z" />
    <glyph glyph-name="uni0387" unicode="&#x387;" horiz-adv-x="534" 
d="M268 656q67 0 110 -46q40 -43 40 -108q0 -69 -52 -114q-40 -34 -99 -34q-69 0 -111 46q-40 43 -40 105q0 72 52 117q38 34 100 34z" />
    <glyph glyph-name="Fdotaccent" unicode="&#x1e1e;" horiz-adv-x="957" 
d="M903 1136h-480v-336h480v-229h-480v-571h-280v1365h760v-229zM478 1781q62 0 102 -45q38 -41 38 -98q0 -62 -49 -105q-37 -34 -92 -34q-63 0 -103 45q-38 41 -38 96q0 64 49 107q37 34 93 34z" />
    <glyph glyph-name="Wacute" unicode="&#x1e82;" horiz-adv-x="570" 
d="M58 614h454v-230h-454v230z" />
    <glyph glyph-name="Wdieresis" unicode="&#x1e84;" horiz-adv-x="1755" 
d="M1019 1365l214 -877l226 877h292l-381 -1365h-281l-217 894l-214 -894h-282l-373 1365h297l220 -862l221 862h278zM658 1781q62 0 102 -45q38 -41 38 -98q0 -62 -49 -105q-37 -34 -92 -34q-63 0 -103 45q-38 41 -38 96q0 64 49 107q37 34 93 34zM1094 1781q62 0 102 -45
q38 -41 38 -98q0 -62 -49 -105q-37 -34 -92 -34q-63 0 -103 45q-38 41 -38 96q0 64 49 107q37 34 93 34z" />
    <glyph glyph-name="uni2006" unicode="&#x2006;" horiz-adv-x="137" 
 />
    <glyph glyph-name="uni2007" unicode="&#x2007;" horiz-adv-x="1139" 
 />
    <glyph glyph-name="uni2011" unicode="&#x2011;" horiz-adv-x="454" 
d="M0 614h454v-230h-454v230z" />
    <glyph glyph-name="figuredash" unicode="&#x2012;" 
d="M95 598h833v-219h-833v219z" />
    <glyph glyph-name="endash" unicode="&#x2013;" 
d="M95 598h833v-219h-833v219z" />
    <glyph glyph-name="emdash" unicode="&#x2014;" horiz-adv-x="1369" 
d="M0 599h1369v-199h-1369v199z" />
    <glyph glyph-name="afii00208" unicode="&#x2015;" horiz-adv-x="1369" 
d="M0 599h1369v-199h-1369v199z" />
    <glyph glyph-name="underscoredbl" unicode="&#x2017;" 
d="M0 -227v119h1024v-119h-1024zM0 -467v119h1024v-119h-1024z" />
    <glyph glyph-name="quoteleft" unicode="&#x2018;" horiz-adv-x="483" 
d="M291 906l-222 60l162 426l175 -46z" />
    <glyph glyph-name="quoteright" unicode="&#x2019;" horiz-adv-x="483" 
d="M192 1392l222 -60l-162 -426l-175 46z" />
    <glyph glyph-name="quotesinglbase" unicode="&#x201a;" horiz-adv-x="498" 
d="M196 279l232 -64l-169 -454l-182 47z" />
    <glyph glyph-name="quotedblleft" unicode="&#x201c;" horiz-adv-x="889" 
d="M691 857l-234 63l175 472l181 -47zM302 857l-233 63l174 472l182 -47z" />
    <glyph glyph-name="quotedblright" unicode="&#x201d;" horiz-adv-x="889" 
d="M199 1392l233 -63l-174 -472l-182 47zM587 1392l233 -63l-174 -472l-182 47z" />
    <glyph glyph-name="quotedblbase" unicode="&#x201e;" horiz-adv-x="889" 
d="M199 279l233 -63l-174 -472l-182 47zM587 279l233 -63l-174 -472l-182 47z" />
    <glyph glyph-name="dagger" unicode="&#x2020;" 
d="M402 1017v348h220v-348h301v-187h-301v-1229h-220v1229h-300v187h300z" />
    <glyph glyph-name="daggerdbl" unicode="&#x2021;" 
d="M402 1007v358h220v-358h301v-187h-301v-658h301v-187h-301v-374h-220v374h-300v187h300v658h-300v187h300z" />
    <glyph glyph-name="bullet" unicode="&#x2022;" horiz-adv-x="1365" 
d="M689 978q113 0 196 -83q84 -83 84 -201t-83 -201t-201 -83q-117 0 -199 82q-85 84 -85 202q0 121 84 202q85 82 204 82z" />
    <glyph glyph-name="ellipsis" unicode="&#x2026;" horiz-adv-x="1601" 
d="M268 276q67 0 110 -46q40 -43 40 -108q0 -69 -52 -114q-40 -34 -99 -34q-69 0 -111 46q-40 43 -40 105q0 72 52 117q38 34 100 34zM802 276q67 0 110 -46q40 -43 40 -108q0 -69 -52 -114q-40 -34 -99 -34q-69 0 -111 46q-40 43 -40 105q0 72 52 117q38 34 100 34z
M1335 276q67 0 110 -46q40 -43 40 -108q0 -69 -52 -114q-40 -34 -99 -34q-69 0 -111 46q-40 43 -40 105q0 72 52 117q38 34 100 34z" />
    <glyph glyph-name="perthousand" unicode="&#x2030;" horiz-adv-x="2076" 
d="M587 1120v-218q0 -124 -65 -189q-64 -66 -186 -66q-128 0 -195 67q-39 38 -49 94q-10 50 -10 125v175q0 145 57 205q67 72 192 72q110 0 183 -62q48 -42 61 -93q12 -43 12 -110zM243 1108v-185q0 -73 12 -95q23 -38 80 -38q58 0 79 41q14 26 14 96v186q0 71 -21 98
q-22 28 -70 28q-59 0 -78 -34q-16 -25 -16 -97zM1349 452v-218q0 -125 -64 -189q-66 -66 -186 -66q-128 0 -195 67q-39 39 -49 94q-10 50 -10 125v175q0 145 57 205q68 72 192 72q111 0 182 -62q48 -42 61 -93q12 -44 12 -110zM1006 440v-185q0 -73 13 -95q21 -38 79 -38
t79 41q14 26 14 96v186q0 69 -21 98q-22 28 -70 28q-58 0 -79 -33q-15 -26 -15 -98zM1124 1389l82 -52l-900 -1361l-82 53zM1993 452v-218q0 -124 -65 -189q-66 -66 -186 -66q-127 0 -194 67q-38 39 -49 94q-10 50 -10 125v175q0 145 57 205q68 72 192 72q111 0 182 -62
q48 -42 61 -93q12 -44 12 -110zM1650 440v-185q0 -73 13 -95q23 -38 78 -38q58 0 79 41q14 26 14 96v186q0 71 -21 98q-22 28 -70 28q-57 0 -78 -33q-15 -26 -15 -98z" />
    <glyph glyph-name="guilsinglleft" unicode="&#x2039;" horiz-adv-x="528" 
d="M439 833l-197 -345l197 -334h-169l-195 334l195 345h169z" />
    <glyph glyph-name="guilsinglright" unicode="&#x203a;" horiz-adv-x="528" 
d="M88 154l197 345l-197 334h169l195 -334l-195 -345h-169z" />
    <glyph glyph-name="exclamdbl" unicode="&#x203c;" horiz-adv-x="914" 
d="M82 1365h277v-362l-73 -582h-132l-72 578v366zM77 302h288v-302h-288v302zM554 1365h277v-362l-73 -582h-132l-72 578v366zM548 302h288v-302h-288v302z" />
    <glyph glyph-name="uni203E" unicode="&#x203e;" 
d="M0 1619v168h1024v-168h-1024z" />
    <glyph glyph-name="fraction" unicode="&#x2044;" horiz-adv-x="259" 
d="M538 1386l82 -52l-901 -1361l-81 53z" />
    <glyph glyph-name="zerosuperior" unicode="&#x2070;" horiz-adv-x="677" 
d="M614 1107v-312q0 -136 -73 -202t-201 -66q-138 0 -211 70q-42 39 -54 94q-12 57 -12 140v257q0 147 60 210q74 77 212 77q123 0 199 -64q51 -43 67 -97q13 -42 13 -107zM243 1087v-274q0 -72 16 -94q27 -35 81 -35t80 38q17 26 17 92v281q0 67 -24 94q-26 27 -73 27
q-58 0 -80 -36q-17 -26 -17 -93z" />
    <glyph glyph-name="foursuperior" unicode="&#x2074;" horiz-adv-x="677" 
d="M370 544v164h-315v138l307 513h181v-504h78v-147h-78v-164h-173zM205 850h173v301z" />
    <glyph glyph-name="fivesuperior" unicode="&#x2075;" horiz-adv-x="677" 
d="M551 1205h-287v-155q47 18 100 18q106 0 179 -72q75 -74 75 -187q0 -142 -104 -222q-77 -59 -185 -59q-121 0 -202 75q-43 41 -75 120l157 56q35 -90 116 -90q51 0 84 35q33 34 33 81t-32 81q-34 36 -87 36q-61 0 -108 -57h-116v494h452v-154z" />
    <glyph glyph-name="sixsuperior" unicode="&#x2076;" horiz-adv-x="677" 
d="M363 1359h205l-217 -314q22 2 30 2q78 0 140 -43q103 -72 103 -202q0 -122 -96 -204q-83 -71 -196 -71q-132 0 -215 92q-65 74 -65 174q0 104 95 246zM341 905q-55 0 -90 -38q-28 -29 -28 -71q0 -50 36 -81q31 -28 78 -28q58 0 91 41q26 32 26 68q0 45 -32 77t-81 32z
" />
    <glyph glyph-name="sevensuperior" unicode="&#x2077;" horiz-adv-x="677" 
d="M95 544l279 661h-273v154h524l-343 -815h-187z" />
    <glyph glyph-name="eightsuperior" unicode="&#x2078;" horiz-adv-x="677" 
d="M511 973q113 -56 113 -190q0 -117 -89 -191q-79 -65 -198 -65q-140 0 -221 85q-62 65 -62 162q0 145 117 199q-33 16 -56 50q-35 52 -35 116q0 112 85 179q72 57 179 57q121 0 193 -72q66 -65 66 -160q0 -66 -38 -121q-24 -33 -54 -49zM343 1228q-49 0 -78 -32
q-21 -26 -21 -58q0 -42 31 -69q28 -25 67 -25q45 0 77 35q24 25 24 57q0 38 -33 68q-27 24 -67 24zM340 891q-52 0 -85 -35q-28 -28 -28 -70q0 -48 34 -76q31 -28 78 -28q52 0 83 34q28 29 28 70q0 44 -35 76q-32 29 -75 29z" />
    <glyph glyph-name="ninesuperior" unicode="&#x2079;" horiz-adv-x="677" 
d="M116 544l215 314q-14 -3 -23 -3q-91 0 -161 53q-95 72 -95 195q0 118 87 196q83 76 204 76q135 0 218 -93q64 -71 64 -175q0 -105 -93 -245l-213 -318h-203zM342 1217q-54 0 -88 -36q-29 -32 -29 -72q0 -49 38 -82q31 -26 75 -26q58 0 92 40q24 29 24 67q0 47 -35 79
q-31 30 -77 30z" />
    <glyph glyph-name="zeroinferior" unicode="&#x2080;" horiz-adv-x="677" 
d="M614 564v-313q0 -137 -73 -201q-73 -66 -201 -66q-138 0 -211 70q-42 39 -54 93q-12 57 -12 141v257q0 147 60 210q74 77 212 77q122 0 199 -65q51 -42 67 -96q13 -42 13 -107zM243 544v-274q0 -74 16 -94q27 -35 81 -35t80 38q17 26 17 92v281q0 67 -24 94
q-26 27 -73 27q-58 0 -80 -36q-17 -26 -17 -93z" />
    <glyph glyph-name="oneinferior" unicode="&#x2081;" horiz-adv-x="677" 
d="M311 0v595l-155 -77v158l335 165v-841h-180z" />
    <glyph glyph-name="twoinferior" unicode="&#x2082;" horiz-adv-x="677" 
d="M497 360l-151 -209h235v-151h-542l307 440q44 62 60 93q17 34 17 61q0 37 -26 60t-68 23q-68 0 -90 -52q-9 -23 -11 -82h-166q0 70 13 109q25 84 93 132q69 48 171 48q131 0 207 -78q58 -58 58 -144q0 -61 -26 -118q-30 -62 -81 -132z" />
    <glyph glyph-name="threeinferior" unicode="&#x2083;" horiz-adv-x="677" 
d="M133 429l190 239h-238v147h543l-238 -302q74 -7 133 -52q90 -72 90 -197q0 -129 -94 -210q-79 -70 -199 -70q-157 0 -233 109q-36 51 -46 139l162 6q7 -40 27 -63q33 -37 85 -37q57 0 94 39q31 30 31 77t-32 81q-35 35 -94 35q-41 0 -78 -23z" />
    <glyph glyph-name="fourinferior" unicode="&#x2084;" horiz-adv-x="677" 
d="M370 0v165h-315v138l307 513h181v-504h78v-147h-78v-165h-173zM205 307h173v301z" />
    <glyph glyph-name="fiveinferior" unicode="&#x2085;" horiz-adv-x="677" 
d="M551 661h-287v-155q47 19 99 19q107 0 180 -72q75 -74 75 -187q0 -142 -103 -223q-77 -59 -186 -59q-121 0 -202 75q-44 41 -75 121l157 55q35 -90 116 -90q51 0 84 35q33 34 33 82q0 47 -32 81q-34 36 -87 36q-61 0 -108 -57h-116v493h452v-154z" />
    <glyph glyph-name="sixinferior" unicode="&#x2086;" horiz-adv-x="677" 
d="M363 815h205l-217 -314q22 2 29 2q80 0 141 -43q103 -72 103 -201q0 -121 -96 -204q-83 -71 -196 -71q-132 0 -215 92q-65 74 -65 174q0 103 95 245zM341 361q-54 0 -90 -37q-28 -31 -28 -72q0 -48 36 -81q31 -27 78 -27q58 0 91 40q26 32 26 69q0 44 -32 76
q-34 32 -81 32z" />
    <glyph glyph-name="seveninferior" unicode="&#x2087;" horiz-adv-x="677" 
d="M95 0l279 661h-273v154h524l-343 -815h-187z" />
    <glyph glyph-name="eightinferior" unicode="&#x2088;" horiz-adv-x="677" 
d="M511 429q113 -54 113 -189q0 -117 -89 -191q-79 -65 -199 -65q-139 0 -220 84q-62 65 -62 163q0 145 117 198q-33 17 -56 51q-35 52 -35 116q0 112 85 179q72 57 179 57q121 0 193 -72q66 -64 66 -160q0 -66 -38 -121q-21 -30 -54 -50zM343 685q-49 0 -78 -32
q-21 -25 -21 -58q0 -42 31 -69q28 -25 67 -25q45 0 77 35q24 26 24 58q0 37 -33 67q-27 24 -67 24zM340 348q-52 0 -85 -35q-28 -28 -28 -70q0 -47 34 -77q31 -27 78 -27q52 0 83 34q28 29 28 70q0 44 -35 76q-32 29 -75 29z" />
    <glyph glyph-name="nineinferior" unicode="&#x2089;" horiz-adv-x="677" 
d="M116 0l215 314q-18 -2 -23 -2q-91 0 -161 53q-95 72 -95 195q0 118 86 196q85 76 205 76q135 0 218 -93q64 -71 64 -175q0 -107 -93 -245l-213 -319h-203zM342 674q-54 0 -88 -37q-29 -31 -29 -71q0 -49 38 -82q31 -26 75 -26q58 0 92 40q24 28 24 67q0 47 -35 79
q-31 30 -77 30z" />
    <glyph glyph-name="franc" unicode="&#x20a3;" horiz-adv-x="1434" 
d="M423 800h458v147h261v-138q33 90 83 125q64 46 153 46q16 0 31 -1v-266q-35 3 -54 3q-115 0 -175 -86q-27 -41 -33 -85q-5 -42 -5 -88v-457h-261v571h-458v-571h-280v1365h760v-229h-480v-336z" />
    <glyph glyph-name="lira" unicode="&#x20a4;" horiz-adv-x="1287" 
d="M552 780h247v-91h-199q7 -14 8 -18q25 -55 35 -110h158v-91h-178q-13 -58 -21 -78q-32 -75 -137 -150l35 14q75 31 141 31q47 0 101 -16q26 -7 134 -44q28 -9 66 -9q109 0 208 116l99 -230q-149 -138 -306 -138q-52 0 -98 11q-49 13 -148 50q-117 44 -176 44
q-93 0 -203 -83l-141 208q159 101 186 274h-210v91h203l-9 24q-20 53 -54 104h-140v91h85q-54 106 -54 185q0 96 55 187q137 225 474 225q314 0 445 -194q69 -102 79 -306h-262q-6 136 -59 198q-64 76 -191 76q-115 0 -183 -60q-61 -54 -61 -134q0 -52 26 -101q7 -15 45 -76
z" />
    <glyph glyph-name="peseta" unicode="&#x20a7;" horiz-adv-x="1887" 
d="M1045 725h154v-150h74v-143h-74v-261q0 -29 38 -29h36v-142h-138q-59 0 -88 28q-26 26 -26 86v318h-67v143h67v102q-126 -208 -423 -208h-175v-469h-280v1365h436q246 0 377 -116q129 -114 129 -322q0 -103 -40 -202zM423 1133v-433h120q82 0 136 24q122 54 122 192
q0 130 -109 187q-58 30 -141 30h-128zM1829 397h-169q1 7 1 16q0 17 -10 28q-18 23 -56 23q-57 0 -57 -44q0 -35 62 -52q127 -37 166 -64q72 -48 72 -136q0 -93 -79 -145q-62 -42 -160 -42q-130 0 -195 77q-39 46 -42 119h171q9 -69 69 -69q28 0 41 13q16 13 16 33
q0 23 -26 40q-16 10 -77 28q-190 54 -190 185q0 95 82 146q64 38 154 38q129 0 192 -79q33 -42 35 -115z" />
    <glyph glyph-name="Euro" unicode="&#x20ac;" 
d="M86 811h63q17 118 55 215q65 164 193 268q121 98 278 98q197 0 345 -145l-116 -267q-32 56 -75 93q-66 60 -146 60q-121 0 -198 -152q-34 -67 -50 -170h376l-85 -262h-287q23 -114 66 -183q86 -134 203 -134q119 0 211 108q21 27 35 49v-340q-127 -76 -258 -76
q-224 0 -388 197q-127 155 -158 379h-150z" />
    <glyph glyph-name="uni2101" unicode="&#x2101;" horiz-adv-x="1922" 
d="M651 546l-47 139h-314l-49 -139h-202l297 819h230l294 -819h-209zM340 834h214l-107 303zM1498 1386l83 -52l-901 -1361l-82 53zM1270 225v24h186v-16q0 -31 17 -51q32 -38 91 -38q46 0 78 26q25 22 25 53q0 36 -31 58q-25 19 -101 44q-125 42 -183 90q-75 61 -75 169
q0 118 86 187q79 64 202 64q173 0 252 -121q35 -55 43 -139h-193q-7 100 -103 100q-48 0 -74 -26q-21 -23 -21 -52q0 -44 47 -70q26 -13 99 -39q124 -42 179 -91q70 -63 70 -161q0 -133 -109 -202q-79 -50 -191 -50q-146 0 -226 80q-67 68 -68 161z" />
    <glyph glyph-name="afii61248" unicode="&#x2105;" horiz-adv-x="844" 
d="M424 865q51 0 88 -37q37 -36 37 -89t-37 -90t-89 -37q-53 0 -90 37t-37 89q0 54 37 90q37 37 91 37z" />
    <glyph glyph-name="afii61289" unicode="&#x2113;" 
d="M520 531q-49 -276 -49 -375q0 -51 30 -51q19 0 39 23q12 15 41 71q21 43 48 43q39 0 39 -45q0 -59 -53 -136q-73 -105 -171 -105q-106 0 -150 104q-23 55 -23 167q0 59 3 120q-67 -79 -91 -79q-11 0 -23 17q-12 18 -12 42q0 22 17 45l65 73q12 13 60 74q64 364 160 596
q107 257 272 257q86 0 129 -64q37 -53 37 -131q0 -98 -56 -230q-63 -148 -199 -296q-35 -38 -113 -120zM541 677q102 114 165 255q66 146 66 234q0 44 -24 62q-7 7 -21 7q-50 0 -82 -86q-51 -143 -104 -472z" />
    <glyph glyph-name="uni2117" unicode="&#x2117;" horiz-adv-x="357" 
d="M90 1119h178v-573h-178v573zM177 1370q42 0 68 -29t26 -68q0 -43 -33 -71q-25 -22 -62 -22q-43 0 -69 29q-26 28 -26 66q0 45 33 73q25 22 63 22z" />
    <glyph glyph-name="trademark" unicode="&#x2122;" horiz-adv-x="1744" 
d="M609 1216h-201v-670h-190v670h-202v149h593v-149zM1184 511l-268 511v-476h-190v819h210l248 -478l249 478h210v-819h-190v476z" />
    <glyph glyph-name="uni2126" unicode="&#x2126;" horiz-adv-x="1364" 
d="M605 0h-548v233h303q-124 75 -196 167q-113 146 -113 354q0 286 209 480q177 165 423 165t423 -165q209 -194 209 -480q0 -221 -131 -376q-63 -74 -178 -145h303v-233h-548v215q110 58 175 150q107 152 107 339q0 205 -118 341q-102 118 -241 118q-140 0 -243 -118
q-118 -136 -118 -338q0 -343 282 -492v-215z" />
    <glyph glyph-name="onethird" unicode="&#x2153;" horiz-adv-x="1613" 
d="M311 544v594l-155 -77v159l335 164v-840h-180zM1215 1386l83 -52l-901 -1361l-82 53zM1070 429l190 239h-239v147h543l-237 -302q75 -7 132 -52q90 -72 90 -197q0 -129 -94 -210q-79 -70 -198 -70q-157 0 -233 109q-35 50 -47 139l163 6q16 -100 111 -100q57 0 95 39
q30 31 30 77q0 47 -32 81q-35 35 -93 35q-42 0 -79 -23z" />
    <glyph glyph-name="twothirds" unicode="&#x2154;" horiz-adv-x="1613" 
d="M497 903l-151 -209h235v-151h-542l307 440q49 71 62 97q15 32 15 57q0 37 -26 60q-28 23 -68 23q-68 0 -90 -52q-9 -23 -11 -82h-166q0 70 13 109q25 84 93 132q70 48 172 48q129 0 206 -78q58 -58 58 -144q0 -61 -26 -118q-30 -61 -81 -132zM1216 1386l82 -52
l-901 -1361l-81 53zM1070 429l190 239h-239v147h543l-237 -302q75 -7 132 -52q90 -72 90 -197q0 -129 -94 -210q-79 -70 -198 -70q-157 0 -233 109q-35 50 -47 139l163 6q6 -40 27 -63q31 -37 84 -37q57 0 95 39q30 30 30 77t-32 81q-35 35 -93 35q-42 0 -79 -23z" />
    <glyph glyph-name="onefifth" unicode="&#x2155;" horiz-adv-x="1613" 
d="M311 544v594l-155 -77v159l335 164v-840h-180zM1215 1386l83 -52l-901 -1361l-82 53zM1487 661h-287v-155q48 19 99 19q107 0 180 -72q75 -74 75 -187q0 -144 -103 -223q-77 -59 -186 -59q-121 0 -201 75q-43 40 -76 121l157 55q35 -90 116 -90q50 0 85 35q32 35 32 82
q0 49 -31 81q-35 36 -88 36q-61 0 -108 -57h-116v493h452v-154z" />
    <glyph glyph-name="twofifth" unicode="&#x2156;" horiz-adv-x="1613" 
d="M497 903l-151 -209h235v-151h-542l307 440q49 71 62 97q15 32 15 57q0 37 -26 60q-28 23 -68 23q-68 0 -90 -52q-9 -23 -11 -82h-166q0 70 13 109q25 84 93 132q70 48 172 48q129 0 206 -78q58 -58 58 -144q0 -61 -26 -118q-30 -61 -81 -132zM1216 1386l82 -52
l-901 -1361l-81 53zM1488 661h-288v-155q48 19 100 19q106 0 180 -72q75 -74 75 -187q0 -143 -104 -223q-77 -59 -185 -59q-122 0 -202 75q-43 40 -76 121l157 55q35 -90 116 -90q52 0 85 35q33 34 33 82q0 46 -32 81q-35 36 -88 36q-61 0 -108 -57h-116v493h453v-154z" />
    <glyph glyph-name="threefifth" unicode="&#x2157;" horiz-adv-x="1613" 
d="M133 972l190 240h-238v147h543l-238 -302q75 -7 133 -53q90 -71 90 -196q0 -129 -94 -211q-79 -70 -199 -70q-157 0 -233 109q-34 48 -46 139l162 6q7 -41 27 -63q33 -37 85 -37q57 0 94 39q31 31 31 77q0 49 -32 81q-34 36 -93 36q-44 0 -79 -23zM1215 1386l82 -52
l-901 -1361l-81 53zM1487 661h-288v-155q48 19 99 19q108 0 181 -72q75 -74 75 -187q0 -143 -104 -223q-77 -59 -186 -59q-121 0 -202 75q-44 41 -75 121l157 55q34 -90 116 -90q52 0 85 35q33 34 33 82q0 47 -32 81q-34 36 -88 36q-62 0 -108 -57h-116v493h453v-154z" />
    <glyph glyph-name="fourfifth" unicode="&#x2158;" horiz-adv-x="1613" 
d="M370 544v164h-315v138l307 513h181v-504h78v-147h-78v-164h-173zM205 850h173v301zM1216 1386l82 -52l-901 -1361l-81 53zM1488 661h-288v-155q48 19 100 19q106 0 180 -72q75 -74 75 -187q0 -144 -103 -223q-77 -59 -186 -59q-122 0 -202 75q-43 40 -76 121l157 55
q36 -90 116 -90q52 0 85 35q33 34 33 82q0 46 -32 81q-35 36 -88 36q-61 0 -108 -57h-116v493h453v-154z" />
    <glyph glyph-name="onesixth" unicode="&#x2159;" horiz-adv-x="1613" 
d="M311 544v594l-155 -77v159l335 164v-840h-180zM1215 1386l83 -52l-901 -1361l-82 53zM1299 815h205l-217 -314q24 2 30 2q79 0 140 -43q55 -38 81 -98q23 -51 23 -103q0 -121 -96 -204q-83 -71 -197 -71q-132 0 -215 92q-65 74 -65 174q0 103 95 245zM1277 361
q-55 0 -89 -37q-29 -31 -29 -72q0 -48 36 -81q31 -27 78 -27q59 0 92 40q26 32 26 69q0 44 -32 76q-34 32 -82 32z" />
    <glyph glyph-name="fivesixth" unicode="&#x215a;" horiz-adv-x="1613" 
d="M551 1205h-287v-155q47 18 100 18q106 0 179 -72q75 -74 75 -187q0 -142 -104 -222q-77 -59 -185 -59q-121 0 -202 75q-43 41 -75 120l157 56q35 -90 116 -90q51 0 84 35q33 34 33 81t-32 81q-34 36 -87 36q-61 0 -108 -57h-116v494h452v-154zM1215 1386l82 -52
l-901 -1361l-81 53zM1299 815h205l-217 -314q22 2 29 2q79 0 140 -43q104 -72 104 -201q0 -121 -96 -204q-83 -71 -196 -71q-132 0 -215 92q-65 74 -65 174q0 103 95 245zM1277 361q-54 0 -90 -37q-28 -31 -28 -72q0 -48 36 -81q31 -27 78 -27q58 0 91 40q26 32 26 69
q0 44 -32 76q-34 32 -81 32z" />
    <glyph glyph-name="oneeighth" unicode="&#x215b;" horiz-adv-x="1613" 
d="M311 544v594l-155 -77v159l335 164v-840h-180zM1215 1386l83 -52l-901 -1361l-82 53zM1447 429q113 -54 113 -189q0 -117 -89 -191q-79 -65 -199 -65q-139 0 -220 84q-62 65 -62 163q0 145 116 198q-32 18 -55 51q-35 52 -35 116q0 112 85 179q72 57 179 57
q121 0 193 -72q66 -64 66 -160q0 -66 -38 -121q-21 -30 -54 -50zM1279 685q-49 0 -78 -32q-21 -25 -21 -58q0 -42 31 -69q28 -25 67 -25q45 0 77 35q24 26 24 58q0 37 -33 67q-27 24 -67 24zM1276 348q-52 0 -85 -35q-28 -28 -28 -70q0 -47 34 -77q31 -27 78 -27q51 0 83 35
q28 29 28 69q0 44 -35 76q-32 29 -75 29z" />
    <glyph glyph-name="threeeighths" unicode="&#x215c;" horiz-adv-x="1613" 
d="M133 972l190 240h-238v147h543l-238 -302q75 -7 133 -53q90 -71 90 -196q0 -129 -94 -211q-79 -70 -199 -70q-157 0 -233 109q-34 48 -46 139l162 6q7 -41 27 -63q33 -37 85 -37q57 0 94 39q31 31 31 77q0 49 -32 81q-34 36 -93 36q-44 0 -79 -23zM1215 1386l82 -52
l-901 -1361l-81 53zM1446 429q113 -53 113 -189q0 -117 -89 -191q-80 -65 -199 -65q-139 0 -220 84q-62 65 -62 163q0 145 117 198q-34 18 -57 51q-34 50 -34 116q0 112 84 179q72 57 180 57q119 0 193 -72q66 -64 66 -160q0 -68 -38 -121q-20 -30 -54 -50zM1278 685
q-49 0 -78 -32q-21 -25 -21 -58q0 -42 31 -69q28 -25 66 -25q46 0 78 35q24 26 24 58q0 37 -33 67q-27 24 -67 24zM1275 348q-52 0 -85 -35q-28 -28 -28 -70q0 -47 34 -77q32 -27 77 -27q52 0 84 35q28 29 28 69q0 44 -35 76q-32 29 -75 29z" />
    <glyph glyph-name="fiveeighths" unicode="&#x215d;" horiz-adv-x="1613" 
d="M551 1205h-287v-155q47 18 100 18q106 0 179 -72q75 -74 75 -187q0 -142 -104 -222q-77 -59 -185 -59q-121 0 -202 75q-43 41 -75 120l157 56q35 -90 116 -90q51 0 84 35q33 34 33 81t-32 81q-34 36 -87 36q-61 0 -108 -57h-116v494h452v-154zM1215 1386l82 -52
l-901 -1361l-81 53zM1446 429q113 -53 113 -189q0 -117 -89 -191q-80 -65 -199 -65q-139 0 -220 84q-62 65 -62 163q0 144 117 198q-34 18 -56 51q-34 50 -34 116q0 112 84 179q74 57 180 57q121 0 193 -72q66 -64 66 -160q0 -68 -38 -121q-22 -30 -55 -50zM1279 685
q-49 0 -78 -32q-21 -25 -21 -58q0 -42 31 -69q28 -25 67 -25q45 0 77 35q24 26 24 58q0 37 -33 67q-27 24 -67 24zM1275 348q-52 0 -85 -35q-28 -28 -28 -70q0 -47 34 -77q32 -27 78 -27q51 0 83 35q28 29 28 69q0 44 -35 76q-32 29 -75 29z" />
    <glyph glyph-name="seveneighths" unicode="&#x215e;" horiz-adv-x="1613" 
d="M95 544l279 661h-273v154h524l-343 -815h-187zM1215 1386l82 -52l-901 -1361l-81 53zM1446 429q114 -54 114 -189q0 -117 -89 -191q-80 -65 -199 -65q-139 0 -220 84q-62 65 -62 163q0 145 116 198q-34 18 -56 51q-34 50 -34 116q0 112 84 179q72 57 179 57
q121 0 194 -72q66 -64 66 -160q0 -66 -38 -121q-22 -30 -55 -50zM1279 685q-49 0 -78 -32q-21 -25 -21 -58q0 -42 31 -69q28 -25 66 -25q46 0 78 35q24 26 24 58q0 37 -34 67q-27 24 -66 24zM1275 348q-51 0 -84 -35q-28 -28 -28 -70q0 -47 34 -77q31 -27 77 -27q52 0 84 35
q28 29 28 69q0 44 -35 76q-32 29 -76 29z" />
    <glyph glyph-name="arrowleft" unicode="&#x2190;" horiz-adv-x="1365" 
d="M314 744h1024v-104h-1024q24 -30 60 -96q47 -86 47 -117q0 -28 -30 -28q-17 0 -47 35q-107 122 -270 212q-47 26 -47 42q0 19 34 38q103 58 165 106q61 47 132 130q16 19 32 19q31 0 31 -31q0 -20 -42 -104q-20 -38 -65 -102z" />
    <glyph glyph-name="arrowup" unicode="&#x2191;" horiz-adv-x="1365" 
d="M737 1051v-1024h-104v1024q-31 -25 -96 -60q-86 -47 -117 -47q-28 0 -28 31q0 16 35 46q124 107 212 270q26 47 42 47q19 0 38 -34q53 -94 106 -165q47 -60 131 -132q19 -16 19 -32q0 -31 -31 -31q-20 0 -105 42q-40 20 -102 65z" />
    <glyph glyph-name="arrowright" unicode="&#x2192;" horiz-adv-x="1365" 
d="M1051 636h-1024v104h1024q-25 30 -60 96q-47 86 -47 116q0 29 30 29q17 0 47 -35q107 -124 270 -212q47 -26 47 -42q0 -19 -34 -38q-92 -52 -165 -107q-61 -46 -132 -130q-16 -19 -32 -19q-31 0 -31 31q0 19 42 105q20 40 65 102z" />
    <glyph glyph-name="arrowdown" unicode="&#x2193;" horiz-adv-x="1365" 
d="M629 314v1024h104v-1024q30 26 96 60q86 47 117 47q28 0 28 -31q0 -16 -35 -46q-122 -107 -212 -270q-26 -47 -42 -47q-19 0 -38 34q-56 97 -106 165q-48 62 -131 132q-19 16 -19 32q0 31 31 31q20 0 105 -42q40 -20 102 -65z" />
    <glyph glyph-name="arrowboth" unicode="&#x2194;" horiz-adv-x="1365" 
d="M1051 635h-739q45 -61 72 -117q36 -70 36 -91q0 -30 -31 -30q-11 0 -22 8q-7 7 -26 30q-78 93 -223 183l-70 43q-21 12 -21 30q0 17 47 43q167 92 269 211q32 35 47 35q30 0 30 -29q0 -31 -48 -116q-34 -65 -60 -96h739q-23 29 -60 96q-47 86 -47 117q0 28 30 28
q17 0 47 -35q104 -121 270 -211q47 -26 47 -43q0 -19 -34 -38q-94 -53 -165 -106q-60 -47 -132 -131q-16 -19 -32 -19q-31 0 -31 31q0 21 42 105q20 40 65 102z" />
    <glyph glyph-name="arrowupdn" unicode="&#x2195;" horiz-adv-x="1365" 
d="M737 1051v-739q59 43 117 73q70 36 91 36q30 0 30 -31q0 -12 -8 -22q-7 -7 -30 -26q-95 -80 -183 -223l-43 -71q-11 -21 -30 -21q-16 0 -42 47q-90 163 -212 270q-35 30 -35 47q0 30 29 30q31 0 116 -48q63 -34 96 -61v739q-31 -25 -96 -60q-86 -47 -116 -47
q-29 0 -29 30q0 17 35 47q124 107 212 270q26 47 42 47q19 0 38 -34q58 -103 106 -165q52 -64 131 -132q19 -16 19 -32q0 -31 -31 -31q-20 0 -105 42q-40 20 -102 65z" />
    <glyph glyph-name="arrowupdnbse" unicode="&#x21a8;" horiz-adv-x="1365" 
d="M737 1051v-739q59 43 117 73q70 36 91 36q30 0 30 -31q0 -12 -8 -22q-7 -7 -30 -26q-94 -79 -183 -223l-43 -71q-11 -21 -30 -21q-16 0 -42 47q-90 163 -212 270q-35 30 -35 47q0 30 28 30q32 0 117 -48q64 -36 96 -61v739q-31 -25 -96 -60q-86 -47 -116 -47
q-29 0 -29 30q0 17 35 47q124 107 212 270q26 47 42 47q19 0 38 -34q58 -103 106 -165q52 -64 131 -132q19 -16 19 -32q0 -31 -31 -31q-20 0 -105 42q-40 20 -102 65zM413 -227v88h540v-88h-540z" />
    <glyph glyph-name="partialdiff" unicode="&#x2202;" 
d="M133 1154l30 209q194 -23 331 -76q181 -70 307 -222q178 -214 178 -541q0 -211 -88 -342q-67 -100 -169 -152q-97 -49 -214 -49q-148 0 -263 76q-78 51 -127 129q-75 117 -75 259q0 191 123 318q118 123 290 123q108 0 178 -39q28 -15 84 -66q-15 25 -24 44
q-47 87 -69 113q-62 71 -124 106q-105 59 -220 87q-45 12 -148 23zM517 687q-87 0 -152 -55q-30 -26 -52 -65q-33 -61 -33 -128q0 -107 73 -179q67 -67 155 -67q84 0 149 58q80 71 80 192q0 119 -75 186q-64 58 -145 58z" />
    <glyph glyph-name="emptyset" unicode="&#x2205;" horiz-adv-x="1266" 
d="M802 1183l97 182l98 -51l-98 -181q231 -161 231 -416q0 -141 -75 -262q-65 -105 -170 -167q-119 -69 -263 -69q-94 0 -162 33l-128 -251l-100 51l126 249q-221 162 -221 414q0 228 171 376q139 121 328 121q81 0 166 -29zM852 1027l-338 -674q66 -18 119 -18
q167 0 283 123q100 107 100 257q0 151 -100 260q-25 28 -64 52zM410 406l339 673q-59 17 -110 17q-183 0 -299 -138q-89 -107 -89 -242q0 -182 159 -310z" />
    <glyph glyph-name="Delta" unicode="&#x2206;" horiz-adv-x="1318" 
d="M1302 0h-1286l502 1365h278zM659 1082l-301 -849h595z" />
    <glyph glyph-name="product" unicode="&#x220f;" horiz-adv-x="1365" 
d="M42 1321v215h1282v-215h-148v-1618h148v-215h-526v215h137v1618h-505v-1618h135v-215h-523v215h150v1618h-150z" />
    <glyph glyph-name="summation" unicode="&#x2211;" horiz-adv-x="1365" 
d="M69 1536h1194v-512h-242l-29 265h-623l499 -744l-497 -811h640l16 273h254v-519h-1212v284l482 773l-482 708v283z" />
    <glyph glyph-name="minus" unicode="&#x2212;" 
d="M25 659v135h973v-135h-973z" />
    <glyph glyph-name="uni2218" unicode="&#x2218;" 
d="M516 982q111 0 194 -83q83 -85 83 -203q0 -119 -82 -202q-83 -84 -199 -84q-115 0 -198 83q-84 84 -84 203q0 120 84 203q85 83 202 83zM514 885q-79 0 -133 -55q-55 -55 -55 -134t55 -134t131 -55t131 55q54 56 54 134q0 80 -55 134q-55 55 -128 55z" />
    <glyph glyph-name="radical" unicode="&#x221a;" horiz-adv-x="1365" 
d="M814 1693h551v-222h-354l-391 -1471h-309l-133 540h-178v222h331l63 -232q14 -50 48 -288h15l31 167q32 167 45 220q9 41 72 279z" />
    <glyph glyph-name="infinity" unicode="&#x221e;" horiz-adv-x="1365" 
d="M688 573q-146 -197 -332 -197q-158 0 -248 109q-71 86 -71 213q0 147 97 234q93 84 222 84q184 0 323 -196q139 196 333 196q163 0 253 -118q64 -82 64 -203q0 -152 -101 -241q-88 -79 -214 -79q-190 0 -326 198zM790 716l-14 -20q102 -153 211 -153q67 0 111 48
q38 44 38 105q0 76 -56 120q-43 32 -95 32q-87 0 -160 -87q-20 -21 -35 -45zM590 695q-102 153 -211 153q-67 0 -111 -48q-38 -44 -38 -105q0 -76 56 -120q43 -32 95 -32q86 0 161 87q3 4 7 9t10.5 14t11.5 15q20 26 19 27z" />
    <glyph glyph-name="orthogonal" unicode="&#x221f;" horiz-adv-x="692" 
d="M32 867v177h628v-177h-628z" />
    <glyph glyph-name="intersection" unicode="&#x2229;" horiz-adv-x="1245" 
d="M1175 622v-622h-269v628q-3 178 -7 219q-11 111 -55 170q-38 50 -99 79q-57 28 -123 28q-98 0 -174 -58q-62 -45 -84 -118q-26 -81 -26 -320v-628h-269v622q0 222 12 313q30 218 210 338q140 92 331 92q192 0 331 -92q180 -120 209 -338q13 -91 13 -313z" />
    <glyph glyph-name="union" unicode="&#x222a;" horiz-adv-x="1245" 
d="M69 743v622h269v-627q0 -143 7 -220q11 -111 55 -170q38 -52 99 -80q59 -27 123 -27q98 0 174 58q62 45 84 118q26 81 26 321v627h269v-622q0 -221 -12 -313q-30 -218 -210 -338q-140 -92 -331 -92q-190 0 -330 92q-181 120 -210 338q-13 94 -13 313z" />
    <glyph glyph-name="integral" unicode="&#x222b;" 
d="M115 -491l46 253q51 -20 86 -20q86 0 111 70q10 26 10 213v925q1 123 1 206q3 165 73 253q100 127 299 127q68 0 167 -21l-46 -253q-49 20 -87 20q-85 0 -110 -70q-10 -27 -10 -127v-1004q0 -247 -9 -300q-48 -288 -390 -288q-92 0 -141 16z" />
    <glyph glyph-name="uni222E" unicode="&#x222e;" 
d="M112 -490l47 252q63 -20 103 -20q85 0 109 70q9 29 9 134v184q-76 17 -152 78q-67 53 -105 134q-43 90 -43 189q0 133 75 244q80 117 225 155v182q0 190 61 284q90 141 287 141q73 0 180 -22l-46 -253q-60 21 -106 21q-82 0 -106 -71q-9 -27 -9 -109v-172q93 -25 150 -72
q69 -56 110 -141q43 -87 43 -187q0 -134 -74 -244q-59 -87 -161 -134q-33 -16 -69 -23v-198q0 -118 -12 -183q-23 -119 -112 -192q-48 -37 -91 -50q-63 -19 -156 -19q-85 0 -157 22zM640 806v-548q56 20 93 55q89 86 89 218q0 144 -97 225q-46 39 -85 50zM380 259v546
q-49 -16 -88 -52q-90 -87 -90 -220q0 -144 98 -227q43 -35 80 -47z" />
    <glyph glyph-name="uni2236" unicode="&#x2236;" horiz-adv-x="844" 
d="M424 1168q42 0 74 -30q32 -32 32 -78t-33 -77q-31 -30 -74 -30t-75 30q-33 31 -33 77t32 78q33 30 77 30zM423 523q46 0 77 -34q29 -31 29 -73q0 -46 -33 -78q-32 -30 -75 -30t-74 30q-33 31 -33 77q0 43 29 74q33 34 80 34z" />
    <glyph glyph-name="similar" unicode="&#x223c;" 
d="M157 490l-139 115q112 271 301 271q69 0 231 -71q87 -39 113 -46q30 -8 50 -8q85 0 155 130l139 -115q-42 -98 -73 -139q-96 -130 -238 -130q-34 0 -82 14q-41 13 -154 64q-102 46 -153 46q-79 0 -150 -131z" />
    <glyph glyph-name="approxequal" unicode="&#x2248;" 
d="M157 712l-139 98q111 271 301 271q69 0 231 -71q90 -40 113 -46q30 -8 51 -8q61 0 102 44q16 17 52 69l139 -98q-39 -91 -71 -137q-96 -130 -249 -130q-38 0 -85 16q-34 10 -142 59q-105 47 -154 47q-50 0 -87 -36q-27 -25 -62 -78zM157 285l-139 98q112 271 301 271
q69 0 231 -71q90 -40 113 -46q27 -8 50 -8q61 0 103 44q16 17 52 68l139 -97q-39 -91 -71 -137q-94 -130 -249 -130q-38 0 -85 16q-34 10 -142 59q-105 47 -154 47q-50 0 -87 -36q-27 -25 -62 -78z" />
    <glyph glyph-name="notequal" unicode="&#x2260;" 
d="M69 965h464l138 263l177 -93l-90 -170h198v-236h-294l-87 -165h380v-236h-468l-123 -236l-178 93l76 143h-194v236h282l87 165h-368v236z" />
    <glyph glyph-name="equivalence" unicode="&#x2261;" 
d="M68 958v248h887v-248h-887zM68 559v248h887v-248h-887zM68 159v248h887v-248h-887z" />
    <glyph glyph-name="lessequal" unicode="&#x2264;" 
d="M68 963l887 339v-264l-579 -195l578 -194l1 -265l-887 341v238zM68 329h887v-248h-887v248z" />
    <glyph glyph-name="greaterequal" unicode="&#x2265;" 
d="M955 725l-887 -341l1 265l578 194l-579 195v264l887 -340v-237zM955 81h-887v248h887v-248z" />
    <glyph glyph-name="dotmath" unicode="&#x22c5;" horiz-adv-x="534" 
d="M268 656q67 0 110 -46q40 -43 40 -108q0 -69 -52 -114q-40 -34 -99 -34q-69 0 -111 46q-40 43 -40 105q0 72 52 117q38 34 100 34z" />
    <glyph glyph-name="house" unicode="&#x2302;" horiz-adv-x="1538" 
d="M1366 0h-1194v821l597 672l597 -672v-821zM276 776v-672h986v672l-493 553z" />
    <glyph glyph-name="revlogicalnot" unicode="&#x2310;" 
d="M343 343v-343h-275v591h887v-248h-612z" />
    <glyph glyph-name="uni2319" unicode="&#x2319;" 
d="M68 591h275v-343h612v-248h-887v591z" />
    <glyph glyph-name="integraltp" unicode="&#x2320;" 
d="M656 1085v-1597h-288v1462q1 122 1 206q3 164 74 253q100 127 299 127q68 0 167 -21l-46 -253q-49 20 -88 20q-84 0 -109 -70q-10 -27 -10 -127z" />
    <glyph glyph-name="integralbt" unicode="&#x2321;" 
d="M368 -61v1597h287v-1462q0 -187 -1 -206q-3 -165 -73 -253q-100 -127 -299 -127q-68 0 -167 21l46 253q49 -20 88 -20q84 0 109 70q10 26 10 127z" />
    <glyph glyph-name="filledbox" unicode="&#x25a0;" horiz-adv-x="1365" 
d="M1365 1365v-1365h-1365v1365h1365z" />
    <glyph glyph-name="uni25A1" unicode="&#x25a1;" horiz-adv-x="1365" 
d="M1365 1365v-1365h-1365v1365h1365zM96 96h1173v1173h-1173v-1173z" />
    <glyph glyph-name="H18551" unicode="&#x25ab;" horiz-adv-x="692" 
d="M32 867v177h219v212h190v-212h219v-177h-219v-214h-190v214h-219z" />
    <glyph glyph-name="filledrect" unicode="&#x25ac;" horiz-adv-x="1365" 
d="M0 683h1365v-683h-1365v683z" />
    <glyph glyph-name="uni25AE" unicode="&#x25ae;" horiz-adv-x="1365" 
d="M1024 1365v-1365h-683v1365h683z" />
    <glyph glyph-name="uni25AF" unicode="&#x25af;" horiz-adv-x="1365" 
d="M684 1207q219 0 376 -153q156 -153 156 -370q0 -216 -154 -370q-158 -156 -378 -156q-224 0 -380 156q-154 154 -154 377q0 143 78 267q77 124 213 191q113 58 243 58z" />
    <glyph glyph-name="triagup" unicode="&#x25b2;" horiz-adv-x="1365" 
d="M683 1287l614 -1150h-1229z" />
    <glyph glyph-name="uni25B4" unicode="&#x25b4;" 
d="M512 1130l444 -830h-888z" />
    <glyph glyph-name="uni25B8" unicode="&#x25b8;" 
d="M976 687l-830 -444v888z" />
    <glyph glyph-name="triagdn" unicode="&#x25bc;" horiz-adv-x="1365" 
d="M682 79l-614 1150h1229z" />
    <glyph glyph-name="uni25BE" unicode="&#x25be;" 
d="M512 235l-444 830h887z" />
    <glyph glyph-name="uni25C2" unicode="&#x25c2;" 
d="M48 687l830 444v-888z" />
    <glyph glyph-name="lozenge" unicode="&#x25ca;" horiz-adv-x="1365" 
d="M151 683l532 736l531 -736l-531 -736zM1086 683l-403 555l-404 -555l404 -554z" />
    <glyph glyph-name="circle" unicode="&#x25cb;" horiz-adv-x="1365" 
d="M684 1207q219 0 376 -153q156 -153 156 -370q0 -216 -154 -370q-158 -156 -378 -156q-224 0 -380 156q-154 154 -154 377q0 143 78 267q77 124 213 191q113 58 243 58zM683 1113q-182 0 -310 -127q-127 -124 -127 -297q0 -183 126 -309q128 -128 312 -128q180 0 310 128
q126 126 126 304q0 181 -128 303q-130 126 -309 126z" />
    <glyph glyph-name="invbullet" unicode="&#x25d8;" horiz-adv-x="1365" 
d="M1365 0h-1365v1365h1365v-1365zM687 969q-119 0 -202 -83q-84 -84 -84 -204q0 -118 84 -203q83 -83 198 -83q116 0 199 84q82 83 82 202q0 122 -83 203q-86 84 -194 84z" />
    <glyph glyph-name="invcircle" unicode="&#x25d9;" horiz-adv-x="1365" 
d="M1365 1365v-1365h-1365v1365h1365zM683 1207q-221 0 -378 -154q-155 -152 -155 -362q0 -224 154 -377q156 -156 379 -156q221 0 378 156q154 154 154 370q0 149 -79 274q-76 124 -212 192q-112 57 -241 57zM683 1113q180 0 309 -126q128 -125 128 -303q0 -177 -127 -304
q-128 -128 -310 -128q-183 0 -311 128q-127 126 -127 309q0 117 64 220q64 102 175 157q94 47 199 47z" />
    <glyph glyph-name="openbullet" unicode="&#x25e6;" 
d="M516 982q111 0 194 -83q83 -85 83 -203q0 -119 -82 -202q-83 -84 -199 -84q-115 0 -198 83q-84 84 -84 203q0 120 84 203q85 83 202 83zM514 885q-79 0 -133 -55q-55 -55 -55 -134t55 -134t131 -55t131 55q54 56 54 134q0 80 -55 134q-55 55 -128 55z" />
    <glyph glyph-name="smileface" unicode="&#x263a;" horiz-adv-x="1365" 
d="M693 1331q165 0 314 -87q151 -88 237 -237q87 -150 87 -324q0 -173 -87 -325q-87 -150 -237 -237q-151 -87 -324 -87t-325 87t-237 237q-87 152 -87 330q0 279 215 476q184 167 444 167zM693 1245q-259 0 -427 -187q-145 -160 -145 -371q0 -255 186 -423
q161 -144 376 -144q151 0 282 75q132 77 206 206q75 131 75 282q0 246 -186 417q-88 81 -199 116q-92 29 -168 29zM491 953q39 0 66 -30q23 -26 23 -60q0 -40 -30 -67q-26 -23 -60 -23q-40 0 -67 30q-23 26 -23 61q0 38 30 66q26 23 61 23zM889 953q39 0 66 -30
q23 -26 23 -60q0 -39 -30 -68q-26 -23 -60 -23q-41 0 -68 30q-23 26 -23 61q0 39 30 67q26 23 62 23zM1106 762q-11 -138 -34 -204q-49 -137 -160 -209q-95 -61 -228 -61q-225 0 -337 169q-45 65 -65 148q-13 56 -20 157q20 -84 44 -125q59 -99 160 -152q91 -49 218 -49
q212 0 337 144q42 50 61 99q10 26 24 83z" />
    <glyph glyph-name="invsmileface" unicode="&#x263b;" horiz-adv-x="1365" 
d="M693 1331q165 0 314 -87q151 -88 237 -237q87 -150 87 -324q0 -173 -87 -325q-87 -150 -237 -237q-151 -87 -324 -87t-325 87t-237 237q-87 152 -87 330q0 279 215 476q184 167 444 167zM491 953q-41 0 -68 -30q-23 -26 -23 -59q0 -41 30 -68q26 -23 60 -23q40 0 67 30
q23 26 23 60q0 40 -30 67q-26 23 -59 23zM889 954q-42 0 -69 -30q-23 -26 -23 -60q0 -40 30 -69q26 -23 61 -23q40 0 67 30q23 26 23 61q0 39 -30 68q-26 23 -59 23zM1106 761q-20 -84 -44 -124q-59 -98 -160 -153q-92 -48 -218 -48q-213 0 -337 144q-41 49 -62 99
q-7 18 -23 82q11 -137 34 -203q49 -138 160 -209q95 -61 228 -61q225 0 337 169q45 67 65 148q13 56 20 156z" />
    <glyph glyph-name="sun" unicode="&#x263c;" horiz-adv-x="1365" 
d="M326 968l-153 152l72 72l154 -153q104 81 232 98v215h103v-216q132 -18 233 -96l153 152l72 -72l-153 -152q78 -100 96 -232h216v-105h-216q-17 -133 -96 -233l153 -153l-72 -72l-153 153q-103 -79 -233 -97v-215h-103v216q-121 14 -233 95l-153 -152l-72 72l152 152
q-79 101 -94 234h-216v105h215q18 128 96 232zM688 1010q-150 0 -248 -108q-84 -93 -84 -216q0 -148 108 -246q93 -84 219 -84q145 0 242 108q84 94 84 220q0 143 -108 242q-91 84 -213 84z" />
    <glyph glyph-name="female" unicode="&#x2640;" horiz-adv-x="1365" 
d="M632 429v215q-92 13 -166 68q-70 51 -112 133q-40 79 -40 170q0 156 109 265q106 109 259 109q152 0 260 -108q110 -110 110 -266q0 -121 -72 -222q-92 -125 -250 -150v-214h334v-88h-334v-341h-98v341h-330v88h330zM688 1293q-117 0 -197 -80q-81 -81 -81 -197
q0 -115 82 -197q80 -80 191 -80q113 0 193 81q80 82 80 196q0 116 -80 196q-83 81 -188 81z" />
    <glyph glyph-name="male" unicode="&#x2642;" horiz-adv-x="1365" 
d="M1167 1023l-311 -311q73 -98 73 -225q0 -153 -108 -263q-107 -110 -260 -110q-151 0 -259 108q-110 112 -110 267q0 157 109 266q108 108 260 108q125 0 229 -81l309 309q-100 22 -216 82q-44 23 -44 48q0 24 27 24q11 0 41 -6q91 -17 170 -17q113 0 216 27q10 3 20 3
q21 0 21 -21q0 -10 -10 -46q-21 -79 -21 -180q0 -87 18 -172q6 -28 6 -40q0 -28 -25 -28q-15 0 -26 11q-41 47 -70 126q-31 81 -39 121zM565 767q-116 0 -196 -80q-81 -81 -81 -197q0 -114 81 -197q80 -80 192 -80q113 0 192 81q80 82 80 196q0 116 -80 196q-83 81 -188 81z
" />
    <glyph glyph-name="spade" unicode="&#x2660;" horiz-adv-x="1365" 
d="M1162 0h-942v38q126 23 193 50q114 47 187 166q64 103 73 268q-20 -44 -28 -56q-35 -61 -97 -101q-79 -52 -172 -52q-96 0 -169 71q-77 77 -77 185q0 93 48 165q60 92 165 180q162 136 247 265q61 93 89 225q39 -115 64 -167q37 -77 102 -148q66 -71 142 -140
q116 -105 156 -154q92 -115 92 -230q0 -89 -54 -157q-75 -94 -196 -94q-173 0 -285 207q8 -109 29 -174q39 -127 148 -208q73 -55 229 -90l56 -11v-38z" />
    <glyph glyph-name="club" unicode="&#x2663;" horiz-adv-x="1365" 
d="M1149 38v-38h-933v38q185 33 257 85q169 117 191 346q4 43 5 92q-45 -77 -69 -108q-50 -63 -123 -104q-86 -49 -176 -49q-131 0 -219 103q-76 86 -76 208q0 128 83 219q76 82 187 82q56 0 121 -31l55 -27q-72 108 -72 204q0 122 89 208q88 85 214 85q123 0 210 -81
q93 -87 93 -212q0 -98 -73 -204q61 30 76 36q48 22 101 22q117 0 195 -93q74 -89 74 -207q0 -140 -98 -232q-86 -80 -202 -80q-103 0 -207 71q-66 46 -123 136l-32 54q3 -135 28 -214q38 -122 145 -207q52 -43 124 -66q54 -17 155 -36z" />
    <glyph glyph-name="heart" unicode="&#x2665;" horiz-adv-x="1365" 
d="M680 -22q-33 131 -97 245q-75 128 -165 251l-118 160q-87 119 -125 186q-60 110 -60 213q0 119 79 198q77 77 186 77q154 0 245 -139q28 -42 55 -126q32 107 80 162q90 105 221 105q123 0 204 -93q66 -77 66 -175q0 -136 -99 -296q-40 -64 -126 -174q-165 -211 -247 -353
q-68 -119 -99 -241z" />
    <glyph glyph-name="diamond" unicode="&#x2666;" horiz-adv-x="1365" 
d="M682 1419q82 -152 283 -429q153 -211 237 -305q-52 -58 -267 -346q-132 -177 -253 -392q-45 90 -199 312q-114 164 -295 395l-24 31q50 58 261 337q145 193 257 397z" />
    <glyph glyph-name="musicalnote" unicode="&#x266a;" horiz-adv-x="1365" 
d="M626 319v1046h93v-124q41 -53 137 -167q186 -222 186 -460q0 -190 -116 -332h-58q67 158 67 305q0 108 -43 198q-51 107 -129 144q-16 8 -44 13v-623q0 -125 -58 -207q-39 -54 -98 -89q-71 -41 -154 -41q-86 0 -121 53q-20 34 -20 71q0 73 53 141q44 57 113 80
q44 15 82 15q56 0 110 -23z" />
    <glyph glyph-name="uni266C" unicode="&#x266c;" horiz-adv-x="1365" 
d="M1261 1422v-1029q-2 -99 -35 -166q-34 -69 -100 -115q-79 -55 -175 -55q-88 0 -121 53q-19 31 -19 71q0 74 52 141q43 55 113 80q44 15 80 15q60 0 111 -24v554l-675 -185v-483q0 -126 -58 -206q-37 -53 -98 -88q-73 -41 -155 -41q-87 0 -120 53q-20 32 -20 70
q0 72 53 139q43 55 113 79q43 15 82 15q56 0 110 -21v923zM492 1060v-142l675 185v142z" />
    <glyph glyph-name="ff" unicode="&#xfb00;" horiz-adv-x="1163" 
d="M532 728h-123v-728h-261v728h-105v219h105v52q0 367 345 367q21 0 39 -1v-240q-56 -7 -85 -27q-38 -29 -38 -99v-52h123v-219zM1109 728h-122v-728h-261v728h-105v219h105v52q0 367 344 367q21 0 39 -1v-240q-57 -7 -84 -27q-38 -29 -38 -99v-52h122v-219z" />
    <glyph glyph-name="fi" unicode="&#xfb01;" horiz-adv-x="1092" 
d="M532 728h-123v-728h-261v728h-105v219h105v52q0 367 345 367q21 0 39 -1v-240q-56 -7 -85 -27q-38 -29 -38 -99v-52h123v-219zM702 947h261v-947h-261v947zM834 1363q64 0 105 -45q38 -43 38 -102q0 -66 -49 -109q-38 -33 -95 -33q-66 0 -107 44q-38 44 -38 100
q0 69 49 112q38 33 97 33z" />
    <glyph glyph-name="fl" unicode="&#xfb02;" horiz-adv-x="1092" 
d="M532 728h-123v-728h-261v728h-105v219h105v52q0 367 345 367q21 0 39 -1v-240q-56 -7 -85 -27q-38 -29 -38 -99v-52h123v-219zM963 1365v-1365h-261v1365h261z" />
    <glyph glyph-name="ffi" unicode="&#xfb03;" horiz-adv-x="1690" 
d="M531 728h-123v-728h-261v728h-105v219h105v52q0 367 345 367q21 0 39 -1v-240q-56 -7 -85 -27q-38 -29 -38 -99v-52h123v-219zM1108 728h-122v-728h-261v728h-105v219h105v52q0 367 344 367q21 0 39 -1v-240q-57 -7 -84 -27q-38 -29 -38 -99v-52h122v-219zM1299 947h261
v-947h-261v947zM1432 1363q64 0 105 -45q38 -41 38 -102q0 -66 -49 -109q-37 -33 -95 -33q-66 0 -107 44q-38 44 -38 100q0 69 49 112q37 33 97 33z" />
    <glyph glyph-name="ffl" unicode="&#xfb04;" horiz-adv-x="1690" 
d="M532 728h-123v-728h-261v728h-105v219h105v52q0 367 345 367q21 0 39 -1v-240q-56 -7 -85 -27q-38 -29 -38 -99v-52h123v-219zM1109 728h-122v-728h-261v728h-105v219h105v52q0 367 344 367q21 0 39 -1v-240q-57 -7 -84 -27q-38 -29 -38 -99v-52h122v-219zM1561 1365
v-1365h-261v1365h261z" />
    <glyph glyph-name="_" horiz-adv-x="0" 
 />
    <glyph glyph-name="_001" horiz-adv-x="614" 
 />
    <glyph glyph-name="_002" horiz-adv-x="614" 
 />
    <glyph glyph-name="_003" 
 />
    <glyph glyph-name="_004" horiz-adv-x="614" 
 />
    <glyph glyph-name="Comma.high" horiz-adv-x="347" 
d="M56 1392l222 -60l-162 -426l-175 46z" />
    <glyph glyph-name="commaaccent.sc" 
d="M395 -87h231v-135q0 -146 -82 -201q-53 -35 -160 -42v85q62 4 100 27q34 21 39 86h-128v180z" />
    <glyph glyph-name="two.denominator" horiz-adv-x="474" 
d="M347 246l-106 -143h165v-103h-379l215 301q53 74 53 105q0 24 -18 41q-19 15 -48 15q-47 0 -62 -35q-6 -15 -8 -56h-116q-1 61 22 106q49 91 172 91q91 0 144 -53q41 -41 41 -99q0 -70 -75 -170z" />
    <glyph glyph-name="one.denominator" horiz-adv-x="474" 
d="M217 0v406l-108 -52v108l234 113v-575h-126z" />
    <glyph glyph-name="zero.numerator" horiz-adv-x="474" 
d="M430 1190v-213q0 -183 -192 -183q-96 0 -148 48q-30 28 -37 64q-9 39 -9 96v175q0 102 42 144q53 53 148 53q85 0 140 -44q56 -47 56 -140zM170 1177v-187q0 -49 11 -65q19 -24 57 -24q39 0 56 26q12 18 12 64v192q0 82 -68 82q-40 0 -56 -25q-12 -16 -12 -63z" />
    <glyph glyph-name="nine.numerator" horiz-adv-x="474" 
d="M81 806l150 214q-6 -1 -15 -1q-66 0 -113 36q-67 49 -67 133q0 81 61 133q58 52 143 52q95 0 152 -63q45 -50 45 -120q0 -72 -65 -167l-149 -217h-142zM239 1266q-37 0 -61 -25q-21 -21 -21 -48q0 -33 27 -56q21 -18 52 -18q41 0 65 27q17 20 17 46q0 32 -24 53
q-22 21 -55 21z" />
    <glyph glyph-name="eight.numerator" horiz-adv-x="474" 
d="M358 1099q79 -37 79 -130q0 -81 -62 -131q-56 -44 -139 -44q-97 0 -154 58q-44 44 -44 111q0 99 82 136q-22 10 -40 34q-24 35 -24 79q0 75 59 122q51 39 126 39q85 0 135 -49q46 -43 46 -109q0 -82 -64 -116zM241 1272q-36 0 -55 -22q-15 -16 -15 -39q0 -28 22 -46
q20 -17 46 -17q33 0 54 23q17 19 17 39q0 26 -23 46q-19 16 -46 16zM238 1044q-36 0 -59 -24q-20 -20 -20 -48q0 -34 24 -53q22 -19 54 -19q35 0 58 24q20 22 20 48q0 30 -24 52q-23 20 -53 20z" />
    <glyph glyph-name="Macron" 
d="M713 1574h-402v112h402v-112z" />
    <glyph glyph-name="Ogonek" 
d="M733 0h177q-68 -52 -98 -85q-44 -50 -44 -97q0 -27 20 -45q29 -25 82 -25q30 0 74 12l18 -149q-78 -23 -143 -23q-111 0 -175 52q-65 51 -65 124q0 134 154 236z" />
    <glyph glyph-name="seven.numerator" horiz-adv-x="474" 
d="M66 806l195 452h-191v105h367l-240 -557h-131z" />
    <glyph glyph-name="Cedilla" 
d="M413 -434l-125 95q105 53 152 113q33 42 50 103l247 -71q-49 -74 -114 -127q-77 -63 -210 -113z" />
    <glyph glyph-name="Hungarumlaut" 
d="M225 1488l165 269h237l-248 -269h-154zM586 1488l165 269h237l-247 -269h-155z" />
    <glyph glyph-name="six.numerator" horiz-adv-x="474" 
d="M254 1363h143l-152 -215q18 2 21 2q54 0 98 -29q73 -49 73 -138q0 -85 -67 -140q-58 -48 -138 -48q-93 0 -150 63q-46 49 -46 118q0 73 67 168zM238 1053q-37 0 -63 -26q-20 -22 -20 -49q0 -32 26 -55q20 -19 54 -19q41 0 65 28q18 21 18 46q0 32 -22 53q-22 22 -58 22z
" />
    <glyph glyph-name="Tilde" 
d="M711 1745l171 -14q-62 -231 -218 -231q-45 0 -150 39q-84 32 -108 32q-52 0 -65 -72l-171 11q17 81 39 118q37 64 96 94q41 21 81 21q39 0 171 -50q59 -24 77 -24q52 0 77 76z" />
    <glyph glyph-name="five.numerator" horiz-adv-x="474" 
d="M386 1258h-202v-106q36 12 70 12q76 0 126 -49q53 -51 53 -128q0 -97 -73 -152q-52 -40 -130 -40q-139 0 -194 133l110 38q25 -61 81 -61q36 0 60 24q23 23 23 55t-23 55q-24 25 -61 25q-44 0 -76 -39h-81v338h317v-105z" />
    <glyph glyph-name="four.numerator" horiz-adv-x="474" 
d="M259 806v112h-221v94l215 351h127v-344h54v-101h-54v-112h-121zM144 1015h121v206z" />
    <glyph glyph-name="Breve" 
d="M159 1750h181q25 -39 46 -59q47 -41 126 -41t126 41q21 20 46 59h181q-25 -84 -71 -136q-105 -119 -282 -119q-178 0 -282 119q-45 50 -71 136z" />
    <glyph glyph-name="three.numerator" horiz-adv-x="474" 
d="M94 1099l133 164h-167v100h380l-166 -206q53 -6 92 -36q63 -49 63 -134q0 -88 -66 -145q-56 -47 -139 -47q-109 0 -163 75q-25 35 -32 94l114 5q11 -69 78 -69q39 0 65 26q22 21 22 53q0 34 -22 56q-25 24 -65 24q-31 0 -56 -15z" />
    <glyph glyph-name="two.numerator" horiz-adv-x="474" 
d="M347 1052l-106 -143h165v-103h-379l215 301q53 74 53 106q0 25 -18 40q-19 16 -48 16q-47 0 -62 -36q-6 -15 -8 -56h-116q-1 61 22 106q49 91 172 91q91 0 144 -53q41 -41 41 -98q0 -71 -75 -171z" />
    <glyph glyph-name="one.numerator" horiz-adv-x="474" 
d="M217 806v406l-108 -53v109l234 112v-574h-126z" />
    <glyph glyph-name="Caron" 
d="M352 1761l158 -139l162 139h183l-231 -273h-237l-217 273h182z" />
    <glyph glyph-name="Circumflex" 
d="M673 1488l-158 139l-163 -139h-182l231 273h237l217 -273h-182z" />
    <glyph glyph-name="Grave" 
d="M186 1760h269l193 -272h-179z" />
    <glyph glyph-name="Acute" 
d="M377 1488l193 272h269l-284 -272h-178z" />
    <glyph glyph-name="Dbreve" horiz-adv-x="1312" 
d="M546 0h-403v1365h387q231 0 370 -70q172 -85 261 -262q75 -147 75 -335q0 -236 -111 -414q-177 -284 -579 -284zM526 1138h-103v-907h54q151 0 238 41q119 57 183 180q54 104 54 237q0 149 -66 262q-62 105 -175 151q-85 36 -185 36zM303 1750h182q23 -38 45 -59
q47 -41 127 -41q79 0 126 41q22 21 45 59h181q-26 -86 -71 -136q-104 -119 -282 -119q-177 0 -282 119q-46 52 -71 136z" />
    <glyph glyph-name="Ring" 
d="M514 1821q80 0 139 -60q49 -50 49 -129q0 -83 -64 -137q-55 -46 -126 -46q-84 0 -141 60q-49 50 -49 126q0 86 64 140q53 46 128 46zM513 1727q-45 0 -73 -33q-22 -25 -22 -59q0 -39 30 -67q25 -25 64 -25q43 0 72 32q22 26 22 58q0 41 -30 69q-25 25 -63 25z" />
    <glyph glyph-name="Dotaccent" 
d="M511 1781q61 0 102 -45q38 -41 38 -98q0 -62 -49 -105q-37 -34 -92 -34q-62 0 -103 45q-38 41 -38 96q0 64 49 107q37 34 93 34z" />
    <glyph glyph-name="Dieresis" 
d="M293 1781q61 0 102 -45q38 -41 38 -98q0 -62 -49 -105q-37 -34 -92 -34q-62 0 -103 45q-38 41 -38 96q0 64 49 107q37 34 93 34zM729 1781q61 0 102 -45q38 -41 38 -98q0 -62 -49 -105q-37 -34 -92 -34q-62 0 -103 45q-38 41 -38 96q0 64 49 107q37 34 93 34z" />
    <glyph glyph-name="ahungarumlaut" horiz-adv-x="1244" 
d="M854 827v120h261v-947h-261v130q-129 -163 -329 -163q-217 0 -349 161q-109 133 -109 334q0 150 69 278q58 108 165 173q108 66 243 66q111 0 200 -53q54 -32 110 -99zM598 759q-123 0 -192 -95q-61 -85 -61 -198q0 -135 83 -218q71 -71 168 -71q118 0 195 98
q67 85 67 199q0 113 -60 191q-73 94 -200 94zM355 1091l143 280h231l-234 -280h-140zM710 1091l143 280h231l-234 -280h-140z" />
    <glyph glyph-name="eight.denominator" horiz-adv-x="474" 
d="M358 293q79 -36 79 -129q0 -81 -62 -131q-56 -44 -139 -44q-99 0 -154 58q-44 44 -44 111q0 99 82 135q-64 33 -64 113q0 76 59 123q51 39 126 39q85 0 135 -49q46 -43 46 -109q0 -81 -64 -117zM241 467q-36 0 -55 -22q-15 -17 -15 -39q0 -29 22 -47q20 -17 46 -17
q31 0 54 24q17 19 17 39q0 25 -23 46q-19 16 -46 16zM238 238q-36 0 -59 -24q-20 -20 -20 -48q0 -32 24 -52q22 -19 54 -19q35 0 58 24q20 20 20 47q0 31 -24 52q-23 20 -53 20z" />
    <glyph glyph-name="nine.denominator" horiz-adv-x="474" 
d="M81 0l150 215q-10 -2 -15 -2q-66 0 -113 36q-67 49 -67 133q0 82 61 134q58 52 143 52q94 0 152 -63q45 -49 45 -120q0 -72 -65 -167l-149 -218h-142zM239 460q-37 0 -61 -25q-21 -19 -21 -48q0 -33 27 -56q21 -18 52 -18q41 0 65 27q17 20 17 46q0 32 -24 53
q-23 21 -55 21z" />
    <glyph glyph-name="zero.denominator" horiz-adv-x="474" 
d="M430 385v-213q0 -93 -51 -138q-53 -45 -141 -45q-96 0 -148 48q-30 28 -37 64q-9 37 -9 95v176q0 101 42 143q53 53 148 53q85 0 140 -44q56 -45 56 -139zM170 372v-188q0 -48 11 -64q19 -24 57 -24q39 0 56 26q12 18 12 63v192q0 82 -68 82q-40 0 -56 -25
q-12 -16 -12 -62z" />
    <glyph glyph-name="zerozero.afrac" horiz-adv-x="591" 
d="M0 738h591v-115h-591v115zM488 1190v-213q0 -93 -51 -138q-53 -45 -140 -45q-95 0 -148 48q-30 28 -37 64q-9 39 -9 96v175q0 102 42 144q53 53 148 53q84 0 139 -44q56 -47 56 -140zM229 1177v-187q0 -49 11 -65q20 -24 57 -24q38 0 55 26q12 18 12 64v192q0 82 -68 82
q-39 0 -55 -25q-12 -16 -12 -63zM488 385v-213q0 -93 -51 -138q-53 -45 -140 -45q-95 0 -148 48q-30 28 -37 64q-9 38 -9 95v176q0 101 42 143q53 53 148 53q84 0 139 -44q56 -45 56 -139zM229 372v-188q0 -48 11 -64q20 -24 57 -24q38 0 55 26q12 18 12 63v192q0 82 -68 82
q-39 0 -55 -25q-12 -16 -12 -62z" />
    <glyph glyph-name="periodsuperior" horiz-adv-x="347" 
d="M175 727q44 0 71 -30q26 -29 26 -70q0 -45 -33 -73q-26 -23 -65 -23q-45 0 -72 30q-26 29 -26 68q0 47 33 75q26 23 66 23z" />
    <glyph glyph-name="commasuperior" horiz-adv-x="347" 
d="M135 724l157 -39l-115 -302l-117 27z" />
    <glyph glyph-name="commareversed" horiz-adv-x="347" 
d="M297 1106l-222 60l162 426l175 -46z" />
    <glyph glyph-name="dieresis.alt" 
d="M333 1378q61 0 101 -45q35 -38 35 -95q0 -61 -46 -101q-38 -34 -91 -34q-62 0 -103 45q-35 38 -35 92q0 64 46 104q37 34 93 34zM692 1378q60 0 101 -45q35 -38 35 -95q0 -61 -46 -101q-38 -34 -91 -34q-63 0 -103 45q-35 38 -35 92q0 64 46 104q38 34 93 34z" />
    <glyph glyph-name="comma.high" horiz-adv-x="347" 
d="M56 1392l222 -60l-162 -426l-175 46z" />
    <glyph glyph-name="seven.denominator" horiz-adv-x="474" 
d="M66 0l195 452h-191v105h367l-240 -557h-131z" />
    <glyph glyph-name="commaaccent" 
d="M398 -118h224v-116q0 -82 -21 -129q-33 -70 -140 -97l-76 -16v86q20 7 76 20q49 12 57 90h-120v162z" />
    <glyph glyph-name="six.denominator" horiz-adv-x="474" 
d="M254 557h143l-152 -215q18 2 21 2q54 0 98 -29q73 -49 73 -138q0 -85 -67 -140q-58 -48 -138 -48q-93 0 -150 62q-46 49 -46 119q0 73 67 168zM238 247q-37 0 -63 -26q-20 -20 -20 -49q0 -32 26 -55q20 -19 54 -19q41 0 65 28q18 21 18 46q0 32 -22 53q-22 22 -58 22z
" />
    <glyph glyph-name="five.denominator" horiz-adv-x="474" 
d="M386 452h-202v-106q34 12 70 12q76 0 126 -49q53 -51 53 -128q0 -97 -73 -152q-53 -40 -130 -40q-139 0 -194 133l110 38q24 -62 81 -62q36 0 60 24q23 23 23 56q0 32 -23 55q-24 25 -61 25q-44 0 -76 -39h-81v338h317v-105z" />
    <glyph glyph-name="oneone" horiz-adv-x="1613" 
d="M311 544v594l-155 -77v159l335 164v-840h-180zM1215 1386l83 -52l-901 -1361l-82 53zM1247 0v595l-155 -77v158l335 165v-841h-180z" />
    <glyph glyph-name="four.denominator" horiz-adv-x="474" 
d="M259 0v113h-221v94l215 350h127v-343h54v-101h-54v-113h-121zM144 210h121v205z" />
    <glyph glyph-name="three.denominator" horiz-adv-x="474" 
d="M94 293l133 164h-167v100h380l-166 -206q53 -6 92 -36q63 -49 63 -134q0 -88 -66 -145q-56 -47 -139 -47q-109 0 -163 75q-25 36 -32 95l114 4q11 -69 78 -69q39 0 65 26q22 21 22 53q0 34 -22 56q-26 24 -65 24q-31 0 -56 -15z" />
    <glyph glyph-name="Dieresis.alt" 
d="M330 1781q62 0 102 -45q38 -41 38 -98q0 -62 -49 -105q-37 -34 -92 -34q-63 0 -103 45q-38 41 -38 96q0 64 49 107q37 34 93 34zM691 1781q61 0 102 -45q38 -41 38 -98q0 -62 -49 -105q-37 -34 -92 -34q-62 0 -103 45q-38 41 -38 96q0 64 49 107q37 34 93 34z" />
  </font>
</defs>
</svg>
